  0
SECTION
  2
HEADER
  9
$ACADVER
  1
AC1009
  9
$FILLMODE
 70
0
  9
$EXTMIN
 10
-2.6023
 20
-15.3695
 30
0.0000
  9
$EXTMAX
 10
54.8450
 20
60.5600
 30
0.0000
  0
ENDSEC
  0
SECTION
  2
TABLES
  0
TABLE
  2
LTYPE
 70
1
  0
LTYPE
  2
CONTINUOUS
 70
64
  3
Solid line
 72
65
 73
0
 40
0
  0
ENDTAB
  0
TABLE
  2
LAYER
 70
255
  0
LAYER
  2
19
 70
64
 62
53
  6
CONTINUOUS
  0
LAYER
  2
20
 70
64
 62
30
  6
CONTINUOUS
  0
LAYER
  2
22
 70
64
 62
253
  6
CONTINUOUS
  0
LAYER
  2
49
 70
64
 62
253
  6
CONTINUOUS
  0
LAYER
  2
52
 70
64
 62
253
  6
CONTINUOUS
  0
ENDTAB
  0
ENDSEC
  0
SECTION
  2
BLOCKS
  0
BLOCK
  8
0
  2
RECT
 70
64
 10
0.0000
 20
0.0000
 30
0.0000
  3
RECT
  0
SOLID
  8
0
 10
-0.5000
 20
-0.5000
 30
0.0000
 11
0.5000
 21
-0.5000
 31
0.0000
 12
-0.5000
 22
0.5000
 32
0.0000
 13
0.5000
 23
0.5000
 33
0.0000
  0
ENDBLK
  8
0
  0
BLOCK
  8
0
  2
PIE
 70
64
 10
0.0000
 20
0.0000
 30
0.0000
  3
PIE
  0
CIRCLE
  8
0
 10
0.0000
 20
0.0000
 30
0.0000
 40
0.5000
  0
ENDBLK
  8
0
  0
BLOCK
  8
0
  2
OCTAGONP
 70
64
 10
0.0000
 20
0.0000
 30
0.0000
  3
OCTAGONP
  0
POLYLINE
  8
0
 66
1
 10
0.0000
 20
0.0000
 30
0.0000
 40
0.0000
 41
0.0000
 70
1
  0
VERTEX
  8
0
 10
-0.5000
 20
-0.2071
 30
0.0000
  0
VERTEX
  8
0
 10
-0.5000
 20
0.2071
 30
0.0000
  0
VERTEX
  8
0
 10
-0.2071
 20
0.5000
 30
0.0000
  0
VERTEX
  8
0
 10
0.2071
 20
0.5000
 30
0.0000
  0
VERTEX
  8
0
 10
0.5000
 20
0.2071
 30
0.0000
  0
VERTEX
  8
0
 10
0.5000
 20
-0.2071
 30
0.0000
  0
VERTEX
  8
0
 10
0.2071
 20
-0.5000
 30
0.0000
  0
VERTEX
  8
0
 10
-0.2071
 20
-0.5000
 30
0.0000
  0
SEQEND
  8
0
  0
ENDBLK
  8
0
  0
BLOCK
  8
0
  2
SQUAREP
 70
64
 10
0.0000
 20
0.0000
 30
0.0000
  3
SQUAREP
  0
SOLID
  8
0
 10
-0.5000
 20
-0.5000
 30
0.0000
 11
0.5000
 21
-0.5000
 31
0.0000
 12
-0.5000
 22
0.5000
 32
0.0000
 13
0.5000
 23
0.5000
 33
0.0000
  0
ENDBLK
  8
0
  0
BLOCK
  8
0
  2
ROUNDP
 70
64
 10
0.0000
 20
0.0000
 30
0.0000
  3
ROUNDP
  0
CIRCLE
  8
0
 10
0.0000
 20
0.0000
 30
0.0000
 40
0.5000
  0
ENDBLK
  8
0
  0
BLOCK
  8
0
  2
ANNULUSP
 70
64
 10
0.0000
 20
0.0000
 30
0.0000
  3
ANNULUSP
  0
CIRCLE
  8
0
 10
0.0000
 20
0.0000
 30
0.0000
 40
0.5000
  0
ENDBLK
  8
0
  0
BLOCK
  8
0
  2
THERMALP
 70
64
 10
0.0000
 20
0.0000
 30
0.0000
  3
THERMALP
  0
LINE
  8
0
 10
-0.2379
 20
0.4500
 30
0.0000
 11
0.2379
 21
0.4500
 31
0.0000
  0
LINE
  8
0
 10
0.4500
 20
0.2379
 30
0.0000
 11
0.4500
 21
-0.2379
 31
0.0000
  0
LINE
  8
0
 10
0.2379
 20
-0.4500
 30
0.0000
 11
-0.2379
 21
-0.4500
 31
0.0000
  0
LINE
  8
0
 10
-0.4500
 20
-0.2379
 30
0.0000
 11
-0.4500
 21
0.2379
 31
0.0000
  0
ENDBLK
  8
0
  0
BLOCK
  8
0
  2
OCTAGONV
 70
64
 10
0.0000
 20
0.0000
 30
0.0000
  3
OCTAGONV
  0
POLYLINE
  8
0
 66
1
 10
0.0000
 20
0.0000
 30
0.0000
 40
0.0000
 41
0.0000
 70
1
  0
VERTEX
  8
0
 10
-0.5000
 20
-0.2071
 30
0.0000
  0
VERTEX
  8
0
 10
-0.5000
 20
0.2071
 30
0.0000
  0
VERTEX
  8
0
 10
-0.2071
 20
0.5000
 30
0.0000
  0
VERTEX
  8
0
 10
0.2071
 20
0.5000
 30
0.0000
  0
VERTEX
  8
0
 10
0.5000
 20
0.2071
 30
0.0000
  0
VERTEX
  8
0
 10
0.5000
 20
-0.2071
 30
0.0000
  0
VERTEX
  8
0
 10
0.2071
 20
-0.5000
 30
0.0000
  0
VERTEX
  8
0
 10
-0.2071
 20
-0.5000
 30
0.0000
  0
SEQEND
  8
0
  0
ENDBLK
  8
0
  0
BLOCK
  8
0
  2
SQUAREV
 70
64
 10
0.0000
 20
0.0000
 30
0.0000
  3
SQUAREV
  0
SOLID
  8
0
 10
-0.5000
 20
-0.5000
 30
0.0000
 11
0.5000
 21
-0.5000
 31
0.0000
 12
-0.5000
 22
0.5000
 32
0.0000
 13
0.5000
 23
0.5000
 33
0.0000
  0
ENDBLK
  8
0
  0
BLOCK
  8
0
  2
ROUNDV
 70
64
 10
0.0000
 20
0.0000
 30
0.0000
  3
ROUNDV
  0
CIRCLE
  8
0
 10
0.0000
 20
0.0000
 30
0.0000
 40
0.5000
  0
ENDBLK
  8
0
  0
BLOCK
  8
0
  2
ANNULUSV
 70
64
 10
0.0000
 20
0.0000
 30
0.0000
  3
ANNULUSV
  0
CIRCLE
  8
0
 10
0.0000
 20
0.0000
 30
0.0000
 40
0.5000
  0
ENDBLK
  8
0
  0
BLOCK
  8
0
  2
THERMALV
 70
64
 10
0.0000
 20
0.0000
 30
0.0000
  3
THERMALV
  0
LINE
  8
0
 10
-0.2379
 20
0.4500
 30
0.0000
 11
0.2379
 21
0.4500
 31
0.0000
  0
LINE
  8
0
 10
0.4500
 20
0.2379
 30
0.0000
 11
0.4500
 21
-0.2379
 31
0.0000
  0
LINE
  8
0
 10
0.2379
 20
-0.4500
 30
0.0000
 11
-0.2379
 21
-0.4500
 31
0.0000
  0
LINE
  8
0
 10
-0.4500
 20
-0.2379
 30
0.0000
 11
-0.4500
 21
0.2379
 31
0.0000
  0
ENDBLK
  8
0
  0
BLOCK
  8
0
  2
OFFSETP100
 70
64
 10
0.0000
 20
0.0000
 30
0.0000
  3
OFFSETP100
  0
POLYLINE
  8
0
 66
1
 10
0.0000
 20
0.0000
 30
0.0000
 40
0.0000
 41
0.0000
 70
1
  0
VERTEX
  8
0
 10
0.0000
 20
-0.5000
 30
0.0000
  0
VERTEX
  8
0
 10
1.0000
 20
-0.5000
 30
0.0000
 42
1.0000
  0
VERTEX
  8
0
 10
1.0000
 20
0.5000
 30
0.0000
  0
VERTEX
  8
0
 10
0.0000
 20
0.5000
 30
0.0000
 42
1.0000
  0
SEQEND
  8
0
  0
ENDBLK
  8
0
  0
ENDSEC
  0
SECTION
  2
ENTITIES
  0
LINE
  8
20
 10
0.0000
 20
1.0000
 30
0.0000
 11
0.0000
 21
38.0000
 31
0.0000
  0
ARC
  8
20
 10
1.0000
 20
38.0000
 30
0.0000
 40
1.0000
 50
90.0000
 51
180.0000
  0
LINE
  8
20
 10
1.0000
 20
39.0000
 30
0.0000
 11
28.0000
 21
39.0000
 31
0.0000
  0
ARC
  8
20
 10
28.0000
 20
38.0000
 30
0.0000
 40
1.0000
 50
0.0000
 51
90.0000
  0
LINE
  8
20
 10
29.0000
 20
38.0000
 30
0.0000
 11
29.0000
 21
1.0000
 31
0.0000
  0
ARC
  8
20
 10
28.0000
 20
1.0000
 30
0.0000
 40
1.0000
 50
270.0000
 51
0.0000
  0
LINE
  8
20
 10
28.0000
 20
0.0000
 30
0.0000
 11
1.0000
 21
0.0000
 31
0.0000
  0
ARC
  8
20
 10
1.0000
 20
1.0000
 30
0.0000
 40
1.0000
 50
180.0000
 51
270.0000
  0
LINE
  8
22
 10
14.4463
 20
26.5113
 30
0.0000
 11
27.7813
 21
26.5113
 31
0.0000
  0
LINE
  8
22
 10
27.7813
 20
26.5113
 30
0.0000
 11
27.7813
 21
30.4800
 31
0.0000
  0
LINE
  8
22
 10
27.7813
 20
30.4800
 30
0.0000
 11
14.4463
 21
30.4800
 31
0.0000
  0
LINE
  8
22
 10
14.4463
 20
30.4800
 30
0.0000
 11
14.4463
 21
26.6700
 31
0.0000
  0
LINE
  8
22
 10
14.4463
 20
26.6700
 30
0.0000
 11
14.4463
 21
26.5113
 31
0.0000
  0
LINE
  8
22
 10
22.3396
 20
0.9394
 30
0.0000
 11
23.2794
 21
0.9394
 31
0.0000
  0
LINE
  8
22
 10
22.9661
 20
0.9394
 30
0.0000
 11
22.9661
 21
1.2004
 31
0.0000
  0
ARC
  8
22
 10
22.8095
 20
1.2004
 30
0.0000
 40
0.1566
 50
0.0000
 51
90.0000
  0
LINE
  8
22
 10
22.8095
 20
1.3570
 30
0.0000
 11
22.3396
 21
1.3570
 31
0.0000
  0
LINE
  8
22
 10
22.9661
 20
1.6854
 30
0.0000
 11
22.9661
 21
1.9987
 31
0.0000
  0
LINE
  8
22
 10
23.2794
 20
1.7899
 30
0.0000
 11
22.4962
 21
1.7899
 31
0.0000
  0
ARC
  8
22
 10
22.4962
 20
1.9465
 30
0.0000
 40
0.1566
 50
180.0000
 51
270.0000
  0
LINE
  8
22
 10
22.3396
 20
1.9465
 30
0.0000
 11
22.3396
 21
1.9987
 31
0.0000
  0
LINE
  8
22
 10
22.9661
 20
2.2646
 30
0.0000
 11
22.9661
 21
2.5778
 31
0.0000
  0
LINE
  8
22
 10
23.2794
 20
2.3690
 30
0.0000
 11
22.4962
 21
2.3690
 31
0.0000
  0
ARC
  8
22
 10
22.4962
 20
2.5256
 30
0.0000
 40
0.1566
 50
180.0000
 51
270.0000
  0
LINE
  8
22
 10
22.3396
 20
2.5256
 30
0.0000
 11
22.3396
 21
2.5778
 31
0.0000
  0
LINE
  8
22
 10
22.0263
 20
2.9556
 30
0.0000
 11
22.9661
 21
2.9556
 31
0.0000
  0
LINE
  8
22
 10
22.9661
 20
2.9556
 30
0.0000
 11
22.9661
 21
3.2166
 31
0.0000
  0
ARC
  8
22
 10
22.8095
 20
3.2166
 30
0.0000
 40
0.1566
 50
0.0000
 51
90.0000
  0
LINE
  8
22
 10
22.8095
 20
3.3733
 30
0.0000
 11
22.4962
 21
3.3733
 31
0.0000
  0
ARC
  8
22
 10
22.4962
 20
3.2166
 30
0.0000
 40
0.1566
 50
90.0000
 51
180.0000
  0
LINE
  8
22
 10
22.3396
 20
3.2166
 30
0.0000
 11
22.3396
 21
2.9556
 31
0.0000
  0
LINE
  8
22
 10
22.4179
 20
3.7434
 30
0.0000
 11
22.4701
 21
3.7434
 31
0.0000
  0
LINE
  8
22
 10
22.4701
 20
3.7434
 30
0.0000
 11
22.4701
 21
3.7956
 31
0.0000
  0
LINE
  8
22
 10
22.4701
 20
3.7956
 30
0.0000
 11
22.4179
 21
3.7956
 31
0.0000
  0
LINE
  8
22
 10
22.4179
 20
3.7956
 30
0.0000
 11
22.4179
 21
3.7434
 31
0.0000
  0
LINE
  8
22
 10
22.8356
 20
3.7434
 30
0.0000
 11
22.8878
 21
3.7434
 31
0.0000
  0
LINE
  8
22
 10
22.8878
 20
3.7434
 30
0.0000
 11
22.8878
 21
3.7956
 31
0.0000
  0
LINE
  8
22
 10
22.8878
 20
3.7956
 30
0.0000
 11
22.8356
 21
3.7956
 31
0.0000
  0
LINE
  8
22
 10
22.8356
 20
3.7956
 30
0.0000
 11
22.8356
 21
3.7434
 31
0.0000
  0
LINE
  8
22
 10
22.2352
 20
4.1397
 30
0.0000
 11
23.3838
 21
4.5574
 31
0.0000
  0
LINE
  8
22
 10
22.2352
 20
4.8712
 30
0.0000
 11
23.3838
 21
5.2889
 31
0.0000
  0
LINE
  8
22
 10
22.3396
 20
6.0464
 30
0.0000
 11
22.3396
 21
5.7853
 31
0.0000
  0
ARC
  8
22
 10
22.4962
 20
5.7853
 30
0.0000
 40
0.1566
 50
180.0000
 51
270.0000
  0
LINE
  8
22
 10
22.4962
 20
5.6287
 30
0.0000
 11
22.8095
 21
5.6287
 31
0.0000
  0
ARC
  8
22
 10
22.8095
 20
5.7853
 30
0.0000
 40
0.1566
 50
270.0000
 51
0.0000
  0
LINE
  8
22
 10
22.9661
 20
5.7853
 30
0.0000
 11
22.9661
 21
6.0464
 31
0.0000
  0
LINE
  8
22
 10
22.9661
 20
6.0464
 30
0.0000
 11
22.1830
 21
6.0464
 31
0.0000
  0
ARC
  8
22
 10
22.1830
 20
5.8897
 30
0.0000
 40
0.1566
 50
90.0000
 51
179.9989
  0
LINE
  8
22
 10
22.0263
 20
5.8897
 30
0.0000
 11
22.0263
 21
5.6809
 31
0.0000
  0
LINE
  8
22
 10
22.3396
 20
6.4517
 30
0.0000
 11
22.9661
 21
6.4517
 31
0.0000
  0
LINE
  8
22
 10
23.2272
 20
6.4256
 30
0.0000
 11
23.2794
 21
6.4256
 31
0.0000
  0
LINE
  8
22
 10
23.2794
 20
6.4256
 30
0.0000
 11
23.2794
 21
6.4778
 31
0.0000
  0
LINE
  8
22
 10
23.2794
 20
6.4778
 30
0.0000
 11
23.2272
 21
6.4778
 31
0.0000
  0
LINE
  8
22
 10
23.2272
 20
6.4778
 30
0.0000
 11
23.2272
 21
6.4256
 31
0.0000
  0
LINE
  8
22
 10
22.9661
 20
6.7451
 30
0.0000
 11
22.9661
 21
7.0583
 31
0.0000
  0
LINE
  8
22
 10
23.2794
 20
6.8495
 30
0.0000
 11
22.4962
 21
6.8495
 31
0.0000
  0
ARC
  8
22
 10
22.4962
 20
7.0061
 30
0.0000
 40
0.1566
 50
180.0000
 51
270.0000
  0
LINE
  8
22
 10
22.3396
 20
7.0061
 30
0.0000
 11
22.3396
 21
7.0583
 31
0.0000
  0
LINE
  8
22
 10
22.3396
 20
7.4315
 30
0.0000
 11
23.2794
 21
7.4315
 31
0.0000
  0
LINE
  8
22
 10
22.9661
 20
7.4315
 30
0.0000
 11
22.9661
 21
7.6926
 31
0.0000
  0
ARC
  8
22
 10
22.8095
 20
7.6926
 30
0.0000
 40
0.1566
 50
0.0000
 51
90.0000
  0
LINE
  8
22
 10
22.8095
 20
7.8492
 30
0.0000
 11
22.3396
 21
7.8492
 31
0.0000
  0
LINE
  8
22
 10
22.9661
 20
8.2850
 30
0.0000
 11
22.4962
 21
8.2850
 31
0.0000
  0
ARC
  8
22
 10
22.4962
 20
8.4416
 30
0.0000
 40
0.1566
 50
180.0000
 51
270.0000
  0
LINE
  8
22
 10
22.3396
 20
8.4416
 30
0.0000
 11
22.3396
 21
8.7027
 31
0.0000
  0
LINE
  8
22
 10
22.3396
 20
8.7027
 30
0.0000
 11
22.9661
 21
8.7027
 31
0.0000
  0
LINE
  8
22
 10
23.2794
 20
9.1430
 30
0.0000
 11
22.3396
 21
9.1430
 31
0.0000
  0
LINE
  8
22
 10
22.3396
 20
9.1430
 30
0.0000
 11
22.3396
 21
9.4040
 31
0.0000
  0
ARC
  8
22
 10
22.4962
 20
9.4040
 30
0.0000
 40
0.1566
 50
90.0011
 51
180.0000
  0
LINE
  8
22
 10
22.4962
 20
9.5607
 30
0.0000
 11
22.8095
 21
9.5607
 31
0.0000
  0
ARC
  8
22
 10
22.8095
 20
9.4040
 30
0.0000
 40
0.1566
 50
0.0000
 51
90.0000
  0
LINE
  8
22
 10
22.9661
 20
9.4040
 30
0.0000
 11
22.9661
 21
9.1430
 31
0.0000
  0
LINE
  8
22
 10
22.3396
 20
9.9003
 30
0.0000
 11
22.3918
 21
9.9003
 31
0.0000
  0
LINE
  8
22
 10
22.3918
 20
9.9003
 30
0.0000
 11
22.3918
 21
9.9525
 31
0.0000
  0
LINE
  8
22
 10
22.3918
 20
9.9525
 30
0.0000
 11
22.3396
 21
9.9525
 31
0.0000
  0
LINE
  8
22
 10
22.3396
 20
9.9525
 30
0.0000
 11
22.3396
 21
9.9003
 31
0.0000
  0
LINE
  8
22
 10
22.3396
 20
10.6632
 30
0.0000
 11
22.3396
 21
10.4543
 31
0.0000
  0
ARC
  8
22
 10
22.4962
 20
10.4543
 30
0.0000
 40
0.1566
 50
180.0000
 51
270.0000
  0
LINE
  8
22
 10
22.4962
 20
10.2977
 30
0.0000
 11
22.8095
 21
10.2977
 31
0.0000
  0
ARC
  8
22
 10
22.8095
 20
10.4543
 30
0.0000
 40
0.1566
 50
270.0000
 51
0.0000
  0
LINE
  8
22
 10
22.9661
 20
10.4543
 30
0.0000
 11
22.9661
 21
10.6632
 31
0.0000
  0
LINE
  8
22
 10
22.5484
 20
10.9977
 30
0.0000
 11
22.7573
 21
10.9977
 31
0.0000
  0
ARC
  8
22
 10
22.7573
 20
11.2065
 30
0.0000
 40
0.2088
 50
270.0000
 51
90.0000
  0
LINE
  8
22
 10
22.7573
 20
11.4154
 30
0.0000
 11
22.5484
 21
11.4154
 31
0.0000
  0
ARC
  8
22
 10
22.5484
 20
11.2065
 30
0.0000
 40
0.2088
 50
90.0000
 51
270.0000
  0
LINE
  8
22
 10
22.3396
 20
11.8381
 30
0.0000
 11
22.9661
 21
11.8381
 31
0.0000
  0
LINE
  8
22
 10
22.9661
 20
11.8381
 30
0.0000
 11
22.9661
 21
12.3080
 31
0.0000
  0
ARC
  8
22
 10
22.8095
 20
12.3080
 30
0.0000
 40
0.1566
 50
0.0000
 51
90.0000
  0
LINE
  8
22
 10
22.8095
 20
12.4647
 30
0.0000
 11
22.3396
 21
12.4647
 31
0.0000
  0
LINE
  8
22
 10
22.3396
 20
12.1514
 30
0.0000
 11
22.9661
 21
12.1514
 31
0.0000
  0
LINE
  8
22
 10
22.2352
 20
12.8570
 30
0.0000
 11
23.3838
 21
13.2746
 31
0.0000
  0
LINE
  8
22
 10
21.0767
 20
1.3048
 30
0.0000
 11
21.1811
 21
1.0438
 31
0.0000
  0
ARC
  8
22
 10
21.3068
 20
1.0940
 30
0.0000
 40
0.1354
 50
201.8017
 51
0.8174
  0
ARC
  8
22
 10
20.8493
 20
1.0875
 30
0.0000
 40
0.5929
 50
0.8174
 51
24.2394
  0
ARC
  8
22
 10
20.9510
 20
1.2545
 30
0.0000
 40
0.1354
 50
21.8017
 51
180.8174
  0
ARC
  8
22
 10
21.7009
 20
1.2652
 30
0.0000
 40
0.8854
 50
180.8174
 51
199.7915
  0
LINE
  8
22
 10
21.4421
 20
1.7275
 30
0.0000
 11
20.8156
 21
1.9363
 31
0.0000
  0
LINE
  8
22
 10
20.8156
 20
1.9363
 30
0.0000
 11
21.4421
 21
2.1451
 31
0.0000
  0
LINE
  8
22
 10
20.8156
 20
2.9071
 30
0.0000
 11
20.8156
 21
2.6461
 31
0.0000
  0
ARC
  8
22
 10
20.9722
 20
2.6461
 30
0.0000
 40
0.1566
 50
180.0000
 51
270.0000
  0
LINE
  8
22
 10
20.9722
 20
2.4894
 30
0.0000
 11
21.2333
 21
2.4894
 31
0.0000
  0
ARC
  8
22
 10
21.2333
 20
2.6983
 30
0.0000
 40
0.2088
 50
270.0000
 51
90.0000
  0
LINE
  8
22
 10
21.2333
 20
2.9071
 30
0.0000
 11
21.1289
 21
2.9071
 31
0.0000
  0
LINE
  8
22
 10
21.1289
 20
2.9071
 30
0.0000
 11
21.1289
 21
2.4894
 31
0.0000
  0
LINE
  8
22
 10
20.8156
 20
3.3124
 30
0.0000
 11
21.4421
 21
3.3124
 31
0.0000
  0
LINE
  8
22
 10
21.4421
 20
3.3124
 30
0.0000
 11
21.4421
 21
3.5735
 31
0.0000
  0
ARC
  8
22
 10
21.2855
 20
3.5735
 30
0.0000
 40
0.1566
 50
0.0000
 51
90.0000
  0
LINE
  8
22
 10
21.2855
 20
3.7301
 30
0.0000
 11
20.8156
 21
3.7301
 31
0.0000
  0
LINE
  8
22
 10
20.5023
 20
4.1704
 30
0.0000
 11
21.4421
 21
4.1704
 31
0.0000
  0
LINE
  8
22
 10
21.4421
 20
4.1704
 30
0.0000
 11
21.4421
 21
4.4315
 31
0.0000
  0
ARC
  8
22
 10
21.2855
 20
4.4315
 30
0.0000
 40
0.1566
 50
0.0000
 51
90.0000
  0
LINE
  8
22
 10
21.2855
 20
4.5881
 30
0.0000
 11
20.9722
 21
4.5881
 31
0.0000
  0
ARC
  8
22
 10
20.9722
 20
4.4315
 30
0.0000
 40
0.1566
 50
90.0000
 51
180.0000
  0
LINE
  8
22
 10
20.8156
 20
4.4315
 30
0.0000
 11
20.8156
 21
4.1704
 31
0.0000
  0
LINE
  8
22
 10
20.8156
 20
5.3760
 30
0.0000
 11
20.8156
 21
5.1149
 31
0.0000
  0
ARC
  8
22
 10
20.9722
 20
5.1149
 30
0.0000
 40
0.1566
 50
180.0000
 51
270.0000
  0
LINE
  8
22
 10
20.9722
 20
4.9583
 30
0.0000
 11
21.2333
 21
4.9583
 31
0.0000
  0
ARC
  8
22
 10
21.2333
 20
5.1672
 30
0.0000
 40
0.2088
 50
270.0000
 51
90.0000
  0
LINE
  8
22
 10
21.2333
 20
5.3760
 30
0.0000
 11
21.1289
 21
5.3760
 31
0.0000
  0
LINE
  8
22
 10
21.1289
 20
5.3760
 30
0.0000
 11
21.1289
 21
4.9583
 31
0.0000
  0
LINE
  8
22
 10
21.4421
 20
5.6739
 30
0.0000
 11
21.4421
 21
5.9872
 31
0.0000
  0
LINE
  8
22
 10
21.7554
 20
5.7783
 30
0.0000
 11
20.9722
 21
5.7783
 31
0.0000
  0
ARC
  8
22
 10
20.9722
 20
5.9350
 30
0.0000
 40
0.1566
 50
180.0000
 51
270.0000
  0
LINE
  8
22
 10
20.8156
 20
5.9350
 30
0.0000
 11
20.8156
 21
5.9872
 31
0.0000
  0
LINE
  8
22
 10
20.8156
 20
6.7476
 30
0.0000
 11
20.8156
 21
6.4865
 31
0.0000
  0
ARC
  8
22
 10
20.9722
 20
6.4865
 30
0.0000
 40
0.1566
 50
180.0000
 51
270.0000
  0
LINE
  8
22
 10
20.9722
 20
6.3299
 30
0.0000
 11
21.2333
 21
6.3299
 31
0.0000
  0
ARC
  8
22
 10
21.2333
 20
6.5387
 30
0.0000
 40
0.2088
 50
270.0000
 51
90.0000
  0
LINE
  8
22
 10
21.2333
 20
6.7476
 30
0.0000
 11
21.1289
 21
6.7476
 31
0.0000
  0
LINE
  8
22
 10
21.1289
 20
6.7476
 30
0.0000
 11
21.1289
 21
6.3299
 31
0.0000
  0
LINE
  8
22
 10
20.8156
 20
7.1580
 30
0.0000
 11
21.4421
 21
7.1580
 31
0.0000
  0
LINE
  8
22
 10
21.4421
 20
7.1580
 30
0.0000
 11
21.4421
 21
7.4713
 31
0.0000
  0
LINE
  8
22
 10
21.4421
 20
7.4713
 30
0.0000
 11
21.3377
 21
7.4713
 31
0.0000
  0
LINE
  8
22
 10
21.0767
 20
8.1018
 30
0.0000
 11
21.1811
 21
7.8408
 31
0.0000
  0
ARC
  8
22
 10
21.3068
 20
7.8910
 30
0.0000
 40
0.1354
 50
201.8017
 51
0.8174
  0
ARC
  8
22
 10
20.8493
 20
7.8845
 30
0.0000
 40
0.5929
 50
0.8174
 51
24.2394
  0
ARC
  8
22
 10
20.9510
 20
8.0515
 30
0.0000
 40
0.1354
 50
21.8017
 51
180.8174
  0
ARC
  8
22
 10
21.7009
 20
8.0622
 30
0.0000
 40
0.8854
 50
180.8174
 51
199.7915
  0
LINE
  8
22
 10
20.8156
 20
8.9726
 30
0.0000
 11
20.8156
 21
8.7116
 31
0.0000
  0
ARC
  8
22
 10
20.9722
 20
8.7116
 30
0.0000
 40
0.1566
 50
180.0000
 51
270.0000
  0
LINE
  8
22
 10
20.9722
 20
8.5549
 30
0.0000
 11
21.2333
 21
8.5549
 31
0.0000
  0
ARC
  8
22
 10
21.2333
 20
8.7638
 30
0.0000
 40
0.2088
 50
270.0000
 51
90.0000
  0
LINE
  8
22
 10
21.2333
 20
8.9726
 30
0.0000
 11
21.1289
 21
8.9726
 31
0.0000
  0
LINE
  8
22
 10
21.1289
 20
8.9726
 30
0.0000
 11
21.1289
 21
8.5549
 31
0.0000
  0
LINE
  8
22
 10
20.8156
 20
9.3779
 30
0.0000
 11
21.4421
 21
9.3779
 31
0.0000
  0
LINE
  8
22
 10
21.4421
 20
9.3779
 30
0.0000
 11
21.4421
 21
9.6389
 31
0.0000
  0
ARC
  8
22
 10
21.2855
 20
9.6389
 30
0.0000
 40
0.1566
 50
0.0000
 51
90.0000
  0
LINE
  8
22
 10
21.2855
 20
9.7956
 30
0.0000
 11
20.8156
 21
9.7956
 31
0.0000
  0
LINE
  8
22
 10
21.5466
 20
10.2096
 30
0.0000
 11
21.7554
 21
10.4706
 31
0.0000
  0
LINE
  8
22
 10
21.7554
 20
10.4706
 30
0.0000
 11
20.8156
 21
10.4706
 31
0.0000
  0
LINE
  8
22
 10
20.8156
 20
10.2096
 30
0.0000
 11
20.8156
 21
10.7317
 31
0.0000
  0
LINE
  8
22
 10
21.2333
 20
11.6461
 30
0.0000
 11
21.2333
 21
11.3328
 31
0.0000
  0
ARC
  8
22
 10
21.4421
 20
11.3328
 30
0.0000
 40
0.2088
 50
180.0000
 51
270.0000
  0
LINE
  8
22
 10
21.4421
 20
11.1240
 30
0.0000
 11
21.4943
 21
11.1240
 31
0.0000
  0
ARC
  8
22
 10
21.4943
 20
11.3850
 30
0.0000
 40
0.2611
 50
270.0000
 51
90.0000
  0
LINE
  8
22
 10
21.4943
 20
11.6461
 30
0.0000
 11
21.2333
 21
11.6461
 31
0.0000
  0
ARC
  8
22
 10
21.2333
 20
11.2284
 30
0.0000
 40
0.4177
 50
90.0000
 51
180.0000
  0
LINE
  8
22
 10
21.3377
 20
12.0384
 30
0.0000
 11
21.3377
 21
12.3517
 31
0.0000
  0
ARC
  8
22
 10
21.1289
 20
12.3517
 30
0.0000
 40
0.2088
 50
0.0000
 51
90.0000
  0
LINE
  8
22
 10
21.1289
 20
12.5605
 30
0.0000
 11
21.0767
 21
12.5605
 31
0.0000
  0
ARC
  8
22
 10
21.0767
 20
12.2994
 30
0.0000
 40
0.2611
 50
90.0000
 51
270.0000
  0
LINE
  8
22
 10
21.0767
 20
12.0384
 30
0.0000
 11
21.3377
 21
12.0384
 31
0.0000
  0
ARC
  8
22
 10
21.3377
 20
12.4561
 30
0.0000
 40
0.4177
 50
270.0000
 51
359.9996
  0
LINE
  8
22
 10
20.8156
 20
12.9528
 30
0.0000
 11
20.8156
 21
13.2660
 31
0.0000
  0
ARC
  8
22
 10
21.0244
 20
13.2660
 30
0.0000
 40
0.2088
 50
90.0000
 51
180.0000
  0
LINE
  8
22
 10
21.0244
 20
13.4749
 30
0.0000
 11
21.1289
 21
13.4749
 31
0.0000
  0
ARC
  8
22
 10
21.1289
 20
13.2660
 30
0.0000
 40
0.2088
 50
0.0000
 51
90.0000
  0
LINE
  8
22
 10
21.3377
 20
13.2660
 30
0.0000
 11
21.3377
 21
12.9528
 31
0.0000
  0
LINE
  8
22
 10
21.3377
 20
12.9528
 30
0.0000
 11
21.7554
 21
12.9528
 31
0.0000
  0
LINE
  8
22
 10
21.7554
 20
12.9528
 30
0.0000
 11
21.7554
 21
13.4749
 31
0.0000
  0
LINE
  8
22
 10
16.4663
 20
11.9042
 30
0.0000
 11
16.4663
 21
10.7358
 31
0.0000
  0
LINE
  8
22
 10
16.4663
 20
10.7358
 30
0.0000
 11
15.9470
 21
10.7358
 31
0.0000
  0
LINE
  8
22
 10
15.4893
 20
11.5147
 30
0.0000
 11
15.4893
 21
10.9305
 31
0.0000
  0
ARC
  8
22
 10
15.2945
 20
10.9305
 30
0.0000
 40
0.1947
 50
270.0000
 51
0.0000
  0
LINE
  8
22
 10
15.2945
 20
10.7358
 30
0.0000
 11
14.9700
 21
10.7358
 31
0.0000
  0
LINE
  8
22
 10
14.9700
 20
10.7358
 30
0.0000
 11
14.9700
 21
11.5147
 31
0.0000
  0
LINE
  8
22
 10
14.3999
 20
10.7358
 30
0.0000
 11
14.3999
 21
11.5147
 31
0.0000
  0
LINE
  8
22
 10
14.3999
 20
11.5147
 30
0.0000
 11
13.8157
 21
11.5147
 31
0.0000
  0
ARC
  8
22
 10
13.8157
 20
11.3200
 30
0.0000
 40
0.1947
 50
90.0000
 51
180.0000
  0
LINE
  8
22
 10
13.6210
 20
11.3200
 30
0.0000
 11
13.6210
 21
10.7358
 31
0.0000
  0
LINE
  8
22
 10
14.0104
 20
10.7358
 30
0.0000
 11
14.0104
 21
11.5147
 31
0.0000
  0
LINE
  8
22
 10
13.0450
 20
11.9042
 30
0.0000
 11
13.0450
 21
10.7358
 31
0.0000
  0
LINE
  8
22
 10
13.0450
 20
10.7358
 30
0.0000
 11
12.7204
 21
10.7358
 31
0.0000
  0
ARC
  8
22
 10
12.7204
 20
10.9305
 30
0.0000
 40
0.1947
 50
180.0018
 51
270.0000
  0
LINE
  8
22
 10
12.5257
 20
10.9305
 30
0.0000
 11
12.5257
 21
11.3200
 31
0.0000
  0
ARC
  8
22
 10
12.7204
 20
11.3200
 30
0.0000
 40
0.1947
 50
89.9991
 51
180.0000
  0
LINE
  8
22
 10
12.7204
 20
11.5147
 30
0.0000
 11
13.0450
 21
11.5147
 31
0.0000
  0
LINE
  8
22
 10
11.5410
 20
10.7358
 30
0.0000
 11
11.8655
 21
10.7358
 31
0.0000
  0
ARC
  8
22
 10
11.8655
 20
10.9305
 30
0.0000
 40
0.1947
 50
270.0000
 51
0.0000
  0
LINE
  8
22
 10
12.0603
 20
10.9305
 30
0.0000
 11
12.0603
 21
11.2551
 31
0.0000
  0
ARC
  8
22
 10
11.8006
 20
11.2551
 30
0.0000
 40
0.2596
 50
0.0000
 51
180.0000
  0
LINE
  8
22
 10
11.5410
 20
11.2551
 30
0.0000
 11
11.5410
 21
11.1253
 31
0.0000
  0
LINE
  8
22
 10
11.5410
 20
11.1253
 30
0.0000
 11
12.0603
 21
11.1253
 31
0.0000
  0
LINE
  8
22
 10
11.0249
 20
10.7358
 30
0.0000
 11
11.0249
 21
11.5147
 31
0.0000
  0
LINE
  8
22
 10
11.0249
 20
11.5147
 30
0.0000
 11
10.6355
 21
11.5147
 31
0.0000
  0
LINE
  8
22
 10
10.6355
 20
11.5147
 30
0.0000
 11
10.6355
 21
11.3849
 31
0.0000
  0
LINE
  8
22
 10
9.7562
 20
10.7358
 30
0.0000
 11
10.0807
 21
10.7358
 31
0.0000
  0
ARC
  8
22
 10
10.0807
 20
10.9305
 30
0.0000
 40
0.1947
 50
270.0000
 51
0.0000
  0
LINE
  8
22
 10
10.2755
 20
10.9305
 30
0.0000
 11
10.2755
 21
11.3200
 31
0.0000
  0
ARC
  8
22
 10
10.0807
 20
11.3200
 30
0.0000
 40
0.1947
 50
0.0000
 51
90.0000
  0
LINE
  8
22
 10
10.0807
 20
11.5147
 30
0.0000
 11
9.7562
 21
11.5147
 31
0.0000
  0
LINE
  8
22
 10
9.7562
 20
11.5147
 30
0.0000
 11
9.7562
 21
10.5411
 31
0.0000
  0
ARC
  8
22
 10
9.9509
 20
10.5411
 30
0.0000
 40
0.1947
 50
180.0000
 51
270.0000
  0
LINE
  8
22
 10
9.9509
 20
10.3463
 30
0.0000
 11
10.2106
 21
10.3463
 31
0.0000
  0
ARC
  8
22
 10
14.7418
 20
9.0904
 30
0.0000
 40
0.2596
 50
180.0000
 51
270.0000
  0
ARC
  8
22
 10
14.7418
 20
9.3793
 30
0.0000
 40
0.5485
 50
269.9999
 51
315.2393
  0
ARC
  8
22
 10
14.8392
 20
9.7396
 30
0.0000
 40
0.2596
 50
0.0000
 51
90.0000
  0
ARC
  8
22
 10
14.8392
 20
9.5124
 30
0.0000
 40
0.4868
 50
90.0000
 51
126.8706
  0
ARC
  8
22
 10
14.8351
 20
9.7396
 30
0.0000
 40
0.2637
 50
300.5101
 51
359.9999
  0
ARC
  8
22
 10
14.7458
 20
9.0904
 30
0.0000
 40
0.2637
 50
120.5098
 51
180.0002
  0
LINE
  8
22
 10
14.6120
 20
9.3176
 30
0.0000
 11
14.9690
 21
9.5124
 31
0.0000
  0
LINE
  8
22
 10
14.0913
 20
9.9992
 30
0.0000
 11
13.7018
 21
8.8308
 31
0.0000
  0
LINE
  8
22
 10
13.7018
 20
8.8308
 30
0.0000
 11
13.3123
 21
9.9992
 31
0.0000
  0
LINE
  8
22
 10
12.8834
 20
8.8308
 30
0.0000
 11
12.4939
 21
8.8308
 31
0.0000
  0
ARC
  8
22
 10
12.4939
 20
9.0904
 30
0.0000
 40
0.2596
 50
180.0000
 51
270.0000
  0
LINE
  8
22
 10
12.2342
 20
9.0904
 30
0.0000
 11
12.2342
 21
9.2203
 31
0.0000
  0
ARC
  8
22
 10
12.4939
 20
9.2203
 30
0.0000
 40
0.2596
 50
90.0000
 51
180.0000
  0
LINE
  8
22
 10
12.4939
 20
9.4799
 30
0.0000
 11
12.8834
 21
9.4799
 31
0.0000
  0
LINE
  8
22
 10
12.8834
 20
9.4799
 30
0.0000
 11
12.8834
 21
9.9992
 31
0.0000
  0
LINE
  8
22
 10
12.8834
 20
9.9992
 30
0.0000
 11
12.2342
 21
9.9992
 31
0.0000
  0
ARC
  8
22
 10
10.7775
 20
9.4150
 30
0.0000
 40
0.9629
 50
359.9999
 51
25.9891
  0
ARC
  8
22
 10
11.4158
 20
9.7590
 30
0.0000
 40
0.2402
 50
18.9249
 51
90.0000
  0
ARC
  8
22
 10
11.4158
 20
9.7590
 30
0.0000
 40
0.2402
 50
90.0002
 51
161.0741
  0
ARC
  8
22
 10
12.0541
 20
9.4150
 30
0.0000
 40
0.9628
 50
154.0109
 51
180.0001
  0
ARC
  8
22
 10
10.7775
 20
9.4150
 30
0.0000
 40
0.9629
 50
334.0112
 51
360.0000
  0
ARC
  8
22
 10
11.4158
 20
9.0710
 30
0.0000
 40
0.2402
 50
270.0002
 51
341.0746
  0
ARC
  8
22
 10
12.0541
 20
9.4150
 30
0.0000
 40
0.9629
 50
180.0000
 51
205.9888
  0
ARC
  8
22
 10
11.4158
 20
9.0710
 30
0.0000
 40
0.2402
 50
198.9267
 51
270.0000
  0
LINE
  8
22
 10
11.6754
 20
9.0904
 30
0.0000
 11
11.1562
 21
9.7396
 31
0.0000
  0
LINE
  8
22
 10
26.7074
 20
29.7871
 30
0.0000
 11
26.7074
 21
29.3977
 31
0.0000
  0
LINE
  8
22
 10
26.7074
 20
29.3977
 30
0.0000
 11
26.4802
 21
29.1056
 31
0.0000
  0
LINE
  8
22
 10
26.9346
 20
29.1056
 30
0.0000
 11
26.7074
 21
29.3977
 31
0.0000
  0
LINE
  8
22
 10
26.7074
 20
29.3977
 30
0.0000
 11
26.3504
 21
29.5275
 31
0.0000
  0
LINE
  8
22
 10
26.7074
 20
29.3977
 30
0.0000
 11
27.0644
 21
29.5275
 31
0.0000
  0
ARC
  8
22
 10
25.4995
 20
29.2029
 30
0.0000
 40
0.2596
 50
180.0000
 51
270.0000
  0
ARC
  8
22
 10
25.4995
 20
29.4918
 30
0.0000
 40
0.5485
 50
269.9999
 51
315.2393
  0
ARC
  8
22
 10
25.5968
 20
29.8521
 30
0.0000
 40
0.2596
 50
0.0000
 51
90.0000
  0
ARC
  8
22
 10
25.5968
 20
29.6249
 30
0.0000
 40
0.4868
 50
90.0000
 51
126.8706
  0
ARC
  8
22
 10
25.5928
 20
29.8521
 30
0.0000
 40
0.2637
 50
300.5101
 51
359.9999
  0
ARC
  8
22
 10
25.5035
 20
29.2029
 30
0.0000
 40
0.2637
 50
120.5098
 51
180.0002
  0
LINE
  8
22
 10
25.3697
 20
29.4301
 30
0.0000
 11
25.7267
 21
29.6249
 31
0.0000
  0
LINE
  8
22
 10
24.7728
 20
29.3977
 30
0.0000
 11
23.9938
 21
29.3977
 31
0.0000
  0
LINE
  8
22
 10
23.5536
 20
30.1117
 30
0.0000
 11
23.1641
 21
28.9433
 31
0.0000
  0
LINE
  8
22
 10
23.1641
 20
28.9433
 30
0.0000
 11
22.7746
 21
30.1117
 31
0.0000
  0
LINE
  8
22
 10
22.3640
 20
28.9433
 30
0.0000
 11
22.3640
 21
29.7222
 31
0.0000
  0
LINE
  8
22
 10
22.3964
 20
30.0468
 30
0.0000
 11
22.3964
 21
30.1117
 31
0.0000
  0
LINE
  8
22
 10
22.3964
 20
30.1117
 30
0.0000
 11
22.3315
 21
30.1117
 31
0.0000
  0
LINE
  8
22
 10
22.3315
 20
30.1117
 30
0.0000
 11
22.3315
 21
30.0468
 31
0.0000
  0
LINE
  8
22
 10
22.3315
 20
30.0468
 30
0.0000
 11
22.3964
 21
30.0468
 31
0.0000
  0
LINE
  8
22
 10
21.3863
 20
30.1117
 30
0.0000
 11
21.3863
 21
28.9433
 31
0.0000
  0
LINE
  8
22
 10
21.3863
 20
28.9433
 30
0.0000
 11
21.7109
 21
28.9433
 31
0.0000
  0
ARC
  8
22
 10
21.7109
 20
29.1380
 30
0.0000
 40
0.1947
 50
270.0000
 51
0.0000
  0
LINE
  8
22
 10
21.9056
 20
29.1380
 30
0.0000
 11
21.9056
 21
29.5275
 31
0.0000
  0
ARC
  8
22
 10
21.7109
 20
29.5275
 30
0.0000
 40
0.1947
 50
0.0000
 51
90.0000
  0
LINE
  8
22
 10
21.7109
 20
29.7222
 30
0.0000
 11
21.3863
 21
29.7222
 31
0.0000
  0
LINE
  8
22
 10
20.3517
 20
28.9433
 30
0.0000
 11
20.6763
 21
28.9433
 31
0.0000
  0
ARC
  8
22
 10
20.6763
 20
29.1380
 30
0.0000
 40
0.1947
 50
270.0000
 51
0.0000
  0
LINE
  8
22
 10
20.8710
 20
29.1380
 30
0.0000
 11
20.8710
 21
29.4626
 31
0.0000
  0
ARC
  8
22
 10
20.6114
 20
29.4626
 30
0.0000
 40
0.2596
 50
0.0000
 51
180.0000
  0
LINE
  8
22
 10
20.3517
 20
29.4626
 30
0.0000
 11
20.3517
 21
29.3328
 31
0.0000
  0
LINE
  8
22
 10
20.3517
 20
29.3328
 30
0.0000
 11
20.8710
 21
29.3328
 31
0.0000
  0
LINE
  8
22
 10
19.8804
 20
29.2029
 30
0.0000
 11
19.8804
 21
29.4626
 31
0.0000
  0
ARC
  8
22
 10
19.6208
 20
29.4626
 30
0.0000
 40
0.2596
 50
0.0000
 51
180.0000
  0
LINE
  8
22
 10
19.3611
 20
29.4626
 30
0.0000
 11
19.3611
 21
29.2029
 31
0.0000
  0
ARC
  8
22
 10
19.6208
 20
29.2029
 30
0.0000
 40
0.2596
 50
180.0000
 51
0.0000
  0
LINE
  8
22
 10
18.2802
 20
29.2029
 30
0.0000
 11
18.2802
 21
29.4626
 31
0.0000
  0
ARC
  8
22
 10
18.0206
 20
29.4626
 30
0.0000
 40
0.2596
 50
0.0000
 51
180.0000
  0
LINE
  8
22
 10
17.7609
 20
29.4626
 30
0.0000
 11
17.7609
 21
29.2029
 31
0.0000
  0
ARC
  8
22
 10
18.0206
 20
29.2029
 30
0.0000
 40
0.2596
 50
180.0000
 51
0.0000
  0
LINE
  8
22
 10
17.2515
 20
28.9433
 30
0.0000
 11
17.2515
 21
29.7222
 31
0.0000
  0
LINE
  8
22
 10
17.2515
 20
29.7222
 30
0.0000
 11
16.9270
 21
29.7222
 31
0.0000
  0
ARC
  8
22
 10
16.9270
 20
29.5275
 30
0.0000
 40
0.1947
 50
90.0000
 51
179.9982
  0
LINE
  8
22
 10
16.7322
 20
29.5275
 30
0.0000
 11
16.7322
 21
28.9433
 31
0.0000
  0
LINE
  8
22
 10
16.2079
 20
30.1117
 30
0.0000
 11
16.2079
 21
29.1380
 31
0.0000
  0
ARC
  8
22
 10
16.0131
 20
29.1380
 30
0.0000
 40
0.1947
 50
270.0000
 51
0.0000
  0
LINE
  8
22
 10
15.6513
 20
28.5538
 30
0.0000
 11
15.5215
 21
28.5538
 31
0.0000
  0
LINE
  8
22
 10
15.5215
 20
28.5538
 30
0.0000
 11
15.1321
 21
29.7222
 31
0.0000
  0
LINE
  8
22
 10
15.6513
 20
29.7222
 30
0.0000
 11
15.3917
 21
28.9433
 31
0.0000
  0
LINE
  8
22
 10
26.2264
 20
27.4927
 30
0.0000
 11
26.5185
 21
27.4927
 31
0.0000
  0
ARC
  8
22
 10
26.5185
 20
27.2655
 30
0.0000
 40
0.2272
 50
270.0000
 51
90.0000
  0
LINE
  8
22
 10
26.5185
 20
27.0383
 30
0.0000
 11
26.2264
 21
27.0383
 31
0.0000
  0
LINE
  8
22
 10
26.2264
 20
27.0383
 30
0.0000
 11
26.2264
 21
27.6225
 31
0.0000
  0
ARC
  8
22
 10
26.4212
 20
27.6225
 30
0.0000
 40
0.1947
 50
89.9991
 51
180.0000
  0
LINE
  8
22
 10
26.4212
 20
27.8172
 30
0.0000
 11
26.6808
 21
27.8172
 31
0.0000
  0
LINE
  8
22
 10
25.6485
 20
27.0383
 30
0.0000
 11
25.6485
 21
28.0120
 31
0.0000
  0
ARC
  8
22
 10
25.4538
 20
28.0120
 30
0.0000
 40
0.1947
 50
0.0000
 51
90.0000
  0
LINE
  8
22
 10
25.4538
 20
28.2067
 30
0.0000
 11
25.3888
 21
28.2067
 31
0.0000
  0
LINE
  8
22
 10
25.7783
 20
27.8172
 30
0.0000
 11
25.3888
 21
27.8172
 31
0.0000
  0
LINE
  8
22
 10
25.1602
 20
27.8172
 30
0.0000
 11
24.7707
 21
27.8172
 31
0.0000
  0
LINE
  8
22
 10
25.0303
 20
28.2067
 30
0.0000
 11
25.0303
 21
27.2330
 31
0.0000
  0
ARC
  8
22
 10
24.8356
 20
27.2330
 30
0.0000
 40
0.1947
 50
270.0000
 51
0.0000
  0
LINE
  8
22
 10
24.8356
 20
27.0383
 30
0.0000
 11
24.7707
 21
27.0383
 31
0.0000
  0
LINE
  8
22
 10
23.8203
 20
27.0383
 30
0.0000
 11
24.1448
 21
27.0383
 31
0.0000
  0
ARC
  8
22
 10
24.1448
 20
27.2330
 30
0.0000
 40
0.1947
 50
270.0000
 51
0.0000
  0
LINE
  8
22
 10
24.3395
 20
27.2330
 30
0.0000
 11
24.3395
 21
27.5576
 31
0.0000
  0
ARC
  8
22
 10
24.0799
 20
27.5576
 30
0.0000
 40
0.2596
 50
0.0000
 51
180.0000
  0
LINE
  8
22
 10
23.8203
 20
27.5576
 30
0.0000
 11
23.8203
 21
27.4278
 31
0.0000
  0
LINE
  8
22
 10
23.8203
 20
27.4278
 30
0.0000
 11
24.3395
 21
27.4278
 31
0.0000
  0
LINE
  8
22
 10
23.3042
 20
27.0383
 30
0.0000
 11
23.3042
 21
27.8172
 31
0.0000
  0
LINE
  8
22
 10
23.3042
 20
27.8172
 30
0.0000
 11
22.9147
 21
27.8172
 31
0.0000
  0
LINE
  8
22
 10
22.9147
 20
27.8172
 30
0.0000
 11
22.9147
 21
27.6874
 31
0.0000
  0
LINE
  8
22
 10
22.0360
 20
27.8172
 30
0.0000
 11
21.6465
 21
27.8172
 31
0.0000
  0
LINE
  8
22
 10
21.9061
 20
28.2067
 30
0.0000
 11
21.9061
 21
27.2330
 31
0.0000
  0
ARC
  8
22
 10
21.7114
 20
27.2330
 30
0.0000
 40
0.1947
 50
270.0000
 51
0.0000
  0
LINE
  8
22
 10
21.7114
 20
27.0383
 30
0.0000
 11
21.6465
 21
27.0383
 31
0.0000
  0
LINE
  8
22
 10
21.1772
 20
27.0383
 30
0.0000
 11
21.1772
 21
28.2067
 31
0.0000
  0
LINE
  8
22
 10
21.1772
 20
27.8172
 30
0.0000
 11
20.8527
 21
27.8172
 31
0.0000
  0
ARC
  8
22
 10
20.8527
 20
27.6225
 30
0.0000
 40
0.1947
 50
90.0000
 51
179.9982
  0
LINE
  8
22
 10
20.6580
 20
27.6225
 30
0.0000
 11
20.6580
 21
27.0383
 31
0.0000
  0
LINE
  8
22
 10
19.6293
 20
27.0383
 30
0.0000
 11
19.9538
 21
27.0383
 31
0.0000
  0
ARC
  8
22
 10
19.9538
 20
27.2330
 30
0.0000
 40
0.1947
 50
270.0000
 51
0.0000
  0
LINE
  8
22
 10
20.1485
 20
27.2330
 30
0.0000
 11
20.1485
 21
27.5576
 31
0.0000
  0
ARC
  8
22
 10
19.8889
 20
27.5576
 30
0.0000
 40
0.2596
 50
0.0000
 51
180.0000
  0
LINE
  8
22
 10
19.6293
 20
27.5576
 30
0.0000
 11
19.6293
 21
27.4278
 31
0.0000
  0
LINE
  8
22
 10
19.6293
 20
27.4278
 30
0.0000
 11
20.1485
 21
27.4278
 31
0.0000
  0
LINE
  8
22
 10
18.4877
 20
27.0383
 30
0.0000
 11
18.4877
 21
27.8172
 31
0.0000
  0
LINE
  8
22
 10
18.4877
 20
27.8172
 30
0.0000
 11
17.9035
 21
27.8172
 31
0.0000
  0
ARC
  8
22
 10
17.9035
 20
27.6225
 30
0.0000
 40
0.1947
 50
90.0000
 51
180.0000
  0
LINE
  8
22
 10
17.7087
 20
27.6225
 30
0.0000
 11
17.7087
 21
27.0383
 31
0.0000
  0
LINE
  8
22
 10
18.0982
 20
27.0383
 30
0.0000
 11
18.0982
 21
27.8172
 31
0.0000
  0
LINE
  8
22
 10
17.1767
 20
27.2979
 30
0.0000
 11
17.1767
 21
27.5576
 31
0.0000
  0
ARC
  8
22
 10
16.9171
 20
27.5576
 30
0.0000
 40
0.2596
 50
0.0000
 51
180.0000
  0
LINE
  8
22
 10
16.6575
 20
27.5576
 30
0.0000
 11
16.6575
 21
27.2979
 31
0.0000
  0
ARC
  8
22
 10
16.9171
 20
27.2979
 30
0.0000
 40
0.2596
 50
180.0000
 51
0.0000
  0
LINE
  8
22
 10
15.6727
 20
28.2067
 30
0.0000
 11
15.6727
 21
27.0383
 31
0.0000
  0
LINE
  8
22
 10
15.6727
 20
27.0383
 30
0.0000
 11
15.9973
 21
27.0383
 31
0.0000
  0
ARC
  8
22
 10
15.9973
 20
27.2330
 30
0.0000
 40
0.1947
 50
270.0000
 51
0.0000
  0
LINE
  8
22
 10
16.1920
 20
27.2330
 30
0.0000
 11
16.1920
 21
27.6225
 31
0.0000
  0
ARC
  8
22
 10
15.9973
 20
27.6225
 30
0.0000
 40
0.1947
 50
0.0000
 51
90.0000
  0
LINE
  8
22
 10
15.9973
 20
27.8172
 30
0.0000
 11
15.6727
 21
27.8172
 31
0.0000
  0
LINE
  8
22
 10
15.1645
 20
27.4278
 30
0.0000
 11
15.1645
 21
28.2067
 31
0.0000
  0
LINE
  8
22
 10
15.1970
 20
27.0383
 30
0.0000
 11
15.1970
 21
27.1032
 31
0.0000
  0
LINE
  8
22
 10
15.1970
 20
27.1032
 30
0.0000
 11
15.1321
 21
27.1032
 31
0.0000
  0
LINE
  8
22
 10
15.1321
 20
27.1032
 30
0.0000
 11
15.1321
 21
27.0383
 31
0.0000
  0
LINE
  8
22
 10
15.1321
 20
27.0383
 30
0.0000
 11
15.1970
 21
27.0383
 31
0.0000
  0
LINE
  8
22
 10
20.6342
 20
24.9746
 30
0.0000
 11
20.8939
 21
24.9746
 31
0.0000
  0
ARC
  8
22
 10
20.8939
 20
25.2342
 30
0.0000
 40
0.2596
 50
270.0000
 51
0.0000
  0
LINE
  8
22
 10
21.1535
 20
25.2342
 30
0.0000
 11
21.1535
 21
25.8833
 31
0.0000
  0
ARC
  8
22
 10
20.8939
 20
25.8833
 30
0.0000
 40
0.2596
 50
0.0000
 51
90.0000
  0
LINE
  8
22
 10
20.8939
 20
26.1430
 30
0.0000
 11
20.6342
 21
26.1430
 31
0.0000
  0
LINE
  8
22
 10
20.2090
 20
25.2342
 30
0.0000
 11
20.2090
 21
25.4938
 31
0.0000
  0
ARC
  8
22
 10
19.9493
 20
25.4938
 30
0.0000
 40
0.2596
 50
0.0000
 51
180.0000
  0
LINE
  8
22
 10
19.6897
 20
25.4938
 30
0.0000
 11
19.6897
 21
25.2342
 31
0.0000
  0
ARC
  8
22
 10
19.9493
 20
25.2342
 30
0.0000
 40
0.2596
 50
180.0000
 51
0.0000
  0
LINE
  8
22
 10
19.2565
 20
25.7535
 30
0.0000
 11
18.9968
 21
24.9746
 31
0.0000
  0
LINE
  8
22
 10
18.9968
 20
24.9746
 30
0.0000
 11
18.7372
 21
25.7535
 31
0.0000
  0
LINE
  8
22
 10
17.7847
 20
24.9746
 30
0.0000
 11
18.1092
 21
24.9746
 31
0.0000
  0
ARC
  8
22
 10
18.1092
 20
25.1693
 30
0.0000
 40
0.1947
 50
270.0000
 51
0.0000
  0
LINE
  8
22
 10
18.3040
 20
25.1693
 30
0.0000
 11
18.3040
 21
25.4938
 31
0.0000
  0
ARC
  8
22
 10
18.0443
 20
25.4938
 30
0.0000
 40
0.2596
 50
0.0000
 51
180.0000
  0
LINE
  8
22
 10
17.7847
 20
25.4938
 30
0.0000
 11
17.7847
 21
25.3640
 31
0.0000
  0
LINE
  8
22
 10
17.7847
 20
25.3640
 30
0.0000
 11
18.3040
 21
25.3640
 31
0.0000
  0
LINE
  8
22
 10
17.2686
 20
24.9746
 30
0.0000
 11
17.2686
 21
25.7535
 31
0.0000
  0
LINE
  8
22
 10
17.2686
 20
25.7535
 30
0.0000
 11
16.8792
 21
25.7535
 31
0.0000
  0
LINE
  8
22
 10
16.8792
 20
25.7535
 30
0.0000
 11
16.8792
 21
25.6237
 31
0.0000
  0
LINE
  8
22
 10
15.8597
 20
26.1430
 30
0.0000
 11
15.8597
 21
24.9746
 31
0.0000
  0
LINE
  8
22
 10
15.8597
 20
24.9746
 30
0.0000
 11
15.5351
 21
24.9746
 31
0.0000
  0
ARC
  8
22
 10
15.5351
 20
25.1693
 30
0.0000
 40
0.1947
 50
180.0018
 51
270.0000
  0
LINE
  8
22
 10
15.3404
 20
25.1693
 30
0.0000
 11
15.3404
 21
25.5587
 31
0.0000
  0
ARC
  8
22
 10
15.5351
 20
25.5587
 30
0.0000
 40
0.1947
 50
89.9991
 51
180.0000
  0
LINE
  8
22
 10
15.5351
 20
25.7535
 30
0.0000
 11
15.8597
 21
25.7535
 31
0.0000
  0
LINE
  8
22
 10
14.8750
 20
25.2342
 30
0.0000
 11
14.8750
 21
25.4938
 31
0.0000
  0
ARC
  8
22
 10
14.6153
 20
25.4938
 30
0.0000
 40
0.2596
 50
0.0000
 51
180.0000
  0
LINE
  8
22
 10
14.3557
 20
25.4938
 30
0.0000
 11
14.3557
 21
25.2342
 31
0.0000
  0
ARC
  8
22
 10
14.6153
 20
25.2342
 30
0.0000
 40
0.2596
 50
180.0000
 51
0.0000
  0
LINE
  8
22
 10
13.9811
 20
25.7535
 30
0.0000
 11
13.5916
 21
25.7535
 31
0.0000
  0
LINE
  8
22
 10
13.8513
 20
26.1430
 30
0.0000
 11
13.8513
 21
25.1693
 31
0.0000
  0
ARC
  8
22
 10
13.6566
 20
25.1693
 30
0.0000
 40
0.1947
 50
270.0000
 51
0.0000
  0
LINE
  8
22
 10
13.6566
 20
24.9746
 30
0.0000
 11
13.5916
 21
24.9746
 31
0.0000
  0
LINE
  8
22
 10
13.2572
 20
25.7535
 30
0.0000
 11
12.8677
 21
25.7535
 31
0.0000
  0
LINE
  8
22
 10
13.1274
 20
26.1430
 30
0.0000
 11
13.1274
 21
25.1693
 31
0.0000
  0
ARC
  8
22
 10
12.9327
 20
25.1693
 30
0.0000
 40
0.1947
 50
270.0000
 51
0.0000
  0
LINE
  8
22
 10
12.9327
 20
24.9746
 30
0.0000
 11
12.8677
 21
24.9746
 31
0.0000
  0
LINE
  8
22
 10
12.4366
 20
25.2342
 30
0.0000
 11
12.4366
 21
25.4938
 31
0.0000
  0
ARC
  8
22
 10
12.1769
 20
25.4938
 30
0.0000
 40
0.2596
 50
0.0000
 51
180.0000
  0
LINE
  8
22
 10
11.9173
 20
25.4938
 30
0.0000
 11
11.9173
 21
25.2342
 31
0.0000
  0
ARC
  8
22
 10
12.1769
 20
25.2342
 30
0.0000
 40
0.2596
 50
180.0000
 51
0.0000
  0
LINE
  8
22
 10
11.3853
 20
24.9746
 30
0.0000
 11
11.3853
 21
25.7535
 31
0.0000
  0
LINE
  8
22
 10
11.3853
 20
25.7535
 30
0.0000
 11
10.8011
 21
25.7535
 31
0.0000
  0
ARC
  8
22
 10
10.8011
 20
25.5587
 30
0.0000
 40
0.1947
 50
90.0000
 51
180.0000
  0
LINE
  8
22
 10
10.6064
 20
25.5587
 30
0.0000
 11
10.6064
 21
24.9746
 31
0.0000
  0
LINE
  8
22
 10
10.9958
 20
24.9746
 30
0.0000
 11
10.9958
 21
25.7535
 31
0.0000
  0
LINE
  8
22
 10
9.0429
 20
25.2991
 30
0.0000
 11
9.3674
 21
25.4289
 31
0.0000
  0
ARC
  8
22
 10
9.3049
 20
25.5852
 30
0.0000
 40
0.1683
 50
291.8011
 51
90.8182
  0
ARC
  8
22
 10
9.3130
 20
25.0164
 30
0.0000
 40
0.7371
 50
90.8181
 51
114.2388
  0
ARC
  8
22
 10
9.1054
 20
25.1428
 30
0.0000
 40
0.1683
 50
111.8011
 51
270.8182
  0
ARC
  8
22
 10
9.0921
 20
26.0753
 30
0.0000
 40
1.1008
 50
270.8181
 51
289.7910
  0
LINE
  8
22
 10
8.4812
 20
24.9746
 30
0.0000
 11
8.4812
 21
25.7535
 31
0.0000
  0
LINE
  8
22
 10
8.5137
 20
26.0780
 30
0.0000
 11
8.5137
 21
26.1430
 31
0.0000
  0
LINE
  8
22
 10
8.5137
 20
26.1430
 30
0.0000
 11
8.4488
 21
26.1430
 31
0.0000
  0
LINE
  8
22
 10
8.4488
 20
26.1430
 30
0.0000
 11
8.4488
 21
26.0780
 31
0.0000
  0
LINE
  8
22
 10
8.4488
 20
26.0780
 30
0.0000
 11
8.5137
 21
26.0780
 31
0.0000
  0
LINE
  8
22
 10
7.5036
 20
26.1430
 30
0.0000
 11
7.5036
 21
24.9746
 31
0.0000
  0
LINE
  8
22
 10
7.5036
 20
24.9746
 30
0.0000
 11
7.8281
 21
24.9746
 31
0.0000
  0
ARC
  8
22
 10
7.8281
 20
25.1693
 30
0.0000
 40
0.1947
 50
270.0000
 51
0.0000
  0
LINE
  8
22
 10
8.0229
 20
25.1693
 30
0.0000
 11
8.0229
 21
25.5587
 31
0.0000
  0
ARC
  8
22
 10
7.8281
 20
25.5587
 30
0.0000
 40
0.1947
 50
0.0000
 51
90.0000
  0
LINE
  8
22
 10
7.8281
 20
25.7535
 30
0.0000
 11
7.5036
 21
25.7535
 31
0.0000
  0
LINE
  8
22
 10
6.4690
 20
24.9746
 30
0.0000
 11
6.7936
 21
24.9746
 31
0.0000
  0
ARC
  8
22
 10
6.7936
 20
25.1693
 30
0.0000
 40
0.1947
 50
270.0000
 51
0.0000
  0
LINE
  8
22
 10
6.9883
 20
25.1693
 30
0.0000
 11
6.9883
 21
25.4938
 31
0.0000
  0
ARC
  8
22
 10
6.7286
 20
25.4938
 30
0.0000
 40
0.2596
 50
0.0000
 51
180.0000
  0
LINE
  8
22
 10
6.4690
 20
25.4938
 30
0.0000
 11
6.4690
 21
25.3640
 31
0.0000
  0
LINE
  8
22
 10
6.4690
 20
25.3640
 30
0.0000
 11
6.9883
 21
25.3640
 31
0.0000
  0
LINE
  8
22
 10
22.5365
 20
23.8485
 30
0.0000
 11
22.1471
 21
23.8485
 31
0.0000
  0
LINE
  8
22
 10
22.4067
 20
24.2380
 30
0.0000
 11
22.4067
 21
23.2643
 31
0.0000
  0
ARC
  8
22
 10
22.2120
 20
23.2643
 30
0.0000
 40
0.1947
 50
270.0000
 51
0.0000
  0
LINE
  8
22
 10
22.2120
 20
23.0695
 30
0.0000
 11
22.1471
 21
23.0695
 31
0.0000
  0
LINE
  8
22
 10
21.7159
 20
23.3292
 30
0.0000
 11
21.7159
 21
23.5888
 31
0.0000
  0
ARC
  8
22
 10
21.4563
 20
23.5888
 30
0.0000
 40
0.2596
 50
0.0000
 51
180.0000
  0
LINE
  8
22
 10
21.1966
 20
23.5888
 30
0.0000
 11
21.1966
 21
23.3292
 31
0.0000
  0
ARC
  8
22
 10
21.4563
 20
23.3292
 30
0.0000
 40
0.2596
 50
180.0000
 51
0.0000
  0
LINE
  8
22
 10
20.0717
 20
22.6801
 30
0.0000
 11
20.0717
 21
23.8485
 31
0.0000
  0
LINE
  8
22
 10
20.0717
 20
23.8485
 30
0.0000
 11
19.7472
 21
23.8485
 31
0.0000
  0
ARC
  8
22
 10
19.7472
 20
23.6537
 30
0.0000
 40
0.1947
 50
90.0000
 51
179.9982
  0
LINE
  8
22
 10
19.5524
 20
23.6538
 30
0.0000
 11
19.5524
 21
23.2643
 31
0.0000
  0
ARC
  8
22
 10
19.7472
 20
23.2643
 30
0.0000
 40
0.1947
 50
180.0000
 51
270.0009
  0
LINE
  8
22
 10
19.7472
 20
23.0695
 30
0.0000
 11
20.0717
 21
23.0695
 31
0.0000
  0
LINE
  8
22
 10
19.0423
 20
23.0695
 30
0.0000
 11
19.0423
 21
23.8485
 31
0.0000
  0
LINE
  8
22
 10
19.0423
 20
23.8485
 30
0.0000
 11
18.6528
 21
23.8485
 31
0.0000
  0
LINE
  8
22
 10
18.6528
 20
23.8485
 30
0.0000
 11
18.6528
 21
23.7187
 31
0.0000
  0
LINE
  8
22
 10
17.7676
 20
23.0695
 30
0.0000
 11
18.0922
 21
23.0695
 31
0.0000
  0
ARC
  8
22
 10
18.0922
 20
23.2643
 30
0.0000
 40
0.1947
 50
270.0000
 51
0.0000
  0
LINE
  8
22
 10
18.2869
 20
23.2643
 30
0.0000
 11
18.2869
 21
23.5888
 31
0.0000
  0
ARC
  8
22
 10
18.0273
 20
23.5888
 30
0.0000
 40
0.2596
 50
0.0000
 51
180.0000
  0
LINE
  8
22
 10
17.7676
 20
23.5888
 30
0.0000
 11
17.7676
 21
23.4590
 31
0.0000
  0
LINE
  8
22
 10
17.7676
 20
23.4590
 30
0.0000
 11
18.2869
 21
23.4590
 31
0.0000
  0
LINE
  8
22
 10
17.3344
 20
23.8485
 30
0.0000
 11
17.0748
 21
23.0695
 31
0.0000
  0
LINE
  8
22
 10
17.0748
 20
23.0695
 30
0.0000
 11
16.8151
 21
23.8485
 31
0.0000
  0
LINE
  8
22
 10
15.8626
 20
23.0695
 30
0.0000
 11
16.1872
 21
23.0695
 31
0.0000
  0
ARC
  8
22
 10
16.1872
 20
23.2643
 30
0.0000
 40
0.1947
 50
270.0000
 51
0.0000
  0
LINE
  8
22
 10
16.3819
 20
23.2643
 30
0.0000
 11
16.3819
 21
23.5888
 31
0.0000
  0
ARC
  8
22
 10
16.1223
 20
23.5888
 30
0.0000
 40
0.2596
 50
0.0000
 51
180.0000
  0
LINE
  8
22
 10
15.8626
 20
23.5888
 30
0.0000
 11
15.8626
 21
23.4590
 31
0.0000
  0
LINE
  8
22
 10
15.8626
 20
23.4590
 30
0.0000
 11
16.3819
 21
23.4590
 31
0.0000
  0
LINE
  8
22
 10
15.3532
 20
23.0695
 30
0.0000
 11
15.3532
 21
23.8485
 31
0.0000
  0
LINE
  8
22
 10
15.3532
 20
23.8485
 30
0.0000
 11
15.0287
 21
23.8485
 31
0.0000
  0
ARC
  8
22
 10
15.0287
 20
23.6537
 30
0.0000
 40
0.1947
 50
90.0000
 51
179.9982
  0
LINE
  8
22
 10
14.8339
 20
23.6538
 30
0.0000
 11
14.8339
 21
23.0695
 31
0.0000
  0
LINE
  8
22
 10
14.4212
 20
23.8485
 30
0.0000
 11
14.0318
 21
23.8485
 31
0.0000
  0
LINE
  8
22
 10
14.2914
 20
24.2380
 30
0.0000
 11
14.2914
 21
23.2643
 31
0.0000
  0
ARC
  8
22
 10
14.0967
 20
23.2643
 30
0.0000
 40
0.1947
 50
270.0000
 51
0.0000
  0
LINE
  8
22
 10
14.0967
 20
23.0695
 30
0.0000
 11
14.0318
 21
23.0695
 31
0.0000
  0
LINE
  8
22
 10
12.5691
 20
23.3941
 30
0.0000
 11
12.8936
 21
23.5239
 31
0.0000
  0
ARC
  8
22
 10
12.8311
 20
23.6802
 30
0.0000
 40
0.1683
 50
291.8011
 51
90.8182
  0
ARC
  8
22
 10
12.8393
 20
23.1114
 30
0.0000
 40
0.7371
 50
90.8181
 51
114.2388
  0
ARC
  8
22
 10
12.6316
 20
23.2378
 30
0.0000
 40
0.1683
 50
111.8011
 51
270.8182
  0
ARC
  8
22
 10
12.6183
 20
24.1703
 30
0.0000
 40
1.1008
 50
270.8181
 51
289.7910
  0
LINE
  8
22
 10
11.5447
 20
23.0695
 30
0.0000
 11
11.8043
 21
23.0695
 31
0.0000
  0
ARC
  8
22
 10
11.8043
 20
23.2643
 30
0.0000
 40
0.1947
 50
270.0000
 51
0.0000
  0
LINE
  8
22
 10
11.9991
 20
23.2643
 30
0.0000
 11
11.9991
 21
23.6538
 31
0.0000
  0
ARC
  8
22
 10
11.8043
 20
23.6538
 30
0.0000
 40
0.1947
 50
0.0000
 51
90.0000
  0
LINE
  8
22
 10
11.8043
 20
23.8485
 30
0.0000
 11
11.5447
 21
23.8485
 31
0.0000
  0
LINE
  8
22
 10
11.0794
 20
23.0695
 30
0.0000
 11
11.0794
 21
23.8485
 31
0.0000
  0
LINE
  8
22
 10
11.0794
 20
23.8485
 30
0.0000
 11
10.6899
 21
23.8485
 31
0.0000
  0
LINE
  8
22
 10
10.6899
 20
23.8485
 30
0.0000
 11
10.6899
 21
23.7187
 31
0.0000
  0
LINE
  8
22
 10
9.8106
 20
23.5239
 30
0.0000
 11
10.1027
 21
23.5239
 31
0.0000
  0
ARC
  8
22
 10
10.1027
 20
23.2967
 30
0.0000
 40
0.2272
 50
270.0000
 51
90.0000
  0
LINE
  8
22
 10
10.1027
 20
23.0695
 30
0.0000
 11
9.8106
 21
23.0695
 31
0.0000
  0
LINE
  8
22
 10
9.8106
 20
23.0695
 30
0.0000
 11
9.8106
 21
23.6538
 31
0.0000
  0
ARC
  8
22
 10
10.0053
 20
23.6538
 30
0.0000
 40
0.1947
 50
89.9991
 51
180.0000
  0
LINE
  8
22
 10
10.0053
 20
23.8485
 30
0.0000
 11
10.2650
 21
23.8485
 31
0.0000
  0
LINE
  8
22
 10
9.3920
 20
23.8485
 30
0.0000
 11
9.0026
 21
23.8485
 31
0.0000
  0
LINE
  8
22
 10
9.2622
 20
24.2380
 30
0.0000
 11
9.2622
 21
23.2643
 31
0.0000
  0
ARC
  8
22
 10
9.0675
 20
23.2643
 30
0.0000
 40
0.1947
 50
270.0000
 51
0.0000
  0
LINE
  8
22
 10
9.0675
 20
23.0695
 30
0.0000
 11
9.0026
 21
23.0695
 31
0.0000
  0
LINE
  8
22
 10
8.1157
 20
23.0695
 30
0.0000
 11
8.3754
 21
23.0695
 31
0.0000
  0
ARC
  8
22
 10
8.3754
 20
23.2643
 30
0.0000
 40
0.1947
 50
270.0000
 51
0.0000
  0
LINE
  8
22
 10
8.5701
 20
23.2643
 30
0.0000
 11
8.5701
 21
23.6538
 31
0.0000
  0
ARC
  8
22
 10
8.3754
 20
23.6538
 30
0.0000
 40
0.1947
 50
0.0000
 51
90.0000
  0
LINE
  8
22
 10
8.3754
 20
23.8485
 30
0.0000
 11
8.1157
 21
23.8485
 31
0.0000
  0
LINE
  8
22
 10
7.6570
 20
23.0695
 30
0.0000
 11
7.6570
 21
24.2380
 31
0.0000
  0
LINE
  8
22
 10
7.6570
 20
23.8485
 30
0.0000
 11
7.3325
 21
23.8485
 31
0.0000
  0
ARC
  8
22
 10
7.3325
 20
23.6537
 30
0.0000
 40
0.1947
 50
90.0000
 51
179.9982
  0
LINE
  8
22
 10
7.1377
 20
23.6538
 30
0.0000
 11
7.1377
 21
23.0695
 31
0.0000
  0
LINE
  8
22
 10
6.1090
 20
23.0695
 30
0.0000
 11
6.4336
 21
23.0695
 31
0.0000
  0
ARC
  8
22
 10
6.4336
 20
23.2643
 30
0.0000
 40
0.1947
 50
270.0000
 51
0.0000
  0
LINE
  8
22
 10
6.6283
 20
23.2643
 30
0.0000
 11
6.6283
 21
23.5888
 31
0.0000
  0
ARC
  8
22
 10
6.3687
 20
23.5888
 30
0.0000
 40
0.2596
 50
0.0000
 51
180.0000
  0
LINE
  8
22
 10
6.1090
 20
23.5888
 30
0.0000
 11
6.1090
 21
23.4590
 31
0.0000
  0
LINE
  8
22
 10
6.1090
 20
23.4590
 30
0.0000
 11
6.6283
 21
23.4590
 31
0.0000
  0
LINE
  8
22
 10
5.2158
 20
23.3941
 30
0.0000
 11
5.5404
 21
23.5239
 31
0.0000
  0
ARC
  8
22
 10
5.4778
 20
23.6802
 30
0.0000
 40
0.1683
 50
291.8011
 51
90.8182
  0
ARC
  8
22
 10
5.4860
 20
23.1114
 30
0.0000
 40
0.7371
 50
90.8181
 51
114.2388
  0
ARC
  8
22
 10
5.2783
 20
23.2378
 30
0.0000
 40
0.1683
 50
111.8011
 51
270.8182
  0
ARC
  8
22
 10
5.2650
 20
24.1703
 30
0.0000
 40
1.1008
 50
270.8181
 51
289.7910
  0
ARC
  8
22
 10
13.0000
 20
14.2000
 30
0.0000
 40
1.1045
 50
185.1944
 51
354.8056
  0
LINE
  8
22
 10
18.7611
 20
8.2611
 30
0.0000
 11
18.5000
 21
8.4699
 31
0.0000
  0
LINE
  8
22
 10
18.5000
 20
8.4699
 30
0.0000
 11
18.5000
 21
7.5301
 31
0.0000
  0
LINE
  8
22
 10
18.7611
 20
7.5301
 30
0.0000
 11
18.2389
 21
7.5301
 31
0.0000
  0
ARC
  8
22
 10
12.9739
 20
2.8350
 30
0.0000
 40
0.2350
 50
90.0000
 51
180.0000
  0
ARC
  8
22
 10
12.9739
 20
2.7681
 30
0.0000
 40
0.3018
 50
17.9442
 51
90.0001
  0
ARC
  8
22
 10
12.9913
 20
2.8350
 30
0.0000
 40
0.2524
 50
180.0002
 51
226.3960
  0
LINE
  8
22
 10
12.8173
 20
2.6522
 30
0.0000
 11
13.2611
 21
2.1301
 31
0.0000
  0
LINE
  8
22
 10
13.2611
 20
2.1301
 30
0.0000
 11
12.7389
 21
2.1301
 31
0.0000
  0
LINE
  8
22
 10
7.9611
 20
7.5301
 30
0.0000
 11
7.7000
 21
7.5301
 31
0.0000
  0
ARC
  8
22
 10
7.7000
 20
7.7912
 30
0.0000
 40
0.2611
 50
90.0000
 51
270.0000
  0
LINE
  8
22
 10
7.9611
 20
8.4699
 30
0.0000
 11
7.6478
 21
8.4699
 31
0.0000
  0
ARC
  8
22
 10
7.6478
 20
8.2611
 30
0.0000
 40
0.2088
 50
90.0000
 51
270.0000
  0
LINE
  8
22
 10
7.6478
 20
8.0522
 30
0.0000
 11
7.8566
 21
8.0522
 31
0.0000
  0
LINE
  8
22
 10
16.7522
 20
4.5699
 30
0.0000
 11
16.9611
 21
3.8389
 31
0.0000
  0
LINE
  8
22
 10
16.9611
 20
3.8389
 30
0.0000
 11
16.4389
 21
3.8389
 31
0.0000
  0
LINE
  8
22
 10
16.5956
 20
4.0478
 30
0.0000
 11
16.5956
 21
3.6301
 31
0.0000
  0
LINE
  8
22
 10
9.4611
 20
3.6301
 30
0.0000
 11
9.1478
 21
3.6301
 31
0.0000
  0
ARC
  8
22
 10
9.1478
 20
3.8389
 30
0.0000
 40
0.2088
 50
180.0000
 51
270.0000
  0
LINE
  8
22
 10
8.9389
 20
3.8389
 30
0.0000
 11
8.9389
 21
3.9434
 31
0.0000
  0
ARC
  8
22
 10
9.1478
 20
3.9434
 30
0.0000
 40
0.2088
 50
90.0000
 51
180.0000
  0
LINE
  8
22
 10
9.1478
 20
4.1522
 30
0.0000
 11
9.4611
 21
4.1522
 31
0.0000
  0
LINE
  8
22
 10
9.4611
 20
4.1522
 30
0.0000
 11
9.4611
 21
4.5699
 31
0.0000
  0
LINE
  8
22
 10
9.4611
 20
4.5699
 30
0.0000
 11
8.9389
 21
4.5699
 31
0.0000
  0
CIRCLE
  8
22
 10
13.0000
 20
8.0000
 30
0.0000
 40
6.8000
  0
CIRCLE
  8
22
 10
13.0000
 20
8.0000
 30
0.0000
 40
6.2000
  0
CIRCLE
  8
52
 10
13.0000
 20
4.5000
 30
0.0000
 40
0.8000
  0
CIRCLE
  8
52
 10
16.5000
 20
8.0000
 30
0.0000
 40
0.8000
  0
CIRCLE
  8
52
 10
9.5000
 20
8.0000
 30
0.0000
 40
0.8000
  0
CIRCLE
  8
52
 10
15.4700
 20
5.5300
 30
0.0000
 40
0.8000
  0
CIRCLE
  8
52
 10
10.5300
 20
5.5300
 30
0.0000
 40
0.8000
  0
LINE
  8
22
 10
53.0924
 20
45.5189
 30
0.0000
 11
53.0924
 21
46.8651
 31
0.0000
  0
LINE
  8
22
 10
53.0924
 20
46.8651
 30
0.0000
 11
52.7184
 21
46.8651
 31
0.0000
  0
ARC
  8
22
 10
52.7184
 20
46.6407
 30
0.0000
 40
0.2244
 50
90.0000
 51
179.9992
  0
LINE
  8
22
 10
52.4940
 20
46.6408
 30
0.0000
 11
52.4940
 21
46.1920
 31
0.0000
  0
ARC
  8
22
 10
52.7184
 20
46.1920
 30
0.0000
 40
0.2244
 50
180.0000
 51
270.0000
  0
LINE
  8
22
 10
52.7184
 20
45.9676
 30
0.0000
 11
53.0924
 21
45.9676
 31
0.0000
  0
LINE
  8
22
 10
51.9027
 20
47.3139
 30
0.0000
 11
51.9027
 21
46.1920
 31
0.0000
  0
ARC
  8
22
 10
51.6784
 20
46.1920
 30
0.0000
 40
0.2244
 50
270.0008
 51
0.0000
  0
LINE
  8
22
 10
50.5948
 20
46.4912
 30
0.0000
 11
50.9314
 21
46.4912
 31
0.0000
  0
ARC
  8
22
 10
50.9314
 20
46.2294
 30
0.0000
 40
0.2618
 50
270.0000
 51
90.0000
  0
LINE
  8
22
 10
50.9314
 20
45.9676
 30
0.0000
 11
50.5948
 21
45.9676
 31
0.0000
  0
LINE
  8
22
 10
50.5948
 20
45.9676
 30
0.0000
 11
50.5948
 21
46.6408
 31
0.0000
  0
ARC
  8
22
 10
50.8192
 20
46.6408
 30
0.0000
 40
0.2244
 50
89.9992
 51
180.0000
  0
LINE
  8
22
 10
50.8192
 20
46.8651
 30
0.0000
 11
51.1184
 21
46.8651
 31
0.0000
  0
LINE
  8
22
 10
49.4271
 20
45.9676
 30
0.0000
 11
49.7263
 21
45.9676
 31
0.0000
  0
ARC
  8
22
 10
49.7263
 20
46.1920
 30
0.0000
 40
0.2244
 50
270.0000
 51
0.0008
  0
LINE
  8
22
 10
49.9506
 20
46.1920
 30
0.0000
 11
49.9506
 21
46.6408
 31
0.0000
  0
ARC
  8
22
 10
49.7263
 20
46.6408
 30
0.0000
 40
0.2244
 50
0.0000
 51
90.0000
  0
LINE
  8
22
 10
49.7263
 20
46.8651
 30
0.0000
 11
49.4271
 21
46.8651
 31
0.0000
  0
LINE
  8
22
 10
48.3048
 20
45.9676
 30
0.0000
 11
48.6788
 21
45.9676
 31
0.0000
  0
ARC
  8
22
 10
48.6788
 20
46.1920
 30
0.0000
 40
0.2244
 50
270.0000
 51
0.0008
  0
LINE
  8
22
 10
48.9031
 20
46.1920
 30
0.0000
 11
48.9031
 21
46.5660
 31
0.0000
  0
ARC
  8
22
 10
48.6040
 20
46.5660
 30
0.0000
 40
0.2992
 50
0.0000
 51
180.0000
  0
LINE
  8
22
 10
48.3048
 20
46.5660
 30
0.0000
 11
48.3048
 21
46.4164
 31
0.0000
  0
LINE
  8
22
 10
48.3048
 20
46.4164
 30
0.0000
 11
48.9031
 21
46.4164
 31
0.0000
  0
LINE
  8
22
 10
47.6382
 20
45.9676
 30
0.0000
 11
47.6382
 21
46.8651
 31
0.0000
  0
LINE
  8
22
 10
47.6382
 20
46.8651
 30
0.0000
 11
46.9651
 21
46.8651
 31
0.0000
  0
ARC
  8
22
 10
46.9651
 20
46.6407
 30
0.0000
 40
0.2244
 50
90.0000
 51
179.9992
  0
LINE
  8
22
 10
46.7408
 20
46.6408
 30
0.0000
 11
46.7408
 21
45.9676
 31
0.0000
  0
LINE
  8
22
 10
47.1895
 20
45.9676
 30
0.0000
 11
47.1895
 21
46.8651
 31
0.0000
  0
LINE
  8
22
 10
45.4759
 20
45.9676
 30
0.0000
 11
45.8498
 21
45.9676
 31
0.0000
  0
ARC
  8
22
 10
45.8498
 20
46.1920
 30
0.0000
 40
0.2244
 50
270.0000
 51
0.0008
  0
LINE
  8
22
 10
46.0742
 20
46.1920
 30
0.0000
 11
46.0742
 21
46.5660
 31
0.0000
  0
ARC
  8
22
 10
45.7750
 20
46.5660
 30
0.0000
 40
0.2992
 50
0.0000
 51
180.0000
  0
LINE
  8
22
 10
45.4759
 20
46.5660
 30
0.0000
 11
45.4759
 21
46.4164
 31
0.0000
  0
LINE
  8
22
 10
45.4759
 20
46.4164
 30
0.0000
 11
46.0742
 21
46.4164
 31
0.0000
  0
LINE
  8
22
 10
44.8422
 20
45.9676
 30
0.0000
 11
44.8422
 21
46.8651
 31
0.0000
  0
LINE
  8
22
 10
44.8422
 20
46.8651
 30
0.0000
 11
44.4683
 21
46.8651
 31
0.0000
  0
ARC
  8
22
 10
44.4683
 20
46.6407
 30
0.0000
 40
0.2244
 50
90.0000
 51
179.9992
  0
LINE
  8
22
 10
44.2439
 20
46.6408
 30
0.0000
 11
44.2439
 21
45.9676
 31
0.0000
  0
LINE
  8
22
 10
43.7315
 20
46.8651
 30
0.0000
 11
43.2827
 21
46.8651
 31
0.0000
  0
LINE
  8
22
 10
43.5819
 20
47.3139
 30
0.0000
 11
43.5819
 21
46.1920
 31
0.0000
  0
ARC
  8
22
 10
43.3575
 20
46.1920
 30
0.0000
 40
0.2244
 50
269.9992
 51
360.0000
  0
LINE
  8
22
 10
43.3575
 20
45.9676
 30
0.0000
 11
43.2827
 21
45.9676
 31
0.0000
  0
LINE
  8
22
 10
41.5271
 20
46.3416
 30
0.0000
 11
41.9011
 21
46.4912
 31
0.0000
  0
ARC
  8
22
 10
41.8291
 20
46.6712
 30
0.0000
 40
0.1939
 50
291.8014
 51
90.8190
  0
ARC
  8
22
 10
41.8384
 20
46.0159
 30
0.0000
 40
0.8493
 50
90.8190
 51
114.2391
  0
ARC
  8
22
 10
41.5991
 20
46.1615
 30
0.0000
 40
0.1939
 50
111.8014
 51
270.8190
  0
ARC
  8
22
 10
41.5838
 20
47.2360
 30
0.0000
 40
1.2684
 50
270.8190
 51
289.7904
  0
LINE
  8
22
 10
40.8269
 20
46.2668
 30
0.0000
 11
40.8269
 21
46.5660
 31
0.0000
  0
ARC
  8
22
 10
40.5278
 20
46.5660
 30
0.0000
 40
0.2992
 50
0.0000
 51
180.0000
  0
LINE
  8
22
 10
40.2286
 20
46.5660
 30
0.0000
 11
40.2286
 21
46.2668
 31
0.0000
  0
ARC
  8
22
 10
40.5278
 20
46.2668
 30
0.0000
 40
0.2992
 50
180.0000
 51
0.0000
  0
LINE
  8
22
 10
39.6287
 20
47.3139
 30
0.0000
 11
39.6287
 21
46.1920
 31
0.0000
  0
ARC
  8
22
 10
39.4043
 20
46.1920
 30
0.0000
 40
0.2244
 50
270.0008
 51
0.0000
  0
LINE
  8
22
 10
38.3208
 20
47.3139
 30
0.0000
 11
38.3208
 21
45.9676
 31
0.0000
  0
LINE
  8
22
 10
38.3208
 20
45.9676
 30
0.0000
 11
38.6947
 21
45.9676
 31
0.0000
  0
ARC
  8
22
 10
38.6947
 20
46.1920
 30
0.0000
 40
0.2244
 50
270.0000
 51
0.0008
  0
LINE
  8
22
 10
38.9191
 20
46.1920
 30
0.0000
 11
38.9191
 21
46.6408
 31
0.0000
  0
ARC
  8
22
 10
38.6947
 20
46.6408
 30
0.0000
 40
0.2244
 50
0.0000
 51
90.0000
  0
LINE
  8
22
 10
38.6947
 20
46.8651
 30
0.0000
 11
38.3208
 21
46.8651
 31
0.0000
  0
LINE
  8
22
 10
37.0802
 20
45.9676
 30
0.0000
 11
37.4542
 21
45.9676
 31
0.0000
  0
ARC
  8
22
 10
37.4542
 20
46.1920
 30
0.0000
 40
0.2244
 50
270.0000
 51
0.0008
  0
LINE
  8
22
 10
37.6785
 20
46.1920
 30
0.0000
 11
37.6785
 21
46.5660
 31
0.0000
  0
ARC
  8
22
 10
37.3794
 20
46.5660
 30
0.0000
 40
0.2992
 50
0.0000
 51
180.0000
  0
LINE
  8
22
 10
37.0802
 20
46.5660
 30
0.0000
 11
37.0802
 21
46.4164
 31
0.0000
  0
LINE
  8
22
 10
37.0802
 20
46.4164
 30
0.0000
 11
37.6785
 21
46.4164
 31
0.0000
  0
LINE
  8
22
 10
36.4369
 20
45.9676
 30
0.0000
 11
36.4369
 21
46.8651
 31
0.0000
  0
LINE
  8
22
 10
36.4369
 20
46.8651
 30
0.0000
 11
35.9881
 21
46.8651
 31
0.0000
  0
LINE
  8
22
 10
35.9881
 20
46.8651
 30
0.0000
 11
35.9881
 21
46.7155
 31
0.0000
  0
LINE
  8
22
 10
34.3178
 20
46.3416
 30
0.0000
 11
34.6918
 21
46.4912
 31
0.0000
  0
ARC
  8
22
 10
34.6198
 20
46.6712
 30
0.0000
 40
0.1939
 50
291.8014
 51
90.8190
  0
ARC
  8
22
 10
34.6291
 20
46.0159
 30
0.0000
 40
0.8493
 50
90.8190
 51
114.2391
  0
ARC
  8
22
 10
34.3899
 20
46.1615
 30
0.0000
 40
0.1939
 50
111.8014
 51
270.8190
  0
ARC
  8
22
 10
34.3745
 20
47.2360
 30
0.0000
 40
1.2684
 50
270.8190
 51
289.7904
  0
LINE
  8
22
 10
33.6379
 20
45.9676
 30
0.0000
 11
33.6379
 21
46.8651
 31
0.0000
  0
LINE
  8
22
 10
33.6753
 20
47.2391
 30
0.0000
 11
33.6753
 21
47.3139
 31
0.0000
  0
LINE
  8
22
 10
33.6753
 20
47.3139
 30
0.0000
 11
33.6005
 21
47.3139
 31
0.0000
  0
LINE
  8
22
 10
33.6005
 20
47.3139
 30
0.0000
 11
33.6005
 21
47.2391
 31
0.0000
  0
LINE
  8
22
 10
33.6005
 20
47.2391
 30
0.0000
 11
33.6753
 21
47.2391
 31
0.0000
  0
LINE
  8
22
 10
32.4804
 20
47.3139
 30
0.0000
 11
32.4804
 21
45.9676
 31
0.0000
  0
LINE
  8
22
 10
32.4804
 20
45.9676
 30
0.0000
 11
32.8543
 21
45.9676
 31
0.0000
  0
ARC
  8
22
 10
32.8543
 20
46.1920
 30
0.0000
 40
0.2244
 50
270.0000
 51
0.0008
  0
LINE
  8
22
 10
33.0787
 20
46.1920
 30
0.0000
 11
33.0787
 21
46.6408
 31
0.0000
  0
ARC
  8
22
 10
32.8543
 20
46.6408
 30
0.0000
 40
0.2244
 50
0.0000
 51
90.0000
  0
LINE
  8
22
 10
32.8543
 20
46.8651
 30
0.0000
 11
32.4804
 21
46.8651
 31
0.0000
  0
LINE
  8
22
 10
31.2398
 20
45.9676
 30
0.0000
 11
31.6138
 21
45.9676
 31
0.0000
  0
ARC
  8
22
 10
31.6138
 20
46.1920
 30
0.0000
 40
0.2244
 50
270.0000
 51
0.0008
  0
LINE
  8
22
 10
31.8381
 20
46.1920
 30
0.0000
 11
31.8381
 21
46.5660
 31
0.0000
  0
ARC
  8
22
 10
31.5390
 20
46.5660
 30
0.0000
 40
0.2992
 50
0.0000
 51
180.0000
  0
LINE
  8
22
 10
31.2398
 20
46.5660
 30
0.0000
 11
31.2398
 21
46.4164
 31
0.0000
  0
LINE
  8
22
 10
31.2398
 20
46.4164
 30
0.0000
 11
31.8381
 21
46.4164
 31
0.0000
  0
ENDSEC
  0
EOF
