  0
SECTION
  2
HEADER
  9
$ACADVER
  1
AC1009
  9
$FILLMODE
 70
0
  9
$EXTMIN
 10
-5.2650
 20
-15.3500
 30
0.0000
  9
$EXTMAX
 10
54.8678
 20
60.5828
 30
0.0000
  0
ENDSEC
  0
SECTION
  2
TABLES
  0
TABLE
  2
LTYPE
 70
1
  0
LTYPE
  2
CONTINUOUS
 70
64
  3
Solid line
 72
65
 73
0
 40
0
  0
ENDTAB
  0
TABLE
  2
LAYER
 70
255
  0
LAYER
  2
19
 70
64
 62
53
  6
CONTINUOUS
  0
LAYER
  2
20
 70
64
 62
30
  6
CONTINUOUS
  0
LAYER
  2
22
 70
64
 62
253
  6
CONTINUOUS
  0
LAYER
  2
48
 70
64
 62
213
  6
CONTINUOUS
  0
LAYER
  2
49
 70
64
 62
253
  6
CONTINUOUS
  0
LAYER
  2
52
 70
64
 62
253
  6
CONTINUOUS
  0
ENDTAB
  0
ENDSEC
  0
SECTION
  2
BLOCKS
  0
BLOCK
  8
0
  2
RECT
 70
64
 10
0.0000
 20
0.0000
 30
0.0000
  3
RECT
  0
SOLID
  8
0
 10
-0.5000
 20
-0.5000
 30
0.0000
 11
0.5000
 21
-0.5000
 31
0.0000
 12
-0.5000
 22
0.5000
 32
0.0000
 13
0.5000
 23
0.5000
 33
0.0000
  0
ENDBLK
  8
0
  0
BLOCK
  8
0
  2
PIE
 70
64
 10
0.0000
 20
0.0000
 30
0.0000
  3
PIE
  0
CIRCLE
  8
0
 10
0.0000
 20
0.0000
 30
0.0000
 40
0.5000
  0
ENDBLK
  8
0
  0
BLOCK
  8
0
  2
OCTAGONP
 70
64
 10
0.0000
 20
0.0000
 30
0.0000
  3
OCTAGONP
  0
POLYLINE
  8
0
 66
1
 10
0.0000
 20
0.0000
 30
0.0000
 40
0.0000
 41
0.0000
 70
1
  0
VERTEX
  8
0
 10
-0.5000
 20
-0.2071
 30
0.0000
  0
VERTEX
  8
0
 10
-0.5000
 20
0.2071
 30
0.0000
  0
VERTEX
  8
0
 10
-0.2071
 20
0.5000
 30
0.0000
  0
VERTEX
  8
0
 10
0.2071
 20
0.5000
 30
0.0000
  0
VERTEX
  8
0
 10
0.5000
 20
0.2071
 30
0.0000
  0
VERTEX
  8
0
 10
0.5000
 20
-0.2071
 30
0.0000
  0
VERTEX
  8
0
 10
0.2071
 20
-0.5000
 30
0.0000
  0
VERTEX
  8
0
 10
-0.2071
 20
-0.5000
 30
0.0000
  0
SEQEND
  8
0
  0
ENDBLK
  8
0
  0
BLOCK
  8
0
  2
SQUAREP
 70
64
 10
0.0000
 20
0.0000
 30
0.0000
  3
SQUAREP
  0
SOLID
  8
0
 10
-0.5000
 20
-0.5000
 30
0.0000
 11
0.5000
 21
-0.5000
 31
0.0000
 12
-0.5000
 22
0.5000
 32
0.0000
 13
0.5000
 23
0.5000
 33
0.0000
  0
ENDBLK
  8
0
  0
BLOCK
  8
0
  2
ROUNDP
 70
64
 10
0.0000
 20
0.0000
 30
0.0000
  3
ROUNDP
  0
CIRCLE
  8
0
 10
0.0000
 20
0.0000
 30
0.0000
 40
0.5000
  0
ENDBLK
  8
0
  0
BLOCK
  8
0
  2
ANNULUSP
 70
64
 10
0.0000
 20
0.0000
 30
0.0000
  3
ANNULUSP
  0
CIRCLE
  8
0
 10
0.0000
 20
0.0000
 30
0.0000
 40
0.5000
  0
ENDBLK
  8
0
  0
BLOCK
  8
0
  2
THERMALP
 70
64
 10
0.0000
 20
0.0000
 30
0.0000
  3
THERMALP
  0
LINE
  8
0
 10
-0.2379
 20
0.4500
 30
0.0000
 11
0.2379
 21
0.4500
 31
0.0000
  0
LINE
  8
0
 10
0.4500
 20
0.2379
 30
0.0000
 11
0.4500
 21
-0.2379
 31
0.0000
  0
LINE
  8
0
 10
0.2379
 20
-0.4500
 30
0.0000
 11
-0.2379
 21
-0.4500
 31
0.0000
  0
LINE
  8
0
 10
-0.4500
 20
-0.2379
 30
0.0000
 11
-0.4500
 21
0.2379
 31
0.0000
  0
ENDBLK
  8
0
  0
BLOCK
  8
0
  2
OCTAGONV
 70
64
 10
0.0000
 20
0.0000
 30
0.0000
  3
OCTAGONV
  0
POLYLINE
  8
0
 66
1
 10
0.0000
 20
0.0000
 30
0.0000
 40
0.0000
 41
0.0000
 70
1
  0
VERTEX
  8
0
 10
-0.5000
 20
-0.2071
 30
0.0000
  0
VERTEX
  8
0
 10
-0.5000
 20
0.2071
 30
0.0000
  0
VERTEX
  8
0
 10
-0.2071
 20
0.5000
 30
0.0000
  0
VERTEX
  8
0
 10
0.2071
 20
0.5000
 30
0.0000
  0
VERTEX
  8
0
 10
0.5000
 20
0.2071
 30
0.0000
  0
VERTEX
  8
0
 10
0.5000
 20
-0.2071
 30
0.0000
  0
VERTEX
  8
0
 10
0.2071
 20
-0.5000
 30
0.0000
  0
VERTEX
  8
0
 10
-0.2071
 20
-0.5000
 30
0.0000
  0
SEQEND
  8
0
  0
ENDBLK
  8
0
  0
BLOCK
  8
0
  2
SQUAREV
 70
64
 10
0.0000
 20
0.0000
 30
0.0000
  3
SQUAREV
  0
SOLID
  8
0
 10
-0.5000
 20
-0.5000
 30
0.0000
 11
0.5000
 21
-0.5000
 31
0.0000
 12
-0.5000
 22
0.5000
 32
0.0000
 13
0.5000
 23
0.5000
 33
0.0000
  0
ENDBLK
  8
0
  0
BLOCK
  8
0
  2
ROUNDV
 70
64
 10
0.0000
 20
0.0000
 30
0.0000
  3
ROUNDV
  0
CIRCLE
  8
0
 10
0.0000
 20
0.0000
 30
0.0000
 40
0.5000
  0
ENDBLK
  8
0
  0
BLOCK
  8
0
  2
ANNULUSV
 70
64
 10
0.0000
 20
0.0000
 30
0.0000
  3
ANNULUSV
  0
CIRCLE
  8
0
 10
0.0000
 20
0.0000
 30
0.0000
 40
0.5000
  0
ENDBLK
  8
0
  0
BLOCK
  8
0
  2
THERMALV
 70
64
 10
0.0000
 20
0.0000
 30
0.0000
  3
THERMALV
  0
LINE
  8
0
 10
-0.2379
 20
0.4500
 30
0.0000
 11
0.2379
 21
0.4500
 31
0.0000
  0
LINE
  8
0
 10
0.4500
 20
0.2379
 30
0.0000
 11
0.4500
 21
-0.2379
 31
0.0000
  0
LINE
  8
0
 10
0.2379
 20
-0.4500
 30
0.0000
 11
-0.2379
 21
-0.4500
 31
0.0000
  0
LINE
  8
0
 10
-0.4500
 20
-0.2379
 30
0.0000
 11
-0.4500
 21
0.2379
 31
0.0000
  0
ENDBLK
  8
0
  0
BLOCK
  8
0
  2
OFFSETP100
 70
64
 10
0.0000
 20
0.0000
 30
0.0000
  3
OFFSETP100
  0
POLYLINE
  8
0
 66
1
 10
0.0000
 20
0.0000
 30
0.0000
 40
0.0000
 41
0.0000
 70
1
  0
VERTEX
  8
0
 10
0.0000
 20
-0.5000
 30
0.0000
  0
VERTEX
  8
0
 10
1.0000
 20
-0.5000
 30
0.0000
 42
1.0000
  0
VERTEX
  8
0
 10
1.0000
 20
0.5000
 30
0.0000
  0
VERTEX
  8
0
 10
0.0000
 20
0.5000
 30
0.0000
 42
1.0000
  0
SEQEND
  8
0
  0
ENDBLK
  8
0
  0
ENDSEC
  0
SECTION
  2
ENTITIES
  0
LINE
  8
20
 10
0.0000
 20
1.0000
 30
0.0000
 11
0.0000
 21
38.0000
 31
0.0000
  0
ARC
  8
20
 10
1.0000
 20
38.0000
 30
0.0000
 40
1.0000
 50
90.0000
 51
180.0000
  0
LINE
  8
20
 10
1.0000
 20
39.0000
 30
0.0000
 11
28.0000
 21
39.0000
 31
0.0000
  0
ARC
  8
20
 10
28.0000
 20
38.0000
 30
0.0000
 40
1.0000
 50
0.0000
 51
90.0000
  0
LINE
  8
20
 10
29.0000
 20
38.0000
 30
0.0000
 11
29.0000
 21
1.0000
 31
0.0000
  0
ARC
  8
20
 10
28.0000
 20
1.0000
 30
0.0000
 40
1.0000
 50
270.0000
 51
0.0000
  0
LINE
  8
20
 10
28.0000
 20
0.0000
 30
0.0000
 11
1.0000
 21
0.0000
 31
0.0000
  0
ARC
  8
20
 10
1.0000
 20
1.0000
 30
0.0000
 40
1.0000
 50
180.0000
 51
270.0000
  0
LINE
  8
22
 10
14.4463
 20
26.5113
 30
0.0000
 11
27.7813
 21
26.5113
 31
0.0000
  0
LINE
  8
22
 10
27.7813
 20
26.5113
 30
0.0000
 11
27.7813
 21
30.4800
 31
0.0000
  0
LINE
  8
22
 10
27.7813
 20
30.4800
 30
0.0000
 11
14.4463
 21
30.4800
 31
0.0000
  0
LINE
  8
22
 10
14.4463
 20
30.4800
 30
0.0000
 11
14.4463
 21
26.6700
 31
0.0000
  0
LINE
  8
22
 10
14.4463
 20
26.6700
 30
0.0000
 11
14.4463
 21
26.5113
 31
0.0000
  0
LINE
  8
48
 10
36.6141
 20
59.2702
 30
0.0000
 11
37.0515
 21
59.6202
 31
0.0000
  0
LINE
  8
48
 10
37.0515
 20
59.6202
 30
0.0000
 11
37.0515
 21
58.0454
 31
0.0000
  0
LINE
  8
48
 10
36.6141
 20
58.0454
 30
0.0000
 11
37.4890
 21
58.0454
 31
0.0000
  0
ARC
  8
48
 10
38.6147
 20
58.4828
 30
0.0000
 40
0.4374
 50
0.0000
 51
180.0000
  0
ARC
  8
48
 10
38.6147
 20
58.4828
 30
0.0000
 40
0.4374
 50
180.0000
 51
0.0000
  0
ARC
  8
48
 10
38.6147
 20
59.2702
 30
0.0000
 40
0.3500
 50
0.0000
 51
180.0000
  0
ARC
  8
48
 10
38.6147
 20
59.2702
 30
0.0000
 40
0.3500
 50
180.0000
 51
0.0000
  0
LINE
  8
48
 10
39.7403
 20
58.0454
 30
0.0000
 11
40.2653
 21
58.0454
 31
0.0000
  0
ARC
  8
48
 10
40.2653
 20
58.3953
 30
0.0000
 40
0.3500
 50
270.0000
 51
359.9995
  0
LINE
  8
48
 10
40.6152
 20
58.3953
 30
0.0000
 11
40.6152
 21
58.5703
 31
0.0000
  0
ARC
  8
48
 10
40.2653
 20
58.5703
 30
0.0000
 40
0.3500
 50
0.0000
 51
90.0000
  0
LINE
  8
48
 10
40.2653
 20
58.9202
 30
0.0000
 11
39.7403
 21
58.9202
 31
0.0000
  0
LINE
  8
48
 10
39.7403
 20
58.9202
 30
0.0000
 11
39.7403
 21
59.6202
 31
0.0000
  0
LINE
  8
48
 10
39.7403
 20
59.6202
 30
0.0000
 11
40.6152
 21
59.6202
 31
0.0000
  0
LINE
  8
48
 10
41.3202
 20
58.6578
 30
0.0000
 11
42.3701
 21
58.6578
 31
0.0000
  0
ARC
  8
48
 10
43.5562
 20
59.2264
 30
0.0000
 40
0.3937
 50
0.0000
 51
90.0000
  0
ARC
  8
48
 10
43.5562
 20
59.1144
 30
0.0000
 40
0.5058
 50
90.0000
 51
162.0550
  0
ARC
  8
48
 10
43.5270
 20
59.2264
 30
0.0000
 40
0.4229
 50
313.6028
 51
359.9999
  0
LINE
  8
48
 10
43.8187
 20
58.9202
 30
0.0000
 11
43.0750
 21
58.0454
 31
0.0000
  0
LINE
  8
48
 10
43.0750
 20
58.0454
 30
0.0000
 11
43.9499
 21
58.0454
 31
0.0000
  0
LINE
  8
48
 10
44.6549
 20
58.6578
 30
0.0000
 11
45.7047
 21
58.6578
 31
0.0000
  0
ARC
  8
48
 10
47.7074
 20
58.8328
 30
0.0000
 40
1.2978
 50
154.0111
 51
180.0000
  0
ARC
  8
48
 10
46.8471
 20
59.2964
 30
0.0000
 40
0.3237
 50
90.0000
 51
161.0758
  0
ARC
  8
48
 10
46.8471
 20
59.2964
 30
0.0000
 40
0.3237
 50
18.9235
 51
90.0002
  0
ARC
  8
48
 10
45.9868
 20
58.8328
 30
0.0000
 40
1.2977
 50
0.0000
 51
25.9895
  0
ARC
  8
48
 10
47.7075
 20
58.8328
 30
0.0000
 40
1.2978
 50
180.0001
 51
205.9888
  0
ARC
  8
48
 10
46.8471
 20
58.3691
 30
0.0000
 40
0.3237
 50
198.9248
 51
270.0001
  0
ARC
  8
48
 10
45.9868
 20
58.8328
 30
0.0000
 40
1.2978
 50
334.0107
 51
359.9999
  0
ARC
  8
48
 10
46.8471
 20
58.3691
 30
0.0000
 40
0.3237
 50
270.0000
 51
341.0761
  0
LINE
  8
48
 10
46.4972
 20
58.3953
 30
0.0000
 11
47.1971
 21
59.2702
 31
0.0000
  0
LINE
  8
48
 10
47.9728
 20
59.2702
 30
0.0000
 11
48.4103
 21
59.6202
 31
0.0000
  0
LINE
  8
48
 10
48.4103
 20
59.6202
 30
0.0000
 11
48.4103
 21
58.0454
 31
0.0000
  0
LINE
  8
48
 10
47.9728
 20
58.0454
 30
0.0000
 11
48.8477
 21
58.0454
 31
0.0000
  0
LINE
  8
48
 10
49.5526
 20
58.6578
 30
0.0000
 11
50.6025
 21
58.6578
 31
0.0000
  0
ARC
  8
48
 10
52.6052
 20
58.8328
 30
0.0000
 40
1.2978
 50
154.0111
 51
180.0000
  0
ARC
  8
48
 10
51.7449
 20
59.2964
 30
0.0000
 40
0.3237
 50
90.0000
 51
161.0758
  0
ARC
  8
48
 10
51.7449
 20
59.2964
 30
0.0000
 40
0.3237
 50
18.9235
 51
90.0002
  0
ARC
  8
48
 10
50.8846
 20
58.8328
 30
0.0000
 40
1.2977
 50
0.0000
 51
25.9895
  0
ARC
  8
48
 10
52.6053
 20
58.8328
 30
0.0000
 40
1.2978
 50
180.0001
 51
205.9888
  0
ARC
  8
48
 10
51.7449
 20
58.3691
 30
0.0000
 40
0.3237
 50
198.9248
 51
270.0001
  0
ARC
  8
48
 10
50.8846
 20
58.8328
 30
0.0000
 40
1.2978
 50
334.0107
 51
359.9999
  0
ARC
  8
48
 10
51.7449
 20
58.3691
 30
0.0000
 40
0.3237
 50
270.0000
 51
341.0761
  0
LINE
  8
48
 10
51.3950
 20
58.3953
 30
0.0000
 11
52.0949
 21
59.2702
 31
0.0000
  0
LINE
  8
48
 10
52.8706
 20
59.2702
 30
0.0000
 11
53.3080
 21
59.6202
 31
0.0000
  0
LINE
  8
48
 10
53.3080
 20
59.6202
 30
0.0000
 11
53.3080
 21
58.0454
 31
0.0000
  0
LINE
  8
48
 10
52.8706
 20
58.0454
 30
0.0000
 11
53.7455
 21
58.0454
 31
0.0000
  0
LINE
  8
48
 10
30.1054
 20
54.8704
 30
0.0000
 11
30.5428
 21
54.8704
 31
0.0000
  0
ARC
  8
48
 10
30.5428
 20
55.3078
 30
0.0000
 40
0.4374
 50
270.0000
 51
90.0000
  0
LINE
  8
48
 10
30.1054
 20
56.4452
 30
0.0000
 11
30.6303
 21
56.4452
 31
0.0000
  0
ARC
  8
48
 10
30.6303
 20
56.0952
 30
0.0000
 40
0.3500
 50
270.0000
 51
90.0000
  0
LINE
  8
48
 10
30.6303
 20
55.7452
 30
0.0000
 11
30.2803
 21
55.7452
 31
0.0000
  0
LINE
  8
48
 10
31.6685
 20
54.8704
 30
0.0000
 11
32.1934
 21
54.8704
 31
0.0000
  0
ARC
  8
48
 10
32.1934
 20
55.2203
 30
0.0000
 40
0.3500
 50
270.0000
 51
359.9995
  0
LINE
  8
48
 10
32.5434
 20
55.2203
 30
0.0000
 11
32.5434
 21
55.3953
 31
0.0000
  0
ARC
  8
48
 10
32.1934
 20
55.3953
 30
0.0000
 40
0.3500
 50
0.0000
 51
90.0000
  0
LINE
  8
48
 10
32.1934
 20
55.7452
 30
0.0000
 11
31.6685
 21
55.7452
 31
0.0000
  0
LINE
  8
48
 10
31.6685
 20
55.7452
 30
0.0000
 11
31.6685
 21
56.4452
 31
0.0000
  0
LINE
  8
48
 10
31.6685
 20
56.4452
 30
0.0000
 11
32.5434
 21
56.4452
 31
0.0000
  0
LINE
  8
48
 10
33.3286
 20
54.3454
 30
0.0000
 11
33.3286
 21
55.9202
 31
0.0000
  0
LINE
  8
48
 10
34.0285
 20
55.9202
 30
0.0000
 11
34.0285
 21
55.2203
 31
0.0000
  0
ARC
  8
48
 10
33.6785
 20
55.2203
 30
0.0000
 40
0.3500
 50
180.0000
 51
0.0000
  0
LINE
  8
48
 10
34.0285
 20
55.2203
 30
0.0000
 11
34.0285
 21
55.0453
 31
0.0000
  0
ARC
  8
48
 10
34.2035
 20
55.0453
 30
0.0000
 40
0.1750
 50
180.0000
 51
270.0010
  0
LINE
  8
48
 10
34.8114
 20
54.8704
 30
0.0000
 11
34.8114
 21
55.9202
 31
0.0000
  0
LINE
  8
48
 10
34.8114
 20
55.9202
 30
0.0000
 11
35.5988
 21
55.9202
 31
0.0000
  0
ARC
  8
48
 10
35.5988
 20
55.6578
 30
0.0000
 40
0.2625
 50
0.0000
 51
90.0000
  0
LINE
  8
48
 10
35.8613
 20
55.6578
 30
0.0000
 11
35.8613
 21
54.8704
 31
0.0000
  0
LINE
  8
48
 10
35.3364
 20
54.8704
 30
0.0000
 11
35.3364
 21
55.9202
 31
0.0000
  0
ARC
  8
48
 10
52.4940
 20
56.0515
 30
0.0000
 40
0.3937
 50
0.0000
 51
90.0000
  0
ARC
  8
48
 10
52.4940
 20
55.9394
 30
0.0000
 40
0.5058
 50
90.0000
 51
162.0550
  0
ARC
  8
48
 10
52.4649
 20
56.0515
 30
0.0000
 40
0.4229
 50
313.6028
 51
359.9999
  0
LINE
  8
48
 10
52.7565
 20
55.7452
 30
0.0000
 11
52.0129
 21
54.8704
 31
0.0000
  0
LINE
  8
48
 10
52.0129
 20
54.8704
 30
0.0000
 11
52.8877
 21
54.8704
 31
0.0000
  0
LINE
  8
48
 10
48.5204
 20
49.7452
 30
0.0000
 11
48.9578
 21
50.0952
 31
0.0000
  0
LINE
  8
48
 10
48.9578
 20
50.0952
 30
0.0000
 11
48.9578
 21
48.5204
 31
0.0000
  0
LINE
  8
48
 10
48.5204
 20
48.5204
 30
0.0000
 11
49.3952
 21
48.5204
 31
0.0000
  0
ARC
  8
48
 10
3.6911
 20
58.3953
 30
0.0000
 40
0.3500
 50
269.9995
 51
0.0000
  0
ARC
  8
48
 10
3.6911
 20
58.7846
 30
0.0000
 40
0.7393
 50
224.7606
 51
269.9996
  0
ARC
  8
48
 10
3.5598
 20
59.2702
 30
0.0000
 40
0.3500
 50
90.0000
 51
180.0000
  0
ARC
  8
48
 10
3.5598
 20
58.9640
 30
0.0000
 40
0.6562
 50
53.1299
 51
89.9999
  0
ARC
  8
48
 10
3.5653
 20
59.2702
 30
0.0000
 40
0.3554
 50
180.0000
 51
239.4897
  0
ARC
  8
48
 10
3.6856
 20
58.3953
 30
0.0000
 40
0.3554
 50
0.0002
 51
59.4895
  0
LINE
  8
48
 10
3.8661
 20
58.7015
 30
0.0000
 11
3.3849
 21
58.9640
 31
0.0000
  0
LINE
  8
48
 10
4.6083
 20
59.0952
 30
0.0000
 11
4.9583
 21
58.0454
 31
0.0000
  0
LINE
  8
48
 10
4.9583
 20
58.0454
 30
0.0000
 11
5.3083
 21
59.0952
 31
0.0000
  0
LINE
  8
48
 10
6.6109
 20
58.0454
 30
0.0000
 11
6.1734
 21
58.0454
 31
0.0000
  0
ARC
  8
48
 10
6.1734
 20
58.3078
 30
0.0000
 40
0.2625
 50
180.0000
 51
270.0000
  0
LINE
  8
48
 10
5.9109
 20
58.3078
 30
0.0000
 11
5.9109
 21
58.7453
 31
0.0000
  0
ARC
  8
48
 10
6.2609
 20
58.7453
 30
0.0000
 40
0.3500
 50
0.0000
 51
180.0000
  0
LINE
  8
48
 10
6.6109
 20
58.7453
 30
0.0000
 11
6.6109
 21
58.5703
 31
0.0000
  0
LINE
  8
48
 10
6.6109
 20
58.5703
 30
0.0000
 11
5.9109
 21
58.5703
 31
0.0000
  0
LINE
  8
48
 10
7.3178
 20
58.0454
 30
0.0000
 11
7.3178
 21
59.0952
 31
0.0000
  0
LINE
  8
48
 10
7.3178
 20
59.0952
 30
0.0000
 11
7.7552
 21
59.0952
 31
0.0000
  0
ARC
  8
48
 10
7.7552
 20
58.8328
 30
0.0000
 40
0.2625
 50
0.0000
 51
90.0000
  0
LINE
  8
48
 10
8.0177
 20
58.8328
 30
0.0000
 11
8.0177
 21
58.0454
 31
0.0000
  0
LINE
  8
48
 10
9.6524
 20
58.0454
 30
0.0000
 11
9.6524
 21
59.6202
 31
0.0000
  0
LINE
  8
48
 10
9.6524
 20
59.6202
 30
0.0000
 11
10.0899
 21
59.6202
 31
0.0000
  0
ARC
  8
48
 10
10.0899
 20
59.1827
 30
0.0000
 40
0.4374
 50
270.0000
 51
90.0000
  0
LINE
  8
48
 10
10.0899
 20
58.7453
 30
0.0000
 11
9.6524
 21
58.7453
 31
0.0000
  0
LINE
  8
48
 10
11.8213
 20
58.0454
 30
0.0000
 11
11.3838
 21
58.0454
 31
0.0000
  0
ARC
  8
48
 10
11.3838
 20
58.3078
 30
0.0000
 40
0.2625
 50
180.0000
 51
270.0000
  0
LINE
  8
48
 10
11.1214
 20
58.3078
 30
0.0000
 11
11.1214
 21
58.7453
 31
0.0000
  0
ARC
  8
48
 10
11.4713
 20
58.7453
 30
0.0000
 40
0.3500
 50
0.0000
 51
180.0000
  0
LINE
  8
48
 10
11.8213
 20
58.7453
 30
0.0000
 11
11.8213
 21
58.5703
 31
0.0000
  0
LINE
  8
48
 10
11.8213
 20
58.5703
 30
0.0000
 11
11.1214
 21
58.5703
 31
0.0000
  0
LINE
  8
48
 10
12.3412
 20
59.0952
 30
0.0000
 11
12.8661
 21
59.0952
 31
0.0000
  0
LINE
  8
48
 10
12.5161
 20
59.6202
 30
0.0000
 11
12.5161
 21
58.3078
 31
0.0000
  0
ARC
  8
48
 10
12.7786
 20
58.3078
 30
0.0000
 40
0.2625
 50
180.0000
 51
270.0000
  0
LINE
  8
48
 10
12.7786
 20
58.0454
 30
0.0000
 11
12.8661
 21
58.0454
 31
0.0000
  0
LINE
  8
48
 10
14.1659
 20
58.0454
 30
0.0000
 11
13.7285
 21
58.0454
 31
0.0000
  0
ARC
  8
48
 10
13.7285
 20
58.3078
 30
0.0000
 40
0.2625
 50
180.0000
 51
270.0000
  0
LINE
  8
48
 10
13.4660
 20
58.3078
 30
0.0000
 11
13.4660
 21
58.7453
 31
0.0000
  0
ARC
  8
48
 10
13.8160
 20
58.7453
 30
0.0000
 40
0.3500
 50
0.0000
 51
180.0000
  0
LINE
  8
48
 10
14.1659
 20
58.7453
 30
0.0000
 11
14.1659
 21
58.5703
 31
0.0000
  0
LINE
  8
48
 10
14.1659
 20
58.5703
 30
0.0000
 11
13.4660
 21
58.5703
 31
0.0000
  0
LINE
  8
48
 10
14.8831
 20
58.0454
 30
0.0000
 11
14.8831
 21
59.0952
 31
0.0000
  0
LINE
  8
48
 10
14.8831
 20
59.0952
 30
0.0000
 11
15.4080
 21
59.0952
 31
0.0000
  0
LINE
  8
48
 10
15.4080
 20
59.0952
 30
0.0000
 11
15.4080
 21
58.9202
 31
0.0000
  0
LINE
  8
48
 10
16.4836
 20
58.4828
 30
0.0000
 11
16.0462
 21
58.6578
 31
0.0000
  0
ARC
  8
48
 10
16.1304
 20
58.8684
 30
0.0000
 40
0.2268
 50
89.1807
 51
248.1990
  0
ARC
  8
48
 10
16.1194
 20
58.1017
 30
0.0000
 40
0.9936
 50
65.7612
 51
89.1807
  0
ARC
  8
48
 10
16.3994
 20
58.2722
 30
0.0000
 40
0.2268
 50
269.1807
 51
68.1990
  0
ARC
  8
48
 10
16.4173
 20
59.5291
 30
0.0000
 40
1.4839
 50
250.2099
 51
269.1807
  0
LINE
  8
48
 10
17.9695
 20
58.0454
 30
0.0000
 11
17.5321
 21
58.0454
 31
0.0000
  0
ARC
  8
48
 10
17.5321
 20
58.3078
 30
0.0000
 40
0.2625
 50
180.0000
 51
270.0000
  0
LINE
  8
48
 10
17.2696
 20
58.3078
 30
0.0000
 11
17.2696
 21
58.7453
 31
0.0000
  0
ARC
  8
48
 10
17.6196
 20
58.7453
 30
0.0000
 40
0.3500
 50
0.0000
 51
180.0000
  0
LINE
  8
48
 10
17.9695
 20
58.7453
 30
0.0000
 11
17.9695
 21
58.5703
 31
0.0000
  0
LINE
  8
48
 10
17.9695
 20
58.5703
 30
0.0000
 11
17.2696
 21
58.5703
 31
0.0000
  0
LINE
  8
48
 10
18.6764
 20
58.0454
 30
0.0000
 11
18.6764
 21
59.0952
 31
0.0000
  0
LINE
  8
48
 10
18.6764
 20
59.0952
 30
0.0000
 11
19.1139
 21
59.0952
 31
0.0000
  0
ARC
  8
48
 10
19.1139
 20
58.8328
 30
0.0000
 40
0.2625
 50
0.0000
 51
90.0000
  0
LINE
  8
48
 10
19.3764
 20
58.8328
 30
0.0000
 11
19.3764
 21
58.0454
 31
0.0000
  0
ARC
  8
48
 10
8.9703
 20
56.0515
 30
0.0000
 40
0.3937
 50
0.0000
 51
90.0000
  0
ARC
  8
48
 10
8.9703
 20
55.9394
 30
0.0000
 40
0.5058
 50
90.0000
 51
162.0550
  0
ARC
  8
48
 10
8.9411
 20
56.0515
 30
0.0000
 40
0.4229
 50
313.6028
 51
359.9999
  0
LINE
  8
48
 10
9.2328
 20
55.7452
 30
0.0000
 11
8.4891
 21
54.8704
 31
0.0000
  0
LINE
  8
48
 10
8.4891
 20
54.8704
 30
0.0000
 11
9.3640
 21
54.8704
 31
0.0000
  0
ARC
  8
48
 10
11.3500
 20
55.6578
 30
0.0000
 40
1.2978
 50
154.0111
 51
180.0000
  0
ARC
  8
48
 10
10.4897
 20
56.1214
 30
0.0000
 40
0.3237
 50
90.0000
 51
161.0758
  0
ARC
  8
48
 10
10.4897
 20
56.1214
 30
0.0000
 40
0.3237
 50
18.9235
 51
90.0002
  0
ARC
  8
48
 10
9.6294
 20
55.6578
 30
0.0000
 40
1.2977
 50
0.0000
 51
25.9895
  0
ARC
  8
48
 10
11.3500
 20
55.6578
 30
0.0000
 40
1.2978
 50
180.0001
 51
205.9888
  0
ARC
  8
48
 10
10.4897
 20
55.1941
 30
0.0000
 40
0.3237
 50
198.9248
 51
270.0001
  0
ARC
  8
48
 10
9.6294
 20
55.6578
 30
0.0000
 40
1.2978
 50
334.0107
 51
359.9999
  0
ARC
  8
48
 10
10.4897
 20
55.1941
 30
0.0000
 40
0.3237
 50
270.0000
 51
341.0761
  0
LINE
  8
48
 10
10.1397
 20
55.2203
 30
0.0000
 11
10.8396
 21
56.0952
 31
0.0000
  0
ARC
  8
48
 10
12.0966
 20
56.0515
 30
0.0000
 40
0.3937
 50
0.0000
 51
90.0000
  0
ARC
  8
48
 10
12.0966
 20
55.9394
 30
0.0000
 40
0.5058
 50
90.0000
 51
162.0550
  0
ARC
  8
48
 10
12.0674
 20
56.0515
 30
0.0000
 40
0.4229
 50
313.6028
 51
359.9999
  0
LINE
  8
48
 10
12.3590
 20
55.7452
 30
0.0000
 11
11.6154
 21
54.8704
 31
0.0000
  0
LINE
  8
48
 10
11.6154
 20
54.8704
 30
0.0000
 11
12.4903
 21
54.8704
 31
0.0000
  0
LINE
  8
48
 10
13.1785
 20
56.0952
 30
0.0000
 11
13.6159
 21
56.4452
 31
0.0000
  0
LINE
  8
48
 10
13.6159
 20
56.4452
 30
0.0000
 11
13.6159
 21
54.8704
 31
0.0000
  0
LINE
  8
48
 10
13.1785
 20
54.8704
 30
0.0000
 11
14.0534
 21
54.8704
 31
0.0000
  0
LINE
  8
22
 10
22.3396
 20
0.9394
 30
0.0000
 11
23.2794
 21
0.9394
 31
0.0000
  0
LINE
  8
22
 10
22.9661
 20
0.9394
 30
0.0000
 11
22.9661
 21
1.2004
 31
0.0000
  0
ARC
  8
22
 10
22.8095
 20
1.2004
 30
0.0000
 40
0.1566
 50
0.0000
 51
90.0000
  0
LINE
  8
22
 10
22.8095
 20
1.3570
 30
0.0000
 11
22.3396
 21
1.3570
 31
0.0000
  0
LINE
  8
22
 10
22.9661
 20
1.6854
 30
0.0000
 11
22.9661
 21
1.9987
 31
0.0000
  0
LINE
  8
22
 10
23.2794
 20
1.7899
 30
0.0000
 11
22.4962
 21
1.7899
 31
0.0000
  0
ARC
  8
22
 10
22.4962
 20
1.9465
 30
0.0000
 40
0.1566
 50
180.0000
 51
270.0000
  0
LINE
  8
22
 10
22.3396
 20
1.9465
 30
0.0000
 11
22.3396
 21
1.9987
 31
0.0000
  0
LINE
  8
22
 10
22.9661
 20
2.2646
 30
0.0000
 11
22.9661
 21
2.5778
 31
0.0000
  0
LINE
  8
22
 10
23.2794
 20
2.3690
 30
0.0000
 11
22.4962
 21
2.3690
 31
0.0000
  0
ARC
  8
22
 10
22.4962
 20
2.5256
 30
0.0000
 40
0.1566
 50
180.0000
 51
270.0000
  0
LINE
  8
22
 10
22.3396
 20
2.5256
 30
0.0000
 11
22.3396
 21
2.5778
 31
0.0000
  0
LINE
  8
22
 10
22.0263
 20
2.9556
 30
0.0000
 11
22.9661
 21
2.9556
 31
0.0000
  0
LINE
  8
22
 10
22.9661
 20
2.9556
 30
0.0000
 11
22.9661
 21
3.2166
 31
0.0000
  0
ARC
  8
22
 10
22.8095
 20
3.2166
 30
0.0000
 40
0.1566
 50
0.0000
 51
90.0000
  0
LINE
  8
22
 10
22.8095
 20
3.3733
 30
0.0000
 11
22.4962
 21
3.3733
 31
0.0000
  0
ARC
  8
22
 10
22.4962
 20
3.2166
 30
0.0000
 40
0.1566
 50
90.0000
 51
180.0000
  0
LINE
  8
22
 10
22.3396
 20
3.2166
 30
0.0000
 11
22.3396
 21
2.9556
 31
0.0000
  0
LINE
  8
22
 10
22.4179
 20
3.7434
 30
0.0000
 11
22.4701
 21
3.7434
 31
0.0000
  0
LINE
  8
22
 10
22.4701
 20
3.7434
 30
0.0000
 11
22.4701
 21
3.7956
 31
0.0000
  0
LINE
  8
22
 10
22.4701
 20
3.7956
 30
0.0000
 11
22.4179
 21
3.7956
 31
0.0000
  0
LINE
  8
22
 10
22.4179
 20
3.7956
 30
0.0000
 11
22.4179
 21
3.7434
 31
0.0000
  0
LINE
  8
22
 10
22.8356
 20
3.7434
 30
0.0000
 11
22.8878
 21
3.7434
 31
0.0000
  0
LINE
  8
22
 10
22.8878
 20
3.7434
 30
0.0000
 11
22.8878
 21
3.7956
 31
0.0000
  0
LINE
  8
22
 10
22.8878
 20
3.7956
 30
0.0000
 11
22.8356
 21
3.7956
 31
0.0000
  0
LINE
  8
22
 10
22.8356
 20
3.7956
 30
0.0000
 11
22.8356
 21
3.7434
 31
0.0000
  0
LINE
  8
22
 10
22.2352
 20
4.1397
 30
0.0000
 11
23.3838
 21
4.5574
 31
0.0000
  0
LINE
  8
22
 10
22.2352
 20
4.8712
 30
0.0000
 11
23.3838
 21
5.2889
 31
0.0000
  0
LINE
  8
22
 10
22.3396
 20
6.0464
 30
0.0000
 11
22.3396
 21
5.7853
 31
0.0000
  0
ARC
  8
22
 10
22.4962
 20
5.7853
 30
0.0000
 40
0.1566
 50
180.0000
 51
270.0000
  0
LINE
  8
22
 10
22.4962
 20
5.6287
 30
0.0000
 11
22.8095
 21
5.6287
 31
0.0000
  0
ARC
  8
22
 10
22.8095
 20
5.7853
 30
0.0000
 40
0.1566
 50
270.0000
 51
0.0000
  0
LINE
  8
22
 10
22.9661
 20
5.7853
 30
0.0000
 11
22.9661
 21
6.0464
 31
0.0000
  0
LINE
  8
22
 10
22.9661
 20
6.0464
 30
0.0000
 11
22.1830
 21
6.0464
 31
0.0000
  0
ARC
  8
22
 10
22.1830
 20
5.8897
 30
0.0000
 40
0.1566
 50
90.0000
 51
179.9989
  0
LINE
  8
22
 10
22.0263
 20
5.8897
 30
0.0000
 11
22.0263
 21
5.6809
 31
0.0000
  0
LINE
  8
22
 10
22.3396
 20
6.4517
 30
0.0000
 11
22.9661
 21
6.4517
 31
0.0000
  0
LINE
  8
22
 10
23.2272
 20
6.4256
 30
0.0000
 11
23.2794
 21
6.4256
 31
0.0000
  0
LINE
  8
22
 10
23.2794
 20
6.4256
 30
0.0000
 11
23.2794
 21
6.4778
 31
0.0000
  0
LINE
  8
22
 10
23.2794
 20
6.4778
 30
0.0000
 11
23.2272
 21
6.4778
 31
0.0000
  0
LINE
  8
22
 10
23.2272
 20
6.4778
 30
0.0000
 11
23.2272
 21
6.4256
 31
0.0000
  0
LINE
  8
22
 10
22.9661
 20
6.7451
 30
0.0000
 11
22.9661
 21
7.0583
 31
0.0000
  0
LINE
  8
22
 10
23.2794
 20
6.8495
 30
0.0000
 11
22.4962
 21
6.8495
 31
0.0000
  0
ARC
  8
22
 10
22.4962
 20
7.0061
 30
0.0000
 40
0.1566
 50
180.0000
 51
270.0000
  0
LINE
  8
22
 10
22.3396
 20
7.0061
 30
0.0000
 11
22.3396
 21
7.0583
 31
0.0000
  0
LINE
  8
22
 10
22.3396
 20
7.4315
 30
0.0000
 11
23.2794
 21
7.4315
 31
0.0000
  0
LINE
  8
22
 10
22.9661
 20
7.4315
 30
0.0000
 11
22.9661
 21
7.6926
 31
0.0000
  0
ARC
  8
22
 10
22.8095
 20
7.6926
 30
0.0000
 40
0.1566
 50
0.0000
 51
90.0000
  0
LINE
  8
22
 10
22.8095
 20
7.8492
 30
0.0000
 11
22.3396
 21
7.8492
 31
0.0000
  0
LINE
  8
22
 10
22.9661
 20
8.2850
 30
0.0000
 11
22.4962
 21
8.2850
 31
0.0000
  0
ARC
  8
22
 10
22.4962
 20
8.4416
 30
0.0000
 40
0.1566
 50
180.0000
 51
270.0000
  0
LINE
  8
22
 10
22.3396
 20
8.4416
 30
0.0000
 11
22.3396
 21
8.7027
 31
0.0000
  0
LINE
  8
22
 10
22.3396
 20
8.7027
 30
0.0000
 11
22.9661
 21
8.7027
 31
0.0000
  0
LINE
  8
22
 10
23.2794
 20
9.1430
 30
0.0000
 11
22.3396
 21
9.1430
 31
0.0000
  0
LINE
  8
22
 10
22.3396
 20
9.1430
 30
0.0000
 11
22.3396
 21
9.4040
 31
0.0000
  0
ARC
  8
22
 10
22.4962
 20
9.4040
 30
0.0000
 40
0.1566
 50
90.0011
 51
180.0000
  0
LINE
  8
22
 10
22.4962
 20
9.5607
 30
0.0000
 11
22.8095
 21
9.5607
 31
0.0000
  0
ARC
  8
22
 10
22.8095
 20
9.4040
 30
0.0000
 40
0.1566
 50
0.0000
 51
90.0000
  0
LINE
  8
22
 10
22.9661
 20
9.4040
 30
0.0000
 11
22.9661
 21
9.1430
 31
0.0000
  0
LINE
  8
22
 10
22.3396
 20
9.9003
 30
0.0000
 11
22.3918
 21
9.9003
 31
0.0000
  0
LINE
  8
22
 10
22.3918
 20
9.9003
 30
0.0000
 11
22.3918
 21
9.9525
 31
0.0000
  0
LINE
  8
22
 10
22.3918
 20
9.9525
 30
0.0000
 11
22.3396
 21
9.9525
 31
0.0000
  0
LINE
  8
22
 10
22.3396
 20
9.9525
 30
0.0000
 11
22.3396
 21
9.9003
 31
0.0000
  0
LINE
  8
22
 10
22.3396
 20
10.6632
 30
0.0000
 11
22.3396
 21
10.4543
 31
0.0000
  0
ARC
  8
22
 10
22.4962
 20
10.4543
 30
0.0000
 40
0.1566
 50
180.0000
 51
270.0000
  0
LINE
  8
22
 10
22.4962
 20
10.2977
 30
0.0000
 11
22.8095
 21
10.2977
 31
0.0000
  0
ARC
  8
22
 10
22.8095
 20
10.4543
 30
0.0000
 40
0.1566
 50
270.0000
 51
0.0000
  0
LINE
  8
22
 10
22.9661
 20
10.4543
 30
0.0000
 11
22.9661
 21
10.6632
 31
0.0000
  0
LINE
  8
22
 10
22.5484
 20
10.9977
 30
0.0000
 11
22.7573
 21
10.9977
 31
0.0000
  0
ARC
  8
22
 10
22.7573
 20
11.2065
 30
0.0000
 40
0.2088
 50
270.0000
 51
90.0000
  0
LINE
  8
22
 10
22.7573
 20
11.4154
 30
0.0000
 11
22.5484
 21
11.4154
 31
0.0000
  0
ARC
  8
22
 10
22.5484
 20
11.2065
 30
0.0000
 40
0.2088
 50
90.0000
 51
270.0000
  0
LINE
  8
22
 10
22.3396
 20
11.8381
 30
0.0000
 11
22.9661
 21
11.8381
 31
0.0000
  0
LINE
  8
22
 10
22.9661
 20
11.8381
 30
0.0000
 11
22.9661
 21
12.3080
 31
0.0000
  0
ARC
  8
22
 10
22.8095
 20
12.3080
 30
0.0000
 40
0.1566
 50
0.0000
 51
90.0000
  0
LINE
  8
22
 10
22.8095
 20
12.4647
 30
0.0000
 11
22.3396
 21
12.4647
 31
0.0000
  0
LINE
  8
22
 10
22.3396
 20
12.1514
 30
0.0000
 11
22.9661
 21
12.1514
 31
0.0000
  0
LINE
  8
22
 10
22.2352
 20
12.8570
 30
0.0000
 11
23.3838
 21
13.2746
 31
0.0000
  0
LINE
  8
22
 10
21.0767
 20
1.3048
 30
0.0000
 11
21.1811
 21
1.0438
 31
0.0000
  0
ARC
  8
22
 10
21.3068
 20
1.0940
 30
0.0000
 40
0.1354
 50
201.8017
 51
0.8174
  0
ARC
  8
22
 10
20.8493
 20
1.0875
 30
0.0000
 40
0.5929
 50
0.8174
 51
24.2394
  0
ARC
  8
22
 10
20.9510
 20
1.2545
 30
0.0000
 40
0.1354
 50
21.8017
 51
180.8174
  0
ARC
  8
22
 10
21.7009
 20
1.2652
 30
0.0000
 40
0.8854
 50
180.8174
 51
199.7915
  0
LINE
  8
22
 10
21.4421
 20
1.7275
 30
0.0000
 11
20.8156
 21
1.9363
 31
0.0000
  0
LINE
  8
22
 10
20.8156
 20
1.9363
 30
0.0000
 11
21.4421
 21
2.1451
 31
0.0000
  0
LINE
  8
22
 10
20.8156
 20
2.9071
 30
0.0000
 11
20.8156
 21
2.6461
 31
0.0000
  0
ARC
  8
22
 10
20.9722
 20
2.6461
 30
0.0000
 40
0.1566
 50
180.0000
 51
270.0000
  0
LINE
  8
22
 10
20.9722
 20
2.4894
 30
0.0000
 11
21.2333
 21
2.4894
 31
0.0000
  0
ARC
  8
22
 10
21.2333
 20
2.6983
 30
0.0000
 40
0.2088
 50
270.0000
 51
90.0000
  0
LINE
  8
22
 10
21.2333
 20
2.9071
 30
0.0000
 11
21.1289
 21
2.9071
 31
0.0000
  0
LINE
  8
22
 10
21.1289
 20
2.9071
 30
0.0000
 11
21.1289
 21
2.4894
 31
0.0000
  0
LINE
  8
22
 10
20.8156
 20
3.3124
 30
0.0000
 11
21.4421
 21
3.3124
 31
0.0000
  0
LINE
  8
22
 10
21.4421
 20
3.3124
 30
0.0000
 11
21.4421
 21
3.5735
 31
0.0000
  0
ARC
  8
22
 10
21.2855
 20
3.5735
 30
0.0000
 40
0.1566
 50
0.0000
 51
90.0000
  0
LINE
  8
22
 10
21.2855
 20
3.7301
 30
0.0000
 11
20.8156
 21
3.7301
 31
0.0000
  0
LINE
  8
22
 10
20.5023
 20
4.1704
 30
0.0000
 11
21.4421
 21
4.1704
 31
0.0000
  0
LINE
  8
22
 10
21.4421
 20
4.1704
 30
0.0000
 11
21.4421
 21
4.4315
 31
0.0000
  0
ARC
  8
22
 10
21.2855
 20
4.4315
 30
0.0000
 40
0.1566
 50
0.0000
 51
90.0000
  0
LINE
  8
22
 10
21.2855
 20
4.5881
 30
0.0000
 11
20.9722
 21
4.5881
 31
0.0000
  0
ARC
  8
22
 10
20.9722
 20
4.4315
 30
0.0000
 40
0.1566
 50
90.0000
 51
180.0000
  0
LINE
  8
22
 10
20.8156
 20
4.4315
 30
0.0000
 11
20.8156
 21
4.1704
 31
0.0000
  0
LINE
  8
22
 10
20.8156
 20
5.3760
 30
0.0000
 11
20.8156
 21
5.1149
 31
0.0000
  0
ARC
  8
22
 10
20.9722
 20
5.1149
 30
0.0000
 40
0.1566
 50
180.0000
 51
270.0000
  0
LINE
  8
22
 10
20.9722
 20
4.9583
 30
0.0000
 11
21.2333
 21
4.9583
 31
0.0000
  0
ARC
  8
22
 10
21.2333
 20
5.1672
 30
0.0000
 40
0.2088
 50
270.0000
 51
90.0000
  0
LINE
  8
22
 10
21.2333
 20
5.3760
 30
0.0000
 11
21.1289
 21
5.3760
 31
0.0000
  0
LINE
  8
22
 10
21.1289
 20
5.3760
 30
0.0000
 11
21.1289
 21
4.9583
 31
0.0000
  0
LINE
  8
22
 10
21.4421
 20
5.6739
 30
0.0000
 11
21.4421
 21
5.9872
 31
0.0000
  0
LINE
  8
22
 10
21.7554
 20
5.7783
 30
0.0000
 11
20.9722
 21
5.7783
 31
0.0000
  0
ARC
  8
22
 10
20.9722
 20
5.9350
 30
0.0000
 40
0.1566
 50
180.0000
 51
270.0000
  0
LINE
  8
22
 10
20.8156
 20
5.9350
 30
0.0000
 11
20.8156
 21
5.9872
 31
0.0000
  0
LINE
  8
22
 10
20.8156
 20
6.7476
 30
0.0000
 11
20.8156
 21
6.4865
 31
0.0000
  0
ARC
  8
22
 10
20.9722
 20
6.4865
 30
0.0000
 40
0.1566
 50
180.0000
 51
270.0000
  0
LINE
  8
22
 10
20.9722
 20
6.3299
 30
0.0000
 11
21.2333
 21
6.3299
 31
0.0000
  0
ARC
  8
22
 10
21.2333
 20
6.5387
 30
0.0000
 40
0.2088
 50
270.0000
 51
90.0000
  0
LINE
  8
22
 10
21.2333
 20
6.7476
 30
0.0000
 11
21.1289
 21
6.7476
 31
0.0000
  0
LINE
  8
22
 10
21.1289
 20
6.7476
 30
0.0000
 11
21.1289
 21
6.3299
 31
0.0000
  0
LINE
  8
22
 10
20.8156
 20
7.1580
 30
0.0000
 11
21.4421
 21
7.1580
 31
0.0000
  0
LINE
  8
22
 10
21.4421
 20
7.1580
 30
0.0000
 11
21.4421
 21
7.4713
 31
0.0000
  0
LINE
  8
22
 10
21.4421
 20
7.4713
 30
0.0000
 11
21.3377
 21
7.4713
 31
0.0000
  0
LINE
  8
22
 10
21.0767
 20
8.1018
 30
0.0000
 11
21.1811
 21
7.8408
 31
0.0000
  0
ARC
  8
22
 10
21.3068
 20
7.8910
 30
0.0000
 40
0.1354
 50
201.8017
 51
0.8174
  0
ARC
  8
22
 10
20.8493
 20
7.8845
 30
0.0000
 40
0.5929
 50
0.8174
 51
24.2394
  0
ARC
  8
22
 10
20.9510
 20
8.0515
 30
0.0000
 40
0.1354
 50
21.8017
 51
180.8174
  0
ARC
  8
22
 10
21.7009
 20
8.0622
 30
0.0000
 40
0.8854
 50
180.8174
 51
199.7915
  0
LINE
  8
22
 10
20.8156
 20
8.9726
 30
0.0000
 11
20.8156
 21
8.7116
 31
0.0000
  0
ARC
  8
22
 10
20.9722
 20
8.7116
 30
0.0000
 40
0.1566
 50
180.0000
 51
270.0000
  0
LINE
  8
22
 10
20.9722
 20
8.5549
 30
0.0000
 11
21.2333
 21
8.5549
 31
0.0000
  0
ARC
  8
22
 10
21.2333
 20
8.7638
 30
0.0000
 40
0.2088
 50
270.0000
 51
90.0000
  0
LINE
  8
22
 10
21.2333
 20
8.9726
 30
0.0000
 11
21.1289
 21
8.9726
 31
0.0000
  0
LINE
  8
22
 10
21.1289
 20
8.9726
 30
0.0000
 11
21.1289
 21
8.5549
 31
0.0000
  0
LINE
  8
22
 10
20.8156
 20
9.3779
 30
0.0000
 11
21.4421
 21
9.3779
 31
0.0000
  0
LINE
  8
22
 10
21.4421
 20
9.3779
 30
0.0000
 11
21.4421
 21
9.6389
 31
0.0000
  0
ARC
  8
22
 10
21.2855
 20
9.6389
 30
0.0000
 40
0.1566
 50
0.0000
 51
90.0000
  0
LINE
  8
22
 10
21.2855
 20
9.7956
 30
0.0000
 11
20.8156
 21
9.7956
 31
0.0000
  0
LINE
  8
22
 10
21.5466
 20
10.2096
 30
0.0000
 11
21.7554
 21
10.4706
 31
0.0000
  0
LINE
  8
22
 10
21.7554
 20
10.4706
 30
0.0000
 11
20.8156
 21
10.4706
 31
0.0000
  0
LINE
  8
22
 10
20.8156
 20
10.2096
 30
0.0000
 11
20.8156
 21
10.7317
 31
0.0000
  0
LINE
  8
22
 10
21.2333
 20
11.6461
 30
0.0000
 11
21.2333
 21
11.3328
 31
0.0000
  0
ARC
  8
22
 10
21.4421
 20
11.3328
 30
0.0000
 40
0.2088
 50
180.0000
 51
270.0000
  0
LINE
  8
22
 10
21.4421
 20
11.1240
 30
0.0000
 11
21.4943
 21
11.1240
 31
0.0000
  0
ARC
  8
22
 10
21.4943
 20
11.3850
 30
0.0000
 40
0.2611
 50
270.0000
 51
90.0000
  0
LINE
  8
22
 10
21.4943
 20
11.6461
 30
0.0000
 11
21.2333
 21
11.6461
 31
0.0000
  0
ARC
  8
22
 10
21.2333
 20
11.2284
 30
0.0000
 40
0.4177
 50
90.0000
 51
180.0000
  0
LINE
  8
22
 10
21.3377
 20
12.0384
 30
0.0000
 11
21.3377
 21
12.3517
 31
0.0000
  0
ARC
  8
22
 10
21.1289
 20
12.3517
 30
0.0000
 40
0.2088
 50
0.0000
 51
90.0000
  0
LINE
  8
22
 10
21.1289
 20
12.5605
 30
0.0000
 11
21.0767
 21
12.5605
 31
0.0000
  0
ARC
  8
22
 10
21.0767
 20
12.2994
 30
0.0000
 40
0.2611
 50
90.0000
 51
270.0000
  0
LINE
  8
22
 10
21.0767
 20
12.0384
 30
0.0000
 11
21.3377
 21
12.0384
 31
0.0000
  0
ARC
  8
22
 10
21.3377
 20
12.4561
 30
0.0000
 40
0.4177
 50
270.0000
 51
359.9996
  0
LINE
  8
22
 10
20.8156
 20
12.9528
 30
0.0000
 11
20.8156
 21
13.2660
 31
0.0000
  0
ARC
  8
22
 10
21.0244
 20
13.2660
 30
0.0000
 40
0.2088
 50
90.0000
 51
180.0000
  0
LINE
  8
22
 10
21.0244
 20
13.4749
 30
0.0000
 11
21.1289
 21
13.4749
 31
0.0000
  0
ARC
  8
22
 10
21.1289
 20
13.2660
 30
0.0000
 40
0.2088
 50
0.0000
 51
90.0000
  0
LINE
  8
22
 10
21.3377
 20
13.2660
 30
0.0000
 11
21.3377
 21
12.9528
 31
0.0000
  0
LINE
  8
22
 10
21.3377
 20
12.9528
 30
0.0000
 11
21.7554
 21
12.9528
 31
0.0000
  0
LINE
  8
22
 10
21.7554
 20
12.9528
 30
0.0000
 11
21.7554
 21
13.4749
 31
0.0000
  0
LINE
  8
22
 10
16.4663
 20
11.9042
 30
0.0000
 11
16.4663
 21
10.7358
 31
0.0000
  0
LINE
  8
22
 10
16.4663
 20
10.7358
 30
0.0000
 11
15.9470
 21
10.7358
 31
0.0000
  0
LINE
  8
22
 10
15.4893
 20
11.5147
 30
0.0000
 11
15.4893
 21
10.9305
 31
0.0000
  0
ARC
  8
22
 10
15.2945
 20
10.9305
 30
0.0000
 40
0.1947
 50
270.0000
 51
0.0000
  0
LINE
  8
22
 10
15.2945
 20
10.7358
 30
0.0000
 11
14.9700
 21
10.7358
 31
0.0000
  0
LINE
  8
22
 10
14.9700
 20
10.7358
 30
0.0000
 11
14.9700
 21
11.5147
 31
0.0000
  0
LINE
  8
22
 10
14.3999
 20
10.7358
 30
0.0000
 11
14.3999
 21
11.5147
 31
0.0000
  0
LINE
  8
22
 10
14.3999
 20
11.5147
 30
0.0000
 11
13.8157
 21
11.5147
 31
0.0000
  0
ARC
  8
22
 10
13.8157
 20
11.3200
 30
0.0000
 40
0.1947
 50
90.0000
 51
180.0000
  0
LINE
  8
22
 10
13.6210
 20
11.3200
 30
0.0000
 11
13.6210
 21
10.7358
 31
0.0000
  0
LINE
  8
22
 10
14.0104
 20
10.7358
 30
0.0000
 11
14.0104
 21
11.5147
 31
0.0000
  0
LINE
  8
22
 10
13.0450
 20
11.9042
 30
0.0000
 11
13.0450
 21
10.7358
 31
0.0000
  0
LINE
  8
22
 10
13.0450
 20
10.7358
 30
0.0000
 11
12.7204
 21
10.7358
 31
0.0000
  0
ARC
  8
22
 10
12.7204
 20
10.9305
 30
0.0000
 40
0.1947
 50
180.0018
 51
270.0000
  0
LINE
  8
22
 10
12.5257
 20
10.9305
 30
0.0000
 11
12.5257
 21
11.3200
 31
0.0000
  0
ARC
  8
22
 10
12.7204
 20
11.3200
 30
0.0000
 40
0.1947
 50
89.9991
 51
180.0000
  0
LINE
  8
22
 10
12.7204
 20
11.5147
 30
0.0000
 11
13.0450
 21
11.5147
 31
0.0000
  0
LINE
  8
22
 10
11.5410
 20
10.7358
 30
0.0000
 11
11.8655
 21
10.7358
 31
0.0000
  0
ARC
  8
22
 10
11.8655
 20
10.9305
 30
0.0000
 40
0.1947
 50
270.0000
 51
0.0000
  0
LINE
  8
22
 10
12.0603
 20
10.9305
 30
0.0000
 11
12.0603
 21
11.2551
 31
0.0000
  0
ARC
  8
22
 10
11.8006
 20
11.2551
 30
0.0000
 40
0.2596
 50
0.0000
 51
180.0000
  0
LINE
  8
22
 10
11.5410
 20
11.2551
 30
0.0000
 11
11.5410
 21
11.1253
 31
0.0000
  0
LINE
  8
22
 10
11.5410
 20
11.1253
 30
0.0000
 11
12.0603
 21
11.1253
 31
0.0000
  0
LINE
  8
22
 10
11.0249
 20
10.7358
 30
0.0000
 11
11.0249
 21
11.5147
 31
0.0000
  0
LINE
  8
22
 10
11.0249
 20
11.5147
 30
0.0000
 11
10.6355
 21
11.5147
 31
0.0000
  0
LINE
  8
22
 10
10.6355
 20
11.5147
 30
0.0000
 11
10.6355
 21
11.3849
 31
0.0000
  0
LINE
  8
22
 10
9.7562
 20
10.7358
 30
0.0000
 11
10.0807
 21
10.7358
 31
0.0000
  0
ARC
  8
22
 10
10.0807
 20
10.9305
 30
0.0000
 40
0.1947
 50
270.0000
 51
0.0000
  0
LINE
  8
22
 10
10.2755
 20
10.9305
 30
0.0000
 11
10.2755
 21
11.3200
 31
0.0000
  0
ARC
  8
22
 10
10.0807
 20
11.3200
 30
0.0000
 40
0.1947
 50
0.0000
 51
90.0000
  0
LINE
  8
22
 10
10.0807
 20
11.5147
 30
0.0000
 11
9.7562
 21
11.5147
 31
0.0000
  0
LINE
  8
22
 10
9.7562
 20
11.5147
 30
0.0000
 11
9.7562
 21
10.5411
 31
0.0000
  0
ARC
  8
22
 10
9.9509
 20
10.5411
 30
0.0000
 40
0.1947
 50
180.0000
 51
270.0000
  0
LINE
  8
22
 10
9.9509
 20
10.3463
 30
0.0000
 11
10.2106
 21
10.3463
 31
0.0000
  0
ARC
  8
22
 10
14.7418
 20
9.0904
 30
0.0000
 40
0.2596
 50
180.0000
 51
270.0000
  0
ARC
  8
22
 10
14.7418
 20
9.3793
 30
0.0000
 40
0.5485
 50
269.9999
 51
315.2393
  0
ARC
  8
22
 10
14.8392
 20
9.7396
 30
0.0000
 40
0.2596
 50
0.0000
 51
90.0000
  0
ARC
  8
22
 10
14.8392
 20
9.5124
 30
0.0000
 40
0.4868
 50
90.0000
 51
126.8706
  0
ARC
  8
22
 10
14.8351
 20
9.7396
 30
0.0000
 40
0.2637
 50
300.5101
 51
359.9999
  0
ARC
  8
22
 10
14.7458
 20
9.0904
 30
0.0000
 40
0.2637
 50
120.5098
 51
180.0002
  0
LINE
  8
22
 10
14.6120
 20
9.3176
 30
0.0000
 11
14.9690
 21
9.5124
 31
0.0000
  0
LINE
  8
22
 10
14.0913
 20
9.9992
 30
0.0000
 11
13.7018
 21
8.8308
 31
0.0000
  0
LINE
  8
22
 10
13.7018
 20
8.8308
 30
0.0000
 11
13.3123
 21
9.9992
 31
0.0000
  0
LINE
  8
22
 10
12.8834
 20
8.8308
 30
0.0000
 11
12.4939
 21
8.8308
 31
0.0000
  0
ARC
  8
22
 10
12.4939
 20
9.0904
 30
0.0000
 40
0.2596
 50
180.0000
 51
270.0000
  0
LINE
  8
22
 10
12.2342
 20
9.0904
 30
0.0000
 11
12.2342
 21
9.2203
 31
0.0000
  0
ARC
  8
22
 10
12.4939
 20
9.2203
 30
0.0000
 40
0.2596
 50
90.0000
 51
180.0000
  0
LINE
  8
22
 10
12.4939
 20
9.4799
 30
0.0000
 11
12.8834
 21
9.4799
 31
0.0000
  0
LINE
  8
22
 10
12.8834
 20
9.4799
 30
0.0000
 11
12.8834
 21
9.9992
 31
0.0000
  0
LINE
  8
22
 10
12.8834
 20
9.9992
 30
0.0000
 11
12.2342
 21
9.9992
 31
0.0000
  0
ARC
  8
22
 10
10.7775
 20
9.4150
 30
0.0000
 40
0.9629
 50
359.9999
 51
25.9891
  0
ARC
  8
22
 10
11.4158
 20
9.7590
 30
0.0000
 40
0.2402
 50
18.9249
 51
90.0000
  0
ARC
  8
22
 10
11.4158
 20
9.7590
 30
0.0000
 40
0.2402
 50
90.0002
 51
161.0741
  0
ARC
  8
22
 10
12.0541
 20
9.4150
 30
0.0000
 40
0.9628
 50
154.0109
 51
180.0001
  0
ARC
  8
22
 10
10.7775
 20
9.4150
 30
0.0000
 40
0.9629
 50
334.0112
 51
360.0000
  0
ARC
  8
22
 10
11.4158
 20
9.0710
 30
0.0000
 40
0.2402
 50
270.0002
 51
341.0746
  0
ARC
  8
22
 10
12.0541
 20
9.4150
 30
0.0000
 40
0.9629
 50
180.0000
 51
205.9888
  0
ARC
  8
22
 10
11.4158
 20
9.0710
 30
0.0000
 40
0.2402
 50
198.9267
 51
270.0000
  0
LINE
  8
22
 10
11.6754
 20
9.0904
 30
0.0000
 11
11.1562
 21
9.7396
 31
0.0000
  0
LINE
  8
22
 10
26.7074
 20
29.7871
 30
0.0000
 11
26.7074
 21
29.3977
 31
0.0000
  0
LINE
  8
22
 10
26.7074
 20
29.3977
 30
0.0000
 11
26.4802
 21
29.1056
 31
0.0000
  0
LINE
  8
22
 10
26.9346
 20
29.1056
 30
0.0000
 11
26.7074
 21
29.3977
 31
0.0000
  0
LINE
  8
22
 10
26.7074
 20
29.3977
 30
0.0000
 11
26.3504
 21
29.5275
 31
0.0000
  0
LINE
  8
22
 10
26.7074
 20
29.3977
 30
0.0000
 11
27.0644
 21
29.5275
 31
0.0000
  0
ARC
  8
22
 10
25.4995
 20
29.2029
 30
0.0000
 40
0.2596
 50
180.0000
 51
270.0000
  0
ARC
  8
22
 10
25.4995
 20
29.4918
 30
0.0000
 40
0.5485
 50
269.9999
 51
315.2393
  0
ARC
  8
22
 10
25.5968
 20
29.8521
 30
0.0000
 40
0.2596
 50
0.0000
 51
90.0000
  0
ARC
  8
22
 10
25.5968
 20
29.6249
 30
0.0000
 40
0.4868
 50
90.0000
 51
126.8706
  0
ARC
  8
22
 10
25.5928
 20
29.8521
 30
0.0000
 40
0.2637
 50
300.5101
 51
359.9999
  0
ARC
  8
22
 10
25.5035
 20
29.2029
 30
0.0000
 40
0.2637
 50
120.5098
 51
180.0002
  0
LINE
  8
22
 10
25.3697
 20
29.4301
 30
0.0000
 11
25.7267
 21
29.6249
 31
0.0000
  0
LINE
  8
22
 10
24.7728
 20
29.3977
 30
0.0000
 11
23.9938
 21
29.3977
 31
0.0000
  0
LINE
  8
22
 10
23.5536
 20
30.1117
 30
0.0000
 11
23.1641
 21
28.9433
 31
0.0000
  0
LINE
  8
22
 10
23.1641
 20
28.9433
 30
0.0000
 11
22.7746
 21
30.1117
 31
0.0000
  0
LINE
  8
22
 10
22.3640
 20
28.9433
 30
0.0000
 11
22.3640
 21
29.7222
 31
0.0000
  0
LINE
  8
22
 10
22.3964
 20
30.0468
 30
0.0000
 11
22.3964
 21
30.1117
 31
0.0000
  0
LINE
  8
22
 10
22.3964
 20
30.1117
 30
0.0000
 11
22.3315
 21
30.1117
 31
0.0000
  0
LINE
  8
22
 10
22.3315
 20
30.1117
 30
0.0000
 11
22.3315
 21
30.0468
 31
0.0000
  0
LINE
  8
22
 10
22.3315
 20
30.0468
 30
0.0000
 11
22.3964
 21
30.0468
 31
0.0000
  0
LINE
  8
22
 10
21.3863
 20
30.1117
 30
0.0000
 11
21.3863
 21
28.9433
 31
0.0000
  0
LINE
  8
22
 10
21.3863
 20
28.9433
 30
0.0000
 11
21.7109
 21
28.9433
 31
0.0000
  0
ARC
  8
22
 10
21.7109
 20
29.1380
 30
0.0000
 40
0.1947
 50
270.0000
 51
0.0000
  0
LINE
  8
22
 10
21.9056
 20
29.1380
 30
0.0000
 11
21.9056
 21
29.5275
 31
0.0000
  0
ARC
  8
22
 10
21.7109
 20
29.5275
 30
0.0000
 40
0.1947
 50
0.0000
 51
90.0000
  0
LINE
  8
22
 10
21.7109
 20
29.7222
 30
0.0000
 11
21.3863
 21
29.7222
 31
0.0000
  0
LINE
  8
22
 10
20.3517
 20
28.9433
 30
0.0000
 11
20.6763
 21
28.9433
 31
0.0000
  0
ARC
  8
22
 10
20.6763
 20
29.1380
 30
0.0000
 40
0.1947
 50
270.0000
 51
0.0000
  0
LINE
  8
22
 10
20.8710
 20
29.1380
 30
0.0000
 11
20.8710
 21
29.4626
 31
0.0000
  0
ARC
  8
22
 10
20.6114
 20
29.4626
 30
0.0000
 40
0.2596
 50
0.0000
 51
180.0000
  0
LINE
  8
22
 10
20.3517
 20
29.4626
 30
0.0000
 11
20.3517
 21
29.3328
 31
0.0000
  0
LINE
  8
22
 10
20.3517
 20
29.3328
 30
0.0000
 11
20.8710
 21
29.3328
 31
0.0000
  0
LINE
  8
22
 10
19.8804
 20
29.2029
 30
0.0000
 11
19.8804
 21
29.4626
 31
0.0000
  0
ARC
  8
22
 10
19.6208
 20
29.4626
 30
0.0000
 40
0.2596
 50
0.0000
 51
180.0000
  0
LINE
  8
22
 10
19.3611
 20
29.4626
 30
0.0000
 11
19.3611
 21
29.2029
 31
0.0000
  0
ARC
  8
22
 10
19.6208
 20
29.2029
 30
0.0000
 40
0.2596
 50
180.0000
 51
0.0000
  0
LINE
  8
22
 10
18.2802
 20
29.2029
 30
0.0000
 11
18.2802
 21
29.4626
 31
0.0000
  0
ARC
  8
22
 10
18.0206
 20
29.4626
 30
0.0000
 40
0.2596
 50
0.0000
 51
180.0000
  0
LINE
  8
22
 10
17.7609
 20
29.4626
 30
0.0000
 11
17.7609
 21
29.2029
 31
0.0000
  0
ARC
  8
22
 10
18.0206
 20
29.2029
 30
0.0000
 40
0.2596
 50
180.0000
 51
0.0000
  0
LINE
  8
22
 10
17.2515
 20
28.9433
 30
0.0000
 11
17.2515
 21
29.7222
 31
0.0000
  0
LINE
  8
22
 10
17.2515
 20
29.7222
 30
0.0000
 11
16.9270
 21
29.7222
 31
0.0000
  0
ARC
  8
22
 10
16.9270
 20
29.5275
 30
0.0000
 40
0.1947
 50
90.0000
 51
179.9982
  0
LINE
  8
22
 10
16.7322
 20
29.5275
 30
0.0000
 11
16.7322
 21
28.9433
 31
0.0000
  0
LINE
  8
22
 10
16.2079
 20
30.1117
 30
0.0000
 11
16.2079
 21
29.1380
 31
0.0000
  0
ARC
  8
22
 10
16.0131
 20
29.1380
 30
0.0000
 40
0.1947
 50
270.0000
 51
0.0000
  0
LINE
  8
22
 10
15.6513
 20
28.5538
 30
0.0000
 11
15.5215
 21
28.5538
 31
0.0000
  0
LINE
  8
22
 10
15.5215
 20
28.5538
 30
0.0000
 11
15.1321
 21
29.7222
 31
0.0000
  0
LINE
  8
22
 10
15.6513
 20
29.7222
 30
0.0000
 11
15.3917
 21
28.9433
 31
0.0000
  0
LINE
  8
22
 10
26.2264
 20
27.4927
 30
0.0000
 11
26.5185
 21
27.4927
 31
0.0000
  0
ARC
  8
22
 10
26.5185
 20
27.2655
 30
0.0000
 40
0.2272
 50
270.0000
 51
90.0000
  0
LINE
  8
22
 10
26.5185
 20
27.0383
 30
0.0000
 11
26.2264
 21
27.0383
 31
0.0000
  0
LINE
  8
22
 10
26.2264
 20
27.0383
 30
0.0000
 11
26.2264
 21
27.6225
 31
0.0000
  0
ARC
  8
22
 10
26.4212
 20
27.6225
 30
0.0000
 40
0.1947
 50
89.9991
 51
180.0000
  0
LINE
  8
22
 10
26.4212
 20
27.8172
 30
0.0000
 11
26.6808
 21
27.8172
 31
0.0000
  0
LINE
  8
22
 10
25.6485
 20
27.0383
 30
0.0000
 11
25.6485
 21
28.0120
 31
0.0000
  0
ARC
  8
22
 10
25.4538
 20
28.0120
 30
0.0000
 40
0.1947
 50
0.0000
 51
90.0000
  0
LINE
  8
22
 10
25.4538
 20
28.2067
 30
0.0000
 11
25.3888
 21
28.2067
 31
0.0000
  0
LINE
  8
22
 10
25.7783
 20
27.8172
 30
0.0000
 11
25.3888
 21
27.8172
 31
0.0000
  0
LINE
  8
22
 10
25.1602
 20
27.8172
 30
0.0000
 11
24.7707
 21
27.8172
 31
0.0000
  0
LINE
  8
22
 10
25.0303
 20
28.2067
 30
0.0000
 11
25.0303
 21
27.2330
 31
0.0000
  0
ARC
  8
22
 10
24.8356
 20
27.2330
 30
0.0000
 40
0.1947
 50
270.0000
 51
0.0000
  0
LINE
  8
22
 10
24.8356
 20
27.0383
 30
0.0000
 11
24.7707
 21
27.0383
 31
0.0000
  0
LINE
  8
22
 10
23.8203
 20
27.0383
 30
0.0000
 11
24.1448
 21
27.0383
 31
0.0000
  0
ARC
  8
22
 10
24.1448
 20
27.2330
 30
0.0000
 40
0.1947
 50
270.0000
 51
0.0000
  0
LINE
  8
22
 10
24.3395
 20
27.2330
 30
0.0000
 11
24.3395
 21
27.5576
 31
0.0000
  0
ARC
  8
22
 10
24.0799
 20
27.5576
 30
0.0000
 40
0.2596
 50
0.0000
 51
180.0000
  0
LINE
  8
22
 10
23.8203
 20
27.5576
 30
0.0000
 11
23.8203
 21
27.4278
 31
0.0000
  0
LINE
  8
22
 10
23.8203
 20
27.4278
 30
0.0000
 11
24.3395
 21
27.4278
 31
0.0000
  0
LINE
  8
22
 10
23.3042
 20
27.0383
 30
0.0000
 11
23.3042
 21
27.8172
 31
0.0000
  0
LINE
  8
22
 10
23.3042
 20
27.8172
 30
0.0000
 11
22.9147
 21
27.8172
 31
0.0000
  0
LINE
  8
22
 10
22.9147
 20
27.8172
 30
0.0000
 11
22.9147
 21
27.6874
 31
0.0000
  0
LINE
  8
22
 10
22.0360
 20
27.8172
 30
0.0000
 11
21.6465
 21
27.8172
 31
0.0000
  0
LINE
  8
22
 10
21.9061
 20
28.2067
 30
0.0000
 11
21.9061
 21
27.2330
 31
0.0000
  0
ARC
  8
22
 10
21.7114
 20
27.2330
 30
0.0000
 40
0.1947
 50
270.0000
 51
0.0000
  0
LINE
  8
22
 10
21.7114
 20
27.0383
 30
0.0000
 11
21.6465
 21
27.0383
 31
0.0000
  0
LINE
  8
22
 10
21.1772
 20
27.0383
 30
0.0000
 11
21.1772
 21
28.2067
 31
0.0000
  0
LINE
  8
22
 10
21.1772
 20
27.8172
 30
0.0000
 11
20.8527
 21
27.8172
 31
0.0000
  0
ARC
  8
22
 10
20.8527
 20
27.6225
 30
0.0000
 40
0.1947
 50
90.0000
 51
179.9982
  0
LINE
  8
22
 10
20.6580
 20
27.6225
 30
0.0000
 11
20.6580
 21
27.0383
 31
0.0000
  0
LINE
  8
22
 10
19.6293
 20
27.0383
 30
0.0000
 11
19.9538
 21
27.0383
 31
0.0000
  0
ARC
  8
22
 10
19.9538
 20
27.2330
 30
0.0000
 40
0.1947
 50
270.0000
 51
0.0000
  0
LINE
  8
22
 10
20.1485
 20
27.2330
 30
0.0000
 11
20.1485
 21
27.5576
 31
0.0000
  0
ARC
  8
22
 10
19.8889
 20
27.5576
 30
0.0000
 40
0.2596
 50
0.0000
 51
180.0000
  0
LINE
  8
22
 10
19.6293
 20
27.5576
 30
0.0000
 11
19.6293
 21
27.4278
 31
0.0000
  0
LINE
  8
22
 10
19.6293
 20
27.4278
 30
0.0000
 11
20.1485
 21
27.4278
 31
0.0000
  0
LINE
  8
22
 10
18.4877
 20
27.0383
 30
0.0000
 11
18.4877
 21
27.8172
 31
0.0000
  0
LINE
  8
22
 10
18.4877
 20
27.8172
 30
0.0000
 11
17.9035
 21
27.8172
 31
0.0000
  0
ARC
  8
22
 10
17.9035
 20
27.6225
 30
0.0000
 40
0.1947
 50
90.0000
 51
180.0000
  0
LINE
  8
22
 10
17.7087
 20
27.6225
 30
0.0000
 11
17.7087
 21
27.0383
 31
0.0000
  0
LINE
  8
22
 10
18.0982
 20
27.0383
 30
0.0000
 11
18.0982
 21
27.8172
 31
0.0000
  0
LINE
  8
22
 10
17.1767
 20
27.2979
 30
0.0000
 11
17.1767
 21
27.5576
 31
0.0000
  0
ARC
  8
22
 10
16.9171
 20
27.5576
 30
0.0000
 40
0.2596
 50
0.0000
 51
180.0000
  0
LINE
  8
22
 10
16.6575
 20
27.5576
 30
0.0000
 11
16.6575
 21
27.2979
 31
0.0000
  0
ARC
  8
22
 10
16.9171
 20
27.2979
 30
0.0000
 40
0.2596
 50
180.0000
 51
0.0000
  0
LINE
  8
22
 10
15.6727
 20
28.2067
 30
0.0000
 11
15.6727
 21
27.0383
 31
0.0000
  0
LINE
  8
22
 10
15.6727
 20
27.0383
 30
0.0000
 11
15.9973
 21
27.0383
 31
0.0000
  0
ARC
  8
22
 10
15.9973
 20
27.2330
 30
0.0000
 40
0.1947
 50
270.0000
 51
0.0000
  0
LINE
  8
22
 10
16.1920
 20
27.2330
 30
0.0000
 11
16.1920
 21
27.6225
 31
0.0000
  0
ARC
  8
22
 10
15.9973
 20
27.6225
 30
0.0000
 40
0.1947
 50
0.0000
 51
90.0000
  0
LINE
  8
22
 10
15.9973
 20
27.8172
 30
0.0000
 11
15.6727
 21
27.8172
 31
0.0000
  0
LINE
  8
22
 10
15.1645
 20
27.4278
 30
0.0000
 11
15.1645
 21
28.2067
 31
0.0000
  0
LINE
  8
22
 10
15.1970
 20
27.0383
 30
0.0000
 11
15.1970
 21
27.1032
 31
0.0000
  0
LINE
  8
22
 10
15.1970
 20
27.1032
 30
0.0000
 11
15.1321
 21
27.1032
 31
0.0000
  0
LINE
  8
22
 10
15.1321
 20
27.1032
 30
0.0000
 11
15.1321
 21
27.0383
 31
0.0000
  0
LINE
  8
22
 10
15.1321
 20
27.0383
 30
0.0000
 11
15.1970
 21
27.0383
 31
0.0000
  0
LINE
  8
22
 10
20.6342
 20
24.9746
 30
0.0000
 11
20.8939
 21
24.9746
 31
0.0000
  0
ARC
  8
22
 10
20.8939
 20
25.2342
 30
0.0000
 40
0.2596
 50
270.0000
 51
0.0000
  0
LINE
  8
22
 10
21.1535
 20
25.2342
 30
0.0000
 11
21.1535
 21
25.8833
 31
0.0000
  0
ARC
  8
22
 10
20.8939
 20
25.8833
 30
0.0000
 40
0.2596
 50
0.0000
 51
90.0000
  0
LINE
  8
22
 10
20.8939
 20
26.1430
 30
0.0000
 11
20.6342
 21
26.1430
 31
0.0000
  0
LINE
  8
22
 10
20.2090
 20
25.2342
 30
0.0000
 11
20.2090
 21
25.4938
 31
0.0000
  0
ARC
  8
22
 10
19.9493
 20
25.4938
 30
0.0000
 40
0.2596
 50
0.0000
 51
180.0000
  0
LINE
  8
22
 10
19.6897
 20
25.4938
 30
0.0000
 11
19.6897
 21
25.2342
 31
0.0000
  0
ARC
  8
22
 10
19.9493
 20
25.2342
 30
0.0000
 40
0.2596
 50
180.0000
 51
0.0000
  0
LINE
  8
22
 10
19.2565
 20
25.7535
 30
0.0000
 11
18.9968
 21
24.9746
 31
0.0000
  0
LINE
  8
22
 10
18.9968
 20
24.9746
 30
0.0000
 11
18.7372
 21
25.7535
 31
0.0000
  0
LINE
  8
22
 10
17.7847
 20
24.9746
 30
0.0000
 11
18.1092
 21
24.9746
 31
0.0000
  0
ARC
  8
22
 10
18.1092
 20
25.1693
 30
0.0000
 40
0.1947
 50
270.0000
 51
0.0000
  0
LINE
  8
22
 10
18.3040
 20
25.1693
 30
0.0000
 11
18.3040
 21
25.4938
 31
0.0000
  0
ARC
  8
22
 10
18.0443
 20
25.4938
 30
0.0000
 40
0.2596
 50
0.0000
 51
180.0000
  0
LINE
  8
22
 10
17.7847
 20
25.4938
 30
0.0000
 11
17.7847
 21
25.3640
 31
0.0000
  0
LINE
  8
22
 10
17.7847
 20
25.3640
 30
0.0000
 11
18.3040
 21
25.3640
 31
0.0000
  0
LINE
  8
22
 10
17.2686
 20
24.9746
 30
0.0000
 11
17.2686
 21
25.7535
 31
0.0000
  0
LINE
  8
22
 10
17.2686
 20
25.7535
 30
0.0000
 11
16.8792
 21
25.7535
 31
0.0000
  0
LINE
  8
22
 10
16.8792
 20
25.7535
 30
0.0000
 11
16.8792
 21
25.6237
 31
0.0000
  0
LINE
  8
22
 10
15.8597
 20
26.1430
 30
0.0000
 11
15.8597
 21
24.9746
 31
0.0000
  0
LINE
  8
22
 10
15.8597
 20
24.9746
 30
0.0000
 11
15.5351
 21
24.9746
 31
0.0000
  0
ARC
  8
22
 10
15.5351
 20
25.1693
 30
0.0000
 40
0.1947
 50
180.0018
 51
270.0000
  0
LINE
  8
22
 10
15.3404
 20
25.1693
 30
0.0000
 11
15.3404
 21
25.5587
 31
0.0000
  0
ARC
  8
22
 10
15.5351
 20
25.5587
 30
0.0000
 40
0.1947
 50
89.9991
 51
180.0000
  0
LINE
  8
22
 10
15.5351
 20
25.7535
 30
0.0000
 11
15.8597
 21
25.7535
 31
0.0000
  0
LINE
  8
22
 10
14.8750
 20
25.2342
 30
0.0000
 11
14.8750
 21
25.4938
 31
0.0000
  0
ARC
  8
22
 10
14.6153
 20
25.4938
 30
0.0000
 40
0.2596
 50
0.0000
 51
180.0000
  0
LINE
  8
22
 10
14.3557
 20
25.4938
 30
0.0000
 11
14.3557
 21
25.2342
 31
0.0000
  0
ARC
  8
22
 10
14.6153
 20
25.2342
 30
0.0000
 40
0.2596
 50
180.0000
 51
0.0000
  0
LINE
  8
22
 10
13.9811
 20
25.7535
 30
0.0000
 11
13.5916
 21
25.7535
 31
0.0000
  0
LINE
  8
22
 10
13.8513
 20
26.1430
 30
0.0000
 11
13.8513
 21
25.1693
 31
0.0000
  0
ARC
  8
22
 10
13.6566
 20
25.1693
 30
0.0000
 40
0.1947
 50
270.0000
 51
0.0000
  0
LINE
  8
22
 10
13.6566
 20
24.9746
 30
0.0000
 11
13.5916
 21
24.9746
 31
0.0000
  0
LINE
  8
22
 10
13.2572
 20
25.7535
 30
0.0000
 11
12.8677
 21
25.7535
 31
0.0000
  0
LINE
  8
22
 10
13.1274
 20
26.1430
 30
0.0000
 11
13.1274
 21
25.1693
 31
0.0000
  0
ARC
  8
22
 10
12.9327
 20
25.1693
 30
0.0000
 40
0.1947
 50
270.0000
 51
0.0000
  0
LINE
  8
22
 10
12.9327
 20
24.9746
 30
0.0000
 11
12.8677
 21
24.9746
 31
0.0000
  0
LINE
  8
22
 10
12.4366
 20
25.2342
 30
0.0000
 11
12.4366
 21
25.4938
 31
0.0000
  0
ARC
  8
22
 10
12.1769
 20
25.4938
 30
0.0000
 40
0.2596
 50
0.0000
 51
180.0000
  0
LINE
  8
22
 10
11.9173
 20
25.4938
 30
0.0000
 11
11.9173
 21
25.2342
 31
0.0000
  0
ARC
  8
22
 10
12.1769
 20
25.2342
 30
0.0000
 40
0.2596
 50
180.0000
 51
0.0000
  0
LINE
  8
22
 10
11.3853
 20
24.9746
 30
0.0000
 11
11.3853
 21
25.7535
 31
0.0000
  0
LINE
  8
22
 10
11.3853
 20
25.7535
 30
0.0000
 11
10.8011
 21
25.7535
 31
0.0000
  0
ARC
  8
22
 10
10.8011
 20
25.5587
 30
0.0000
 40
0.1947
 50
90.0000
 51
180.0000
  0
LINE
  8
22
 10
10.6064
 20
25.5587
 30
0.0000
 11
10.6064
 21
24.9746
 31
0.0000
  0
LINE
  8
22
 10
10.9958
 20
24.9746
 30
0.0000
 11
10.9958
 21
25.7535
 31
0.0000
  0
LINE
  8
22
 10
9.0429
 20
25.2991
 30
0.0000
 11
9.3674
 21
25.4289
 31
0.0000
  0
ARC
  8
22
 10
9.3049
 20
25.5852
 30
0.0000
 40
0.1683
 50
291.8011
 51
90.8182
  0
ARC
  8
22
 10
9.3130
 20
25.0164
 30
0.0000
 40
0.7371
 50
90.8181
 51
114.2388
  0
ARC
  8
22
 10
9.1054
 20
25.1428
 30
0.0000
 40
0.1683
 50
111.8011
 51
270.8182
  0
ARC
  8
22
 10
9.0921
 20
26.0753
 30
0.0000
 40
1.1008
 50
270.8181
 51
289.7910
  0
LINE
  8
22
 10
8.4812
 20
24.9746
 30
0.0000
 11
8.4812
 21
25.7535
 31
0.0000
  0
LINE
  8
22
 10
8.5137
 20
26.0780
 30
0.0000
 11
8.5137
 21
26.1430
 31
0.0000
  0
LINE
  8
22
 10
8.5137
 20
26.1430
 30
0.0000
 11
8.4488
 21
26.1430
 31
0.0000
  0
LINE
  8
22
 10
8.4488
 20
26.1430
 30
0.0000
 11
8.4488
 21
26.0780
 31
0.0000
  0
LINE
  8
22
 10
8.4488
 20
26.0780
 30
0.0000
 11
8.5137
 21
26.0780
 31
0.0000
  0
LINE
  8
22
 10
7.5036
 20
26.1430
 30
0.0000
 11
7.5036
 21
24.9746
 31
0.0000
  0
LINE
  8
22
 10
7.5036
 20
24.9746
 30
0.0000
 11
7.8281
 21
24.9746
 31
0.0000
  0
ARC
  8
22
 10
7.8281
 20
25.1693
 30
0.0000
 40
0.1947
 50
270.0000
 51
0.0000
  0
LINE
  8
22
 10
8.0229
 20
25.1693
 30
0.0000
 11
8.0229
 21
25.5587
 31
0.0000
  0
ARC
  8
22
 10
7.8281
 20
25.5587
 30
0.0000
 40
0.1947
 50
0.0000
 51
90.0000
  0
LINE
  8
22
 10
7.8281
 20
25.7535
 30
0.0000
 11
7.5036
 21
25.7535
 31
0.0000
  0
LINE
  8
22
 10
6.4690
 20
24.9746
 30
0.0000
 11
6.7936
 21
24.9746
 31
0.0000
  0
ARC
  8
22
 10
6.7936
 20
25.1693
 30
0.0000
 40
0.1947
 50
270.0000
 51
0.0000
  0
LINE
  8
22
 10
6.9883
 20
25.1693
 30
0.0000
 11
6.9883
 21
25.4938
 31
0.0000
  0
ARC
  8
22
 10
6.7286
 20
25.4938
 30
0.0000
 40
0.2596
 50
0.0000
 51
180.0000
  0
LINE
  8
22
 10
6.4690
 20
25.4938
 30
0.0000
 11
6.4690
 21
25.3640
 31
0.0000
  0
LINE
  8
22
 10
6.4690
 20
25.3640
 30
0.0000
 11
6.9883
 21
25.3640
 31
0.0000
  0
LINE
  8
22
 10
22.5365
 20
23.8485
 30
0.0000
 11
22.1471
 21
23.8485
 31
0.0000
  0
LINE
  8
22
 10
22.4067
 20
24.2380
 30
0.0000
 11
22.4067
 21
23.2643
 31
0.0000
  0
ARC
  8
22
 10
22.2120
 20
23.2643
 30
0.0000
 40
0.1947
 50
270.0000
 51
0.0000
  0
LINE
  8
22
 10
22.2120
 20
23.0695
 30
0.0000
 11
22.1471
 21
23.0695
 31
0.0000
  0
LINE
  8
22
 10
21.7159
 20
23.3292
 30
0.0000
 11
21.7159
 21
23.5888
 31
0.0000
  0
ARC
  8
22
 10
21.4563
 20
23.5888
 30
0.0000
 40
0.2596
 50
0.0000
 51
180.0000
  0
LINE
  8
22
 10
21.1966
 20
23.5888
 30
0.0000
 11
21.1966
 21
23.3292
 31
0.0000
  0
ARC
  8
22
 10
21.4563
 20
23.3292
 30
0.0000
 40
0.2596
 50
180.0000
 51
0.0000
  0
LINE
  8
22
 10
20.0717
 20
22.6801
 30
0.0000
 11
20.0717
 21
23.8485
 31
0.0000
  0
LINE
  8
22
 10
20.0717
 20
23.8485
 30
0.0000
 11
19.7472
 21
23.8485
 31
0.0000
  0
ARC
  8
22
 10
19.7472
 20
23.6537
 30
0.0000
 40
0.1947
 50
90.0000
 51
179.9982
  0
LINE
  8
22
 10
19.5524
 20
23.6538
 30
0.0000
 11
19.5524
 21
23.2643
 31
0.0000
  0
ARC
  8
22
 10
19.7472
 20
23.2643
 30
0.0000
 40
0.1947
 50
180.0000
 51
270.0009
  0
LINE
  8
22
 10
19.7472
 20
23.0695
 30
0.0000
 11
20.0717
 21
23.0695
 31
0.0000
  0
LINE
  8
22
 10
19.0423
 20
23.0695
 30
0.0000
 11
19.0423
 21
23.8485
 31
0.0000
  0
LINE
  8
22
 10
19.0423
 20
23.8485
 30
0.0000
 11
18.6528
 21
23.8485
 31
0.0000
  0
LINE
  8
22
 10
18.6528
 20
23.8485
 30
0.0000
 11
18.6528
 21
23.7187
 31
0.0000
  0
LINE
  8
22
 10
17.7676
 20
23.0695
 30
0.0000
 11
18.0922
 21
23.0695
 31
0.0000
  0
ARC
  8
22
 10
18.0922
 20
23.2643
 30
0.0000
 40
0.1947
 50
270.0000
 51
0.0000
  0
LINE
  8
22
 10
18.2869
 20
23.2643
 30
0.0000
 11
18.2869
 21
23.5888
 31
0.0000
  0
ARC
  8
22
 10
18.0273
 20
23.5888
 30
0.0000
 40
0.2596
 50
0.0000
 51
180.0000
  0
LINE
  8
22
 10
17.7676
 20
23.5888
 30
0.0000
 11
17.7676
 21
23.4590
 31
0.0000
  0
LINE
  8
22
 10
17.7676
 20
23.4590
 30
0.0000
 11
18.2869
 21
23.4590
 31
0.0000
  0
LINE
  8
22
 10
17.3344
 20
23.8485
 30
0.0000
 11
17.0748
 21
23.0695
 31
0.0000
  0
LINE
  8
22
 10
17.0748
 20
23.0695
 30
0.0000
 11
16.8151
 21
23.8485
 31
0.0000
  0
LINE
  8
22
 10
15.8626
 20
23.0695
 30
0.0000
 11
16.1872
 21
23.0695
 31
0.0000
  0
ARC
  8
22
 10
16.1872
 20
23.2643
 30
0.0000
 40
0.1947
 50
270.0000
 51
0.0000
  0
LINE
  8
22
 10
16.3819
 20
23.2643
 30
0.0000
 11
16.3819
 21
23.5888
 31
0.0000
  0
ARC
  8
22
 10
16.1223
 20
23.5888
 30
0.0000
 40
0.2596
 50
0.0000
 51
180.0000
  0
LINE
  8
22
 10
15.8626
 20
23.5888
 30
0.0000
 11
15.8626
 21
23.4590
 31
0.0000
  0
LINE
  8
22
 10
15.8626
 20
23.4590
 30
0.0000
 11
16.3819
 21
23.4590
 31
0.0000
  0
LINE
  8
22
 10
15.3532
 20
23.0695
 30
0.0000
 11
15.3532
 21
23.8485
 31
0.0000
  0
LINE
  8
22
 10
15.3532
 20
23.8485
 30
0.0000
 11
15.0287
 21
23.8485
 31
0.0000
  0
ARC
  8
22
 10
15.0287
 20
23.6537
 30
0.0000
 40
0.1947
 50
90.0000
 51
179.9982
  0
LINE
  8
22
 10
14.8339
 20
23.6538
 30
0.0000
 11
14.8339
 21
23.0695
 31
0.0000
  0
LINE
  8
22
 10
14.4212
 20
23.8485
 30
0.0000
 11
14.0318
 21
23.8485
 31
0.0000
  0
LINE
  8
22
 10
14.2914
 20
24.2380
 30
0.0000
 11
14.2914
 21
23.2643
 31
0.0000
  0
ARC
  8
22
 10
14.0967
 20
23.2643
 30
0.0000
 40
0.1947
 50
270.0000
 51
0.0000
  0
LINE
  8
22
 10
14.0967
 20
23.0695
 30
0.0000
 11
14.0318
 21
23.0695
 31
0.0000
  0
LINE
  8
22
 10
12.5691
 20
23.3941
 30
0.0000
 11
12.8936
 21
23.5239
 31
0.0000
  0
ARC
  8
22
 10
12.8311
 20
23.6802
 30
0.0000
 40
0.1683
 50
291.8011
 51
90.8182
  0
ARC
  8
22
 10
12.8393
 20
23.1114
 30
0.0000
 40
0.7371
 50
90.8181
 51
114.2388
  0
ARC
  8
22
 10
12.6316
 20
23.2378
 30
0.0000
 40
0.1683
 50
111.8011
 51
270.8182
  0
ARC
  8
22
 10
12.6183
 20
24.1703
 30
0.0000
 40
1.1008
 50
270.8181
 51
289.7910
  0
LINE
  8
22
 10
11.5447
 20
23.0695
 30
0.0000
 11
11.8043
 21
23.0695
 31
0.0000
  0
ARC
  8
22
 10
11.8043
 20
23.2643
 30
0.0000
 40
0.1947
 50
270.0000
 51
0.0000
  0
LINE
  8
22
 10
11.9991
 20
23.2643
 30
0.0000
 11
11.9991
 21
23.6538
 31
0.0000
  0
ARC
  8
22
 10
11.8043
 20
23.6538
 30
0.0000
 40
0.1947
 50
0.0000
 51
90.0000
  0
LINE
  8
22
 10
11.8043
 20
23.8485
 30
0.0000
 11
11.5447
 21
23.8485
 31
0.0000
  0
LINE
  8
22
 10
11.0794
 20
23.0695
 30
0.0000
 11
11.0794
 21
23.8485
 31
0.0000
  0
LINE
  8
22
 10
11.0794
 20
23.8485
 30
0.0000
 11
10.6899
 21
23.8485
 31
0.0000
  0
LINE
  8
22
 10
10.6899
 20
23.8485
 30
0.0000
 11
10.6899
 21
23.7187
 31
0.0000
  0
LINE
  8
22
 10
9.8106
 20
23.5239
 30
0.0000
 11
10.1027
 21
23.5239
 31
0.0000
  0
ARC
  8
22
 10
10.1027
 20
23.2967
 30
0.0000
 40
0.2272
 50
270.0000
 51
90.0000
  0
LINE
  8
22
 10
10.1027
 20
23.0695
 30
0.0000
 11
9.8106
 21
23.0695
 31
0.0000
  0
LINE
  8
22
 10
9.8106
 20
23.0695
 30
0.0000
 11
9.8106
 21
23.6538
 31
0.0000
  0
ARC
  8
22
 10
10.0053
 20
23.6538
 30
0.0000
 40
0.1947
 50
89.9991
 51
180.0000
  0
LINE
  8
22
 10
10.0053
 20
23.8485
 30
0.0000
 11
10.2650
 21
23.8485
 31
0.0000
  0
LINE
  8
22
 10
9.3920
 20
23.8485
 30
0.0000
 11
9.0026
 21
23.8485
 31
0.0000
  0
LINE
  8
22
 10
9.2622
 20
24.2380
 30
0.0000
 11
9.2622
 21
23.2643
 31
0.0000
  0
ARC
  8
22
 10
9.0675
 20
23.2643
 30
0.0000
 40
0.1947
 50
270.0000
 51
0.0000
  0
LINE
  8
22
 10
9.0675
 20
23.0695
 30
0.0000
 11
9.0026
 21
23.0695
 31
0.0000
  0
LINE
  8
22
 10
8.1157
 20
23.0695
 30
0.0000
 11
8.3754
 21
23.0695
 31
0.0000
  0
ARC
  8
22
 10
8.3754
 20
23.2643
 30
0.0000
 40
0.1947
 50
270.0000
 51
0.0000
  0
LINE
  8
22
 10
8.5701
 20
23.2643
 30
0.0000
 11
8.5701
 21
23.6538
 31
0.0000
  0
ARC
  8
22
 10
8.3754
 20
23.6538
 30
0.0000
 40
0.1947
 50
0.0000
 51
90.0000
  0
LINE
  8
22
 10
8.3754
 20
23.8485
 30
0.0000
 11
8.1157
 21
23.8485
 31
0.0000
  0
LINE
  8
22
 10
7.6570
 20
23.0695
 30
0.0000
 11
7.6570
 21
24.2380
 31
0.0000
  0
LINE
  8
22
 10
7.6570
 20
23.8485
 30
0.0000
 11
7.3325
 21
23.8485
 31
0.0000
  0
ARC
  8
22
 10
7.3325
 20
23.6537
 30
0.0000
 40
0.1947
 50
90.0000
 51
179.9982
  0
LINE
  8
22
 10
7.1377
 20
23.6538
 30
0.0000
 11
7.1377
 21
23.0695
 31
0.0000
  0
LINE
  8
22
 10
6.1090
 20
23.0695
 30
0.0000
 11
6.4336
 21
23.0695
 31
0.0000
  0
ARC
  8
22
 10
6.4336
 20
23.2643
 30
0.0000
 40
0.1947
 50
270.0000
 51
0.0000
  0
LINE
  8
22
 10
6.6283
 20
23.2643
 30
0.0000
 11
6.6283
 21
23.5888
 31
0.0000
  0
ARC
  8
22
 10
6.3687
 20
23.5888
 30
0.0000
 40
0.2596
 50
0.0000
 51
180.0000
  0
LINE
  8
22
 10
6.1090
 20
23.5888
 30
0.0000
 11
6.1090
 21
23.4590
 31
0.0000
  0
LINE
  8
22
 10
6.1090
 20
23.4590
 30
0.0000
 11
6.6283
 21
23.4590
 31
0.0000
  0
LINE
  8
22
 10
5.2158
 20
23.3941
 30
0.0000
 11
5.5404
 21
23.5239
 31
0.0000
  0
ARC
  8
22
 10
5.4778
 20
23.6802
 30
0.0000
 40
0.1683
 50
291.8011
 51
90.8182
  0
ARC
  8
22
 10
5.4860
 20
23.1114
 30
0.0000
 40
0.7371
 50
90.8181
 51
114.2388
  0
ARC
  8
22
 10
5.2783
 20
23.2378
 30
0.0000
 40
0.1683
 50
111.8011
 51
270.8182
  0
ARC
  8
22
 10
5.2650
 20
24.1703
 30
0.0000
 40
1.1008
 50
270.8181
 51
289.7910
  0
ARC
  8
22
 10
13.0000
 20
14.2000
 30
0.0000
 40
1.1045
 50
185.1944
 51
354.8056
  0
LINE
  8
22
 10
18.7611
 20
8.2611
 30
0.0000
 11
18.5000
 21
8.4699
 31
0.0000
  0
LINE
  8
22
 10
18.5000
 20
8.4699
 30
0.0000
 11
18.5000
 21
7.5301
 31
0.0000
  0
LINE
  8
22
 10
18.7611
 20
7.5301
 30
0.0000
 11
18.2389
 21
7.5301
 31
0.0000
  0
ARC
  8
22
 10
12.9739
 20
2.8350
 30
0.0000
 40
0.2350
 50
90.0000
 51
180.0000
  0
ARC
  8
22
 10
12.9739
 20
2.7681
 30
0.0000
 40
0.3018
 50
17.9442
 51
90.0001
  0
ARC
  8
22
 10
12.9913
 20
2.8350
 30
0.0000
 40
0.2524
 50
180.0002
 51
226.3960
  0
LINE
  8
22
 10
12.8173
 20
2.6522
 30
0.0000
 11
13.2611
 21
2.1301
 31
0.0000
  0
LINE
  8
22
 10
13.2611
 20
2.1301
 30
0.0000
 11
12.7389
 21
2.1301
 31
0.0000
  0
LINE
  8
22
 10
7.9611
 20
7.5301
 30
0.0000
 11
7.7000
 21
7.5301
 31
0.0000
  0
ARC
  8
22
 10
7.7000
 20
7.7912
 30
0.0000
 40
0.2611
 50
90.0000
 51
270.0000
  0
LINE
  8
22
 10
7.9611
 20
8.4699
 30
0.0000
 11
7.6478
 21
8.4699
 31
0.0000
  0
ARC
  8
22
 10
7.6478
 20
8.2611
 30
0.0000
 40
0.2088
 50
90.0000
 51
270.0000
  0
LINE
  8
22
 10
7.6478
 20
8.0522
 30
0.0000
 11
7.8566
 21
8.0522
 31
0.0000
  0
LINE
  8
22
 10
16.7522
 20
4.5699
 30
0.0000
 11
16.9611
 21
3.8389
 31
0.0000
  0
LINE
  8
22
 10
16.9611
 20
3.8389
 30
0.0000
 11
16.4389
 21
3.8389
 31
0.0000
  0
LINE
  8
22
 10
16.5956
 20
4.0478
 30
0.0000
 11
16.5956
 21
3.6301
 31
0.0000
  0
LINE
  8
22
 10
9.4611
 20
3.6301
 30
0.0000
 11
9.1478
 21
3.6301
 31
0.0000
  0
ARC
  8
22
 10
9.1478
 20
3.8389
 30
0.0000
 40
0.2088
 50
180.0000
 51
270.0000
  0
LINE
  8
22
 10
8.9389
 20
3.8389
 30
0.0000
 11
8.9389
 21
3.9434
 31
0.0000
  0
ARC
  8
22
 10
9.1478
 20
3.9434
 30
0.0000
 40
0.2088
 50
90.0000
 51
180.0000
  0
LINE
  8
22
 10
9.1478
 20
4.1522
 30
0.0000
 11
9.4611
 21
4.1522
 31
0.0000
  0
LINE
  8
22
 10
9.4611
 20
4.1522
 30
0.0000
 11
9.4611
 21
4.5699
 31
0.0000
  0
LINE
  8
22
 10
9.4611
 20
4.5699
 30
0.0000
 11
8.9389
 21
4.5699
 31
0.0000
  0
CIRCLE
  8
22
 10
13.0000
 20
8.0000
 30
0.0000
 40
6.8000
  0
CIRCLE
  8
22
 10
13.0000
 20
8.0000
 30
0.0000
 40
6.2000
  0
CIRCLE
  8
52
 10
13.0000
 20
4.5000
 30
0.0000
 40
0.8000
  0
CIRCLE
  8
52
 10
16.5000
 20
8.0000
 30
0.0000
 40
0.8000
  0
CIRCLE
  8
52
 10
9.5000
 20
8.0000
 30
0.0000
 40
0.8000
  0
CIRCLE
  8
52
 10
15.4700
 20
5.5300
 30
0.0000
 40
0.8000
  0
CIRCLE
  8
52
 10
10.5300
 20
5.5300
 30
0.0000
 40
0.8000
  0
LINE
  8
48
 10
54.7688
 20
44.6088
 30
0.0000
 11
54.7688
 21
47.7838
 31
0.0000
  0
LINE
  8
48
 10
54.7688
 20
47.7838
 30
0.0000
 11
54.7688
 21
50.9588
 31
0.0000
  0
LINE
  8
48
 10
54.7688
 20
50.9588
 30
0.0000
 11
54.7688
 21
54.1337
 31
0.0000
  0
LINE
  8
48
 10
54.7688
 20
54.1337
 30
0.0000
 11
54.7688
 21
57.3088
 31
0.0000
  0
LINE
  8
48
 10
54.7688
 20
57.3088
 30
0.0000
 11
54.7688
 21
60.4838
 31
0.0000
  0
LINE
  8
48
 10
54.7688
 20
60.4838
 30
0.0000
 11
23.0188
 21
60.4838
 31
0.0000
  0
LINE
  8
48
 10
23.0188
 20
60.4838
 30
0.0000
 11
0.1588
 21
60.4838
 31
0.0000
  0
LINE
  8
48
 10
0.1588
 20
60.4838
 30
0.0000
 11
0.1588
 21
54.1337
 31
0.0000
  0
LINE
  8
48
 10
0.1588
 20
54.1337
 30
0.0000
 11
0.1588
 21
50.9588
 31
0.0000
  0
LINE
  8
48
 10
0.1588
 20
50.9588
 30
0.0000
 11
0.1588
 21
47.7838
 31
0.0000
  0
LINE
  8
48
 10
0.1588
 20
47.7838
 30
0.0000
 11
0.1588
 21
44.6088
 31
0.0000
  0
LINE
  8
48
 10
0.1588
 20
44.6088
 30
0.0000
 11
54.7688
 21
44.6088
 31
0.0000
  0
LINE
  8
48
 10
0.1588
 20
47.7838
 30
0.0000
 11
36.9888
 21
47.7838
 31
0.0000
  0
LINE
  8
48
 10
36.9888
 20
47.7838
 30
0.0000
 11
54.7688
 21
47.7838
 31
0.0000
  0
LINE
  8
48
 10
0.1588
 20
50.9588
 30
0.0000
 11
36.9888
 21
50.9588
 31
0.0000
  0
LINE
  8
48
 10
36.9888
 20
50.9588
 30
0.0000
 11
54.7688
 21
50.9588
 31
0.0000
  0
LINE
  8
48
 10
0.1588
 20
54.1337
 30
0.0000
 11
23.0188
 21
54.1337
 31
0.0000
  0
LINE
  8
48
 10
23.0188
 20
54.1337
 30
0.0000
 11
36.9888
 21
54.1337
 31
0.0000
  0
LINE
  8
48
 10
36.9888
 20
54.1337
 30
0.0000
 11
54.7688
 21
54.1337
 31
0.0000
  0
LINE
  8
48
 10
23.0188
 20
60.4838
 30
0.0000
 11
23.0188
 21
57.3088
 31
0.0000
  0
LINE
  8
48
 10
23.0188
 20
57.3088
 30
0.0000
 11
23.0188
 21
54.1337
 31
0.0000
  0
LINE
  8
48
 10
23.0188
 20
57.3088
 30
0.0000
 11
36.9888
 21
57.3088
 31
0.0000
  0
LINE
  8
48
 10
36.9888
 20
57.3088
 30
0.0000
 11
54.7688
 21
57.3088
 31
0.0000
  0
LINE
  8
48
 10
36.9888
 20
57.3088
 30
0.0000
 11
36.9888
 21
54.1337
 31
0.0000
  0
LINE
  8
48
 10
36.9888
 20
50.9588
 30
0.0000
 11
36.9888
 21
47.7838
 31
0.0000
  0
LINE
  8
22
 10
53.0924
 20
45.5189
 30
0.0000
 11
53.0924
 21
46.8651
 31
0.0000
  0
LINE
  8
22
 10
53.0924
 20
46.8651
 30
0.0000
 11
52.7184
 21
46.8651
 31
0.0000
  0
ARC
  8
22
 10
52.7184
 20
46.6407
 30
0.0000
 40
0.2244
 50
90.0000
 51
179.9992
  0
LINE
  8
22
 10
52.4940
 20
46.6408
 30
0.0000
 11
52.4940
 21
46.1920
 31
0.0000
  0
ARC
  8
22
 10
52.7184
 20
46.1920
 30
0.0000
 40
0.2244
 50
180.0000
 51
270.0000
  0
LINE
  8
22
 10
52.7184
 20
45.9676
 30
0.0000
 11
53.0924
 21
45.9676
 31
0.0000
  0
LINE
  8
22
 10
51.9027
 20
47.3139
 30
0.0000
 11
51.9027
 21
46.1920
 31
0.0000
  0
ARC
  8
22
 10
51.6784
 20
46.1920
 30
0.0000
 40
0.2244
 50
270.0008
 51
0.0000
  0
LINE
  8
22
 10
50.5948
 20
46.4912
 30
0.0000
 11
50.9314
 21
46.4912
 31
0.0000
  0
ARC
  8
22
 10
50.9314
 20
46.2294
 30
0.0000
 40
0.2618
 50
270.0000
 51
90.0000
  0
LINE
  8
22
 10
50.9314
 20
45.9676
 30
0.0000
 11
50.5948
 21
45.9676
 31
0.0000
  0
LINE
  8
22
 10
50.5948
 20
45.9676
 30
0.0000
 11
50.5948
 21
46.6408
 31
0.0000
  0
ARC
  8
22
 10
50.8192
 20
46.6408
 30
0.0000
 40
0.2244
 50
89.9992
 51
180.0000
  0
LINE
  8
22
 10
50.8192
 20
46.8651
 30
0.0000
 11
51.1184
 21
46.8651
 31
0.0000
  0
LINE
  8
22
 10
49.4271
 20
45.9676
 30
0.0000
 11
49.7263
 21
45.9676
 31
0.0000
  0
ARC
  8
22
 10
49.7263
 20
46.1920
 30
0.0000
 40
0.2244
 50
270.0000
 51
0.0008
  0
LINE
  8
22
 10
49.9506
 20
46.1920
 30
0.0000
 11
49.9506
 21
46.6408
 31
0.0000
  0
ARC
  8
22
 10
49.7263
 20
46.6408
 30
0.0000
 40
0.2244
 50
0.0000
 51
90.0000
  0
LINE
  8
22
 10
49.7263
 20
46.8651
 30
0.0000
 11
49.4271
 21
46.8651
 31
0.0000
  0
LINE
  8
22
 10
48.3048
 20
45.9676
 30
0.0000
 11
48.6788
 21
45.9676
 31
0.0000
  0
ARC
  8
22
 10
48.6788
 20
46.1920
 30
0.0000
 40
0.2244
 50
270.0000
 51
0.0008
  0
LINE
  8
22
 10
48.9031
 20
46.1920
 30
0.0000
 11
48.9031
 21
46.5660
 31
0.0000
  0
ARC
  8
22
 10
48.6040
 20
46.5660
 30
0.0000
 40
0.2992
 50
0.0000
 51
180.0000
  0
LINE
  8
22
 10
48.3048
 20
46.5660
 30
0.0000
 11
48.3048
 21
46.4164
 31
0.0000
  0
LINE
  8
22
 10
48.3048
 20
46.4164
 30
0.0000
 11
48.9031
 21
46.4164
 31
0.0000
  0
LINE
  8
22
 10
47.6382
 20
45.9676
 30
0.0000
 11
47.6382
 21
46.8651
 31
0.0000
  0
LINE
  8
22
 10
47.6382
 20
46.8651
 30
0.0000
 11
46.9651
 21
46.8651
 31
0.0000
  0
ARC
  8
22
 10
46.9651
 20
46.6407
 30
0.0000
 40
0.2244
 50
90.0000
 51
179.9992
  0
LINE
  8
22
 10
46.7408
 20
46.6408
 30
0.0000
 11
46.7408
 21
45.9676
 31
0.0000
  0
LINE
  8
22
 10
47.1895
 20
45.9676
 30
0.0000
 11
47.1895
 21
46.8651
 31
0.0000
  0
LINE
  8
22
 10
45.4759
 20
45.9676
 30
0.0000
 11
45.8498
 21
45.9676
 31
0.0000
  0
ARC
  8
22
 10
45.8498
 20
46.1920
 30
0.0000
 40
0.2244
 50
270.0000
 51
0.0008
  0
LINE
  8
22
 10
46.0742
 20
46.1920
 30
0.0000
 11
46.0742
 21
46.5660
 31
0.0000
  0
ARC
  8
22
 10
45.7750
 20
46.5660
 30
0.0000
 40
0.2992
 50
0.0000
 51
180.0000
  0
LINE
  8
22
 10
45.4759
 20
46.5660
 30
0.0000
 11
45.4759
 21
46.4164
 31
0.0000
  0
LINE
  8
22
 10
45.4759
 20
46.4164
 30
0.0000
 11
46.0742
 21
46.4164
 31
0.0000
  0
LINE
  8
22
 10
44.8422
 20
45.9676
 30
0.0000
 11
44.8422
 21
46.8651
 31
0.0000
  0
LINE
  8
22
 10
44.8422
 20
46.8651
 30
0.0000
 11
44.4683
 21
46.8651
 31
0.0000
  0
ARC
  8
22
 10
44.4683
 20
46.6407
 30
0.0000
 40
0.2244
 50
90.0000
 51
179.9992
  0
LINE
  8
22
 10
44.2439
 20
46.6408
 30
0.0000
 11
44.2439
 21
45.9676
 31
0.0000
  0
LINE
  8
22
 10
43.7315
 20
46.8651
 30
0.0000
 11
43.2827
 21
46.8651
 31
0.0000
  0
LINE
  8
22
 10
43.5819
 20
47.3139
 30
0.0000
 11
43.5819
 21
46.1920
 31
0.0000
  0
ARC
  8
22
 10
43.3575
 20
46.1920
 30
0.0000
 40
0.2244
 50
269.9992
 51
360.0000
  0
LINE
  8
22
 10
43.3575
 20
45.9676
 30
0.0000
 11
43.2827
 21
45.9676
 31
0.0000
  0
LINE
  8
22
 10
41.5271
 20
46.3416
 30
0.0000
 11
41.9011
 21
46.4912
 31
0.0000
  0
ARC
  8
22
 10
41.8291
 20
46.6712
 30
0.0000
 40
0.1939
 50
291.8014
 51
90.8190
  0
ARC
  8
22
 10
41.8384
 20
46.0159
 30
0.0000
 40
0.8493
 50
90.8190
 51
114.2391
  0
ARC
  8
22
 10
41.5991
 20
46.1615
 30
0.0000
 40
0.1939
 50
111.8014
 51
270.8190
  0
ARC
  8
22
 10
41.5838
 20
47.2360
 30
0.0000
 40
1.2684
 50
270.8190
 51
289.7904
  0
LINE
  8
22
 10
40.8269
 20
46.2668
 30
0.0000
 11
40.8269
 21
46.5660
 31
0.0000
  0
ARC
  8
22
 10
40.5278
 20
46.5660
 30
0.0000
 40
0.2992
 50
0.0000
 51
180.0000
  0
LINE
  8
22
 10
40.2286
 20
46.5660
 30
0.0000
 11
40.2286
 21
46.2668
 31
0.0000
  0
ARC
  8
22
 10
40.5278
 20
46.2668
 30
0.0000
 40
0.2992
 50
180.0000
 51
0.0000
  0
LINE
  8
22
 10
39.6287
 20
47.3139
 30
0.0000
 11
39.6287
 21
46.1920
 31
0.0000
  0
ARC
  8
22
 10
39.4043
 20
46.1920
 30
0.0000
 40
0.2244
 50
270.0008
 51
0.0000
  0
LINE
  8
22
 10
38.3208
 20
47.3139
 30
0.0000
 11
38.3208
 21
45.9676
 31
0.0000
  0
LINE
  8
22
 10
38.3208
 20
45.9676
 30
0.0000
 11
38.6947
 21
45.9676
 31
0.0000
  0
ARC
  8
22
 10
38.6947
 20
46.1920
 30
0.0000
 40
0.2244
 50
270.0000
 51
0.0008
  0
LINE
  8
22
 10
38.9191
 20
46.1920
 30
0.0000
 11
38.9191
 21
46.6408
 31
0.0000
  0
ARC
  8
22
 10
38.6947
 20
46.6408
 30
0.0000
 40
0.2244
 50
0.0000
 51
90.0000
  0
LINE
  8
22
 10
38.6947
 20
46.8651
 30
0.0000
 11
38.3208
 21
46.8651
 31
0.0000
  0
LINE
  8
22
 10
37.0802
 20
45.9676
 30
0.0000
 11
37.4542
 21
45.9676
 31
0.0000
  0
ARC
  8
22
 10
37.4542
 20
46.1920
 30
0.0000
 40
0.2244
 50
270.0000
 51
0.0008
  0
LINE
  8
22
 10
37.6785
 20
46.1920
 30
0.0000
 11
37.6785
 21
46.5660
 31
0.0000
  0
ARC
  8
22
 10
37.3794
 20
46.5660
 30
0.0000
 40
0.2992
 50
0.0000
 51
180.0000
  0
LINE
  8
22
 10
37.0802
 20
46.5660
 30
0.0000
 11
37.0802
 21
46.4164
 31
0.0000
  0
LINE
  8
22
 10
37.0802
 20
46.4164
 30
0.0000
 11
37.6785
 21
46.4164
 31
0.0000
  0
LINE
  8
22
 10
36.4369
 20
45.9676
 30
0.0000
 11
36.4369
 21
46.8651
 31
0.0000
  0
LINE
  8
22
 10
36.4369
 20
46.8651
 30
0.0000
 11
35.9881
 21
46.8651
 31
0.0000
  0
LINE
  8
22
 10
35.9881
 20
46.8651
 30
0.0000
 11
35.9881
 21
46.7155
 31
0.0000
  0
LINE
  8
22
 10
34.3178
 20
46.3416
 30
0.0000
 11
34.6918
 21
46.4912
 31
0.0000
  0
ARC
  8
22
 10
34.6198
 20
46.6712
 30
0.0000
 40
0.1939
 50
291.8014
 51
90.8190
  0
ARC
  8
22
 10
34.6291
 20
46.0159
 30
0.0000
 40
0.8493
 50
90.8190
 51
114.2391
  0
ARC
  8
22
 10
34.3899
 20
46.1615
 30
0.0000
 40
0.1939
 50
111.8014
 51
270.8190
  0
ARC
  8
22
 10
34.3745
 20
47.2360
 30
0.0000
 40
1.2684
 50
270.8190
 51
289.7904
  0
LINE
  8
22
 10
33.6379
 20
45.9676
 30
0.0000
 11
33.6379
 21
46.8651
 31
0.0000
  0
LINE
  8
22
 10
33.6753
 20
47.2391
 30
0.0000
 11
33.6753
 21
47.3139
 31
0.0000
  0
LINE
  8
22
 10
33.6753
 20
47.3139
 30
0.0000
 11
33.6005
 21
47.3139
 31
0.0000
  0
LINE
  8
22
 10
33.6005
 20
47.3139
 30
0.0000
 11
33.6005
 21
47.2391
 31
0.0000
  0
LINE
  8
22
 10
33.6005
 20
47.2391
 30
0.0000
 11
33.6753
 21
47.2391
 31
0.0000
  0
LINE
  8
22
 10
32.4804
 20
47.3139
 30
0.0000
 11
32.4804
 21
45.9676
 31
0.0000
  0
LINE
  8
22
 10
32.4804
 20
45.9676
 30
0.0000
 11
32.8543
 21
45.9676
 31
0.0000
  0
ARC
  8
22
 10
32.8543
 20
46.1920
 30
0.0000
 40
0.2244
 50
270.0000
 51
0.0008
  0
LINE
  8
22
 10
33.0787
 20
46.1920
 30
0.0000
 11
33.0787
 21
46.6408
 31
0.0000
  0
ARC
  8
22
 10
32.8543
 20
46.6408
 30
0.0000
 40
0.2244
 50
0.0000
 51
90.0000
  0
LINE
  8
22
 10
32.8543
 20
46.8651
 30
0.0000
 11
32.4804
 21
46.8651
 31
0.0000
  0
LINE
  8
22
 10
31.2398
 20
45.9676
 30
0.0000
 11
31.6138
 21
45.9676
 31
0.0000
  0
ARC
  8
22
 10
31.6138
 20
46.1920
 30
0.0000
 40
0.2244
 50
270.0000
 51
0.0008
  0
LINE
  8
22
 10
31.8381
 20
46.1920
 30
0.0000
 11
31.8381
 21
46.5660
 31
0.0000
  0
ARC
  8
22
 10
31.5390
 20
46.5660
 30
0.0000
 40
0.2992
 50
0.0000
 51
180.0000
  0
LINE
  8
22
 10
31.2398
 20
46.5660
 30
0.0000
 11
31.2398
 21
46.4164
 31
0.0000
  0
LINE
  8
22
 10
31.2398
 20
46.4164
 30
0.0000
 11
31.8381
 21
46.4164
 31
0.0000
  0
LINE
  8
48
 10
24.3904
 20
58.0454
 30
0.0000
 11
24.3904
 21
59.5186
 31
0.0000
  0
LINE
  8
48
 10
24.3904
 20
59.5186
 30
0.0000
 11
24.7996
 21
59.5186
 31
0.0000
  0
ARC
  8
48
 10
24.7996
 20
59.1093
 30
0.0000
 40
0.4092
 50
359.9996
 51
90.0000
  0
LINE
  8
48
 10
25.2088
 20
59.1093
 30
0.0000
 11
25.2088
 21
58.4546
 31
0.0000
  0
ARC
  8
48
 10
24.7996
 20
58.4546
 30
0.0000
 40
0.4092
 50
270.0004
 51
360.0000
  0
LINE
  8
48
 10
24.7996
 20
58.0454
 30
0.0000
 11
24.3904
 21
58.0454
 31
0.0000
  0
LINE
  8
48
 10
25.9092
 20
58.3727
 30
0.0000
 11
25.9092
 21
58.7001
 31
0.0000
  0
ARC
  8
48
 10
26.2366
 20
58.7001
 30
0.0000
 40
0.3274
 50
0.0000
 51
180.0000
  0
LINE
  8
48
 10
26.5640
 20
58.7001
 30
0.0000
 11
26.5640
 21
58.3727
 31
0.0000
  0
ARC
  8
48
 10
26.2366
 20
58.3727
 30
0.0000
 40
0.3274
 50
180.0000
 51
0.0000
  0
LINE
  8
48
 10
27.7726
 20
58.0454
 30
0.0000
 11
27.4452
 21
58.0454
 31
0.0000
  0
ARC
  8
48
 10
27.4452
 20
58.2909
 30
0.0000
 40
0.2455
 50
180.0000
 51
270.0000
  0
LINE
  8
48
 10
27.1997
 20
58.2909
 30
0.0000
 11
27.1997
 21
58.7820
 31
0.0000
  0
ARC
  8
48
 10
27.4452
 20
58.7820
 30
0.0000
 40
0.2455
 50
90.0000
 51
180.0000
  0
LINE
  8
48
 10
27.4452
 20
59.0275
 30
0.0000
 11
27.7726
 21
59.0275
 31
0.0000
  0
LINE
  8
48
 10
28.2769
 20
58.0454
 30
0.0000
 11
28.2769
 21
58.1272
 31
0.0000
  0
LINE
  8
48
 10
28.2769
 20
58.1272
 30
0.0000
 11
28.3587
 21
58.1272
 31
0.0000
  0
LINE
  8
48
 10
28.3587
 20
58.1272
 30
0.0000
 11
28.3587
 21
58.0454
 31
0.0000
  0
LINE
  8
48
 10
28.3587
 20
58.0454
 30
0.0000
 11
28.2769
 21
58.0454
 31
0.0000
  0
LINE
  8
48
 10
28.9664
 20
58.6183
 30
0.0000
 11
29.9486
 21
58.6183
 31
0.0000
  0
LINE
  8
48
 10
30.6835
 20
58.0454
 30
0.0000
 11
30.6835
 21
59.5186
 31
0.0000
  0
LINE
  8
48
 10
30.6835
 20
59.5186
 30
0.0000
 11
31.5020
 21
58.0454
 31
0.0000
  0
LINE
  8
48
 10
31.5020
 20
58.0454
 30
0.0000
 11
31.5020
 21
59.5186
 31
0.0000
  0
LINE
  8
48
 10
32.2024
 20
58.3727
 30
0.0000
 11
32.2024
 21
58.7001
 31
0.0000
  0
ARC
  8
48
 10
32.5298
 20
58.7001
 30
0.0000
 40
0.3274
 50
0.0000
 51
180.0000
  0
LINE
  8
48
 10
32.8571
 20
58.7001
 30
0.0000
 11
32.8571
 21
58.3727
 31
0.0000
  0
ARC
  8
48
 10
32.5298
 20
58.3727
 30
0.0000
 40
0.3274
 50
180.0000
 51
0.0000
  0
LINE
  8
48
 10
33.4303
 20
58.0454
 30
0.0000
 11
33.4303
 21
58.1272
 31
0.0000
  0
LINE
  8
48
 10
33.4303
 20
58.1272
 30
0.0000
 11
33.5122
 21
58.1272
 31
0.0000
  0
LINE
  8
48
 10
33.5122
 20
58.1272
 30
0.0000
 11
33.5122
 21
58.0454
 31
0.0000
  0
LINE
  8
48
 10
33.5122
 20
58.0454
 30
0.0000
 11
33.4303
 21
58.0454
 31
0.0000
  0
LINE
  8
48
 10
34.0745
 20
58.1681
 30
0.0000
 11
34.0745
 21
58.2500
 31
0.0000
  0
LINE
  8
48
 10
34.0745
 20
58.2500
 30
0.0000
 11
34.1564
 21
58.2500
 31
0.0000
  0
LINE
  8
48
 10
34.1564
 20
58.2500
 30
0.0000
 11
34.1564
 21
58.1681
 31
0.0000
  0
LINE
  8
48
 10
34.1564
 20
58.1681
 30
0.0000
 11
34.0745
 21
58.1681
 31
0.0000
  0
LINE
  8
48
 10
34.0745
 20
58.8229
 30
0.0000
 11
34.0745
 21
58.9047
 31
0.0000
  0
LINE
  8
48
 10
34.0745
 20
58.9047
 30
0.0000
 11
34.1564
 21
58.9047
 31
0.0000
  0
LINE
  8
48
 10
34.1564
 20
58.9047
 30
0.0000
 11
34.1564
 21
58.8229
 31
0.0000
  0
LINE
  8
48
 10
34.1564
 20
58.8229
 30
0.0000
 11
34.0745
 21
58.8229
 31
0.0000
  0
LINE
  8
48
 10
38.3604
 20
48.5204
 30
0.0000
 11
38.3604
 21
49.9935
 31
0.0000
  0
LINE
  8
48
 10
38.3604
 20
49.9935
 30
0.0000
 11
38.7696
 21
49.9935
 31
0.0000
  0
ARC
  8
48
 10
38.7696
 20
49.5843
 30
0.0000
 40
0.4092
 50
270.0000
 51
90.0000
  0
LINE
  8
48
 10
38.7696
 20
49.1751
 30
0.0000
 11
38.3604
 21
49.1751
 31
0.0000
  0
LINE
  8
48
 10
39.1788
 20
48.5204
 30
0.0000
 11
38.8514
 21
49.1751
 31
0.0000
  0
LINE
  8
48
 10
40.4731
 20
48.5204
 30
0.0000
 11
40.0639
 21
48.5204
 31
0.0000
  0
ARC
  8
48
 10
40.0639
 20
48.7659
 30
0.0000
 40
0.2455
 50
180.0000
 51
270.0000
  0
LINE
  8
48
 10
39.8183
 20
48.7659
 30
0.0000
 11
39.8183
 21
49.1751
 31
0.0000
  0
ARC
  8
48
 10
40.1457
 20
49.1751
 30
0.0000
 40
0.3274
 50
0.0000
 51
180.0000
  0
LINE
  8
48
 10
40.4731
 20
49.1751
 30
0.0000
 11
40.4731
 21
49.0114
 31
0.0000
  0
LINE
  8
48
 10
40.4731
 20
49.0114
 30
0.0000
 11
39.8183
 21
49.0114
 31
0.0000
  0
LINE
  8
48
 10
41.0572
 20
49.5025
 30
0.0000
 11
41.3845
 21
48.5204
 31
0.0000
  0
LINE
  8
48
 10
41.3845
 20
48.5204
 30
0.0000
 11
41.7119
 21
49.5025
 31
0.0000
  0
LINE
  8
48
 10
42.2356
 20
48.5204
 30
0.0000
 11
42.2356
 21
48.6022
 31
0.0000
  0
LINE
  8
48
 10
42.2356
 20
48.6022
 30
0.0000
 11
42.3174
 21
48.6022
 31
0.0000
  0
LINE
  8
48
 10
42.3174
 20
48.6022
 30
0.0000
 11
42.3174
 21
48.5204
 31
0.0000
  0
LINE
  8
48
 10
42.3174
 20
48.5204
 30
0.0000
 11
42.2356
 21
48.5204
 31
0.0000
  0
LINE
  8
48
 10
42.8797
 20
48.6431
 30
0.0000
 11
42.8797
 21
48.7250
 31
0.0000
  0
LINE
  8
48
 10
42.8797
 20
48.7250
 30
0.0000
 11
42.9616
 21
48.7250
 31
0.0000
  0
LINE
  8
48
 10
42.9616
 20
48.7250
 30
0.0000
 11
42.9616
 21
48.6431
 31
0.0000
  0
LINE
  8
48
 10
42.9616
 20
48.6431
 30
0.0000
 11
42.8797
 21
48.6431
 31
0.0000
  0
LINE
  8
48
 10
42.8797
 20
49.2979
 30
0.0000
 11
42.8797
 21
49.3797
 31
0.0000
  0
LINE
  8
48
 10
42.8797
 20
49.3797
 30
0.0000
 11
42.9616
 21
49.3797
 31
0.0000
  0
LINE
  8
48
 10
42.9616
 20
49.3797
 30
0.0000
 11
42.9616
 21
49.2979
 31
0.0000
  0
LINE
  8
48
 10
42.9616
 20
49.2979
 30
0.0000
 11
42.8797
 21
49.2979
 31
0.0000
  0
LINE
  8
48
 10
39.0151
 20
54.8704
 30
0.0000
 11
38.6877
 21
54.8704
 31
0.0000
  0
ARC
  8
48
 10
38.6877
 20
55.1977
 30
0.0000
 40
0.3274
 50
180.0000
 51
270.0000
  0
LINE
  8
48
 10
38.3604
 20
55.1977
 30
0.0000
 11
38.3604
 21
56.0162
 31
0.0000
  0
ARC
  8
48
 10
38.6877
 20
56.0162
 30
0.0000
 40
0.3274
 50
90.0005
 51
180.0000
  0
LINE
  8
48
 10
38.6877
 20
56.3436
 30
0.0000
 11
39.0151
 21
56.3436
 31
0.0000
  0
LINE
  8
48
 10
39.6364
 20
55.8525
 30
0.0000
 11
39.6364
 21
55.1159
 31
0.0000
  0
ARC
  8
48
 10
39.8820
 20
55.1159
 30
0.0000
 40
0.2455
 50
180.0000
 51
270.0000
  0
LINE
  8
48
 10
39.8820
 20
54.8704
 30
0.0000
 11
40.2912
 21
54.8704
 31
0.0000
  0
LINE
  8
48
 10
40.2912
 20
54.8704
 30
0.0000
 11
40.2912
 21
55.8525
 31
0.0000
  0
LINE
  8
48
 10
41.0089
 20
55.4433
 30
0.0000
 11
41.9910
 21
55.4433
 31
0.0000
  0
LINE
  8
48
 10
42.7296
 20
56.3436
 30
0.0000
 11
42.7296
 21
54.8704
 31
0.0000
  0
LINE
  8
48
 10
42.7296
 20
54.8704
 30
0.0000
 11
43.3843
 21
54.8704
 31
0.0000
  0
LINE
  8
48
 10
44.5932
 20
55.4433
 30
0.0000
 11
44.2249
 21
55.4433
 31
0.0000
  0
ARC
  8
48
 10
44.2249
 20
55.1568
 30
0.0000
 40
0.2865
 50
90.0000
 51
270.0000
  0
LINE
  8
48
 10
44.2249
 20
54.8704
 30
0.0000
 11
44.5932
 21
54.8704
 31
0.0000
  0
LINE
  8
48
 10
44.5932
 20
54.8704
 30
0.0000
 11
44.5932
 21
55.6070
 31
0.0000
  0
ARC
  8
48
 10
44.3477
 20
55.6070
 30
0.0000
 40
0.2455
 50
0.0000
 51
90.0000
  0
LINE
  8
48
 10
44.3477
 20
55.8525
 30
0.0000
 11
44.0203
 21
55.8525
 31
0.0000
  0
LINE
  8
48
 10
45.2359
 20
54.3793
 30
0.0000
 11
45.3996
 21
54.3793
 31
0.0000
  0
LINE
  8
48
 10
45.3996
 20
54.3793
 30
0.0000
 11
45.8906
 21
55.8525
 31
0.0000
  0
LINE
  8
48
 10
45.2359
 20
55.8525
 30
0.0000
 11
45.5632
 21
54.8704
 31
0.0000
  0
LINE
  8
48
 10
47.1294
 20
54.8704
 30
0.0000
 11
46.7202
 21
54.8704
 31
0.0000
  0
ARC
  8
48
 10
46.7202
 20
55.1159
 30
0.0000
 40
0.2455
 50
180.0000
 51
270.0000
  0
LINE
  8
48
 10
46.4747
 20
55.1159
 30
0.0000
 11
46.4747
 21
55.5251
 31
0.0000
  0
ARC
  8
48
 10
46.8021
 20
55.5251
 30
0.0000
 40
0.3274
 50
0.0000
 51
180.0000
  0
LINE
  8
48
 10
47.1294
 20
55.5251
 30
0.0000
 11
47.1294
 21
55.3614
 31
0.0000
  0
LINE
  8
48
 10
47.1294
 20
55.3614
 30
0.0000
 11
46.4747
 21
55.3614
 31
0.0000
  0
LINE
  8
48
 10
47.8230
 20
54.8704
 30
0.0000
 11
47.8230
 21
55.8525
 31
0.0000
  0
LINE
  8
48
 10
47.8230
 20
55.8525
 30
0.0000
 11
48.3141
 21
55.8525
 31
0.0000
  0
LINE
  8
48
 10
48.3141
 20
55.8525
 30
0.0000
 11
48.3141
 21
55.6888
 31
0.0000
  0
LINE
  8
48
 10
49.3356
 20
55.2796
 30
0.0000
 11
48.9264
 21
55.4433
 31
0.0000
  0
ARC
  8
48
 10
49.0052
 20
55.6403
 30
0.0000
 40
0.2122
 50
89.1816
 51
248.1986
  0
ARC
  8
48
 10
48.9950
 20
54.9231
 30
0.0000
 40
0.9294
 50
65.7610
 51
89.1816
  0
ARC
  8
48
 10
49.2568
 20
55.0825
 30
0.0000
 40
0.2122
 50
269.1816
 51
68.1989
  0
ARC
  8
48
 10
49.2736
 20
56.2582
 30
0.0000
 40
1.3880
 50
250.2089
 51
269.1815
  0
LINE
  8
48
 10
50.0812
 20
54.9931
 30
0.0000
 11
50.0812
 21
55.0750
 31
0.0000
  0
LINE
  8
48
 10
50.0812
 20
55.0750
 30
0.0000
 11
50.1630
 21
55.0750
 31
0.0000
  0
LINE
  8
48
 10
50.1630
 20
55.0750
 30
0.0000
 11
50.1630
 21
54.9931
 31
0.0000
  0
LINE
  8
48
 10
50.1630
 20
54.9931
 30
0.0000
 11
50.0812
 21
54.9931
 31
0.0000
  0
LINE
  8
48
 10
50.0812
 20
55.6479
 30
0.0000
 11
50.0812
 21
55.7297
 31
0.0000
  0
LINE
  8
48
 10
50.0812
 20
55.7297
 30
0.0000
 11
50.1630
 21
55.7297
 31
0.0000
  0
LINE
  8
48
 10
50.1630
 20
55.7297
 30
0.0000
 11
50.1630
 21
55.6479
 31
0.0000
  0
LINE
  8
48
 10
50.1630
 20
55.6479
 30
0.0000
 11
50.0812
 21
55.6479
 31
0.0000
  0
LINE
  8
48
 10
25.0451
 20
54.8704
 30
0.0000
 11
24.7177
 21
54.8704
 31
0.0000
  0
ARC
  8
48
 10
24.7177
 20
55.1977
 30
0.0000
 40
0.3274
 50
180.0000
 51
270.0000
  0
LINE
  8
48
 10
24.3904
 20
55.1977
 30
0.0000
 11
24.3904
 21
56.0162
 31
0.0000
  0
ARC
  8
48
 10
24.7177
 20
56.0162
 30
0.0000
 40
0.3274
 50
90.0005
 51
180.0000
  0
LINE
  8
48
 10
24.7177
 20
56.3436
 30
0.0000
 11
25.0451
 21
56.3436
 31
0.0000
  0
LINE
  8
48
 10
25.6664
 20
55.8525
 30
0.0000
 11
25.6664
 21
55.1159
 31
0.0000
  0
ARC
  8
48
 10
25.9120
 20
55.1159
 30
0.0000
 40
0.2455
 50
180.0000
 51
270.0000
  0
LINE
  8
48
 10
25.9120
 20
54.8704
 30
0.0000
 11
26.3212
 21
54.8704
 31
0.0000
  0
LINE
  8
48
 10
26.3212
 20
54.8704
 30
0.0000
 11
26.3212
 21
55.8525
 31
0.0000
  0
LINE
  8
48
 10
26.9935
 20
54.9931
 30
0.0000
 11
26.9935
 21
55.0750
 31
0.0000
  0
LINE
  8
48
 10
26.9935
 20
55.0750
 30
0.0000
 11
27.0753
 21
55.0750
 31
0.0000
  0
LINE
  8
48
 10
27.0753
 20
55.0750
 30
0.0000
 11
27.0753
 21
54.9931
 31
0.0000
  0
LINE
  8
48
 10
27.0753
 20
54.9931
 30
0.0000
 11
26.9935
 21
54.9931
 31
0.0000
  0
LINE
  8
48
 10
26.9935
 20
55.6479
 30
0.0000
 11
26.9935
 21
55.7297
 31
0.0000
  0
LINE
  8
48
 10
26.9935
 20
55.7297
 30
0.0000
 11
27.0753
 21
55.7297
 31
0.0000
  0
LINE
  8
48
 10
27.0753
 20
55.7297
 30
0.0000
 11
27.0753
 21
55.6479
 31
0.0000
  0
LINE
  8
48
 10
27.0753
 20
55.6479
 30
0.0000
 11
26.9935
 21
55.6479
 31
0.0000
  0
LINE
  8
48
 10
1.5304
 20
53.1686
 30
0.0000
 11
2.0214
 21
51.6954
 31
0.0000
  0
LINE
  8
48
 10
2.0214
 20
51.6954
 30
0.0000
 11
2.5125
 21
53.1686
 31
0.0000
  0
LINE
  8
48
 10
3.2107
 20
53.1686
 30
0.0000
 11
3.2107
 21
51.6954
 31
0.0000
  0
LINE
  8
48
 10
3.0470
 20
51.6954
 30
0.0000
 11
3.3744
 21
51.6954
 31
0.0000
  0
LINE
  8
48
 10
3.0470
 20
53.1686
 30
0.0000
 11
3.3744
 21
53.1686
 31
0.0000
  0
LINE
  8
48
 10
4.6405
 20
51.6954
 30
0.0000
 11
4.3131
 21
51.6954
 31
0.0000
  0
ARC
  8
48
 10
4.3131
 20
52.0227
 30
0.0000
 40
0.3274
 50
180.0000
 51
270.0000
  0
LINE
  8
48
 10
3.9858
 20
52.0227
 30
0.0000
 11
3.9858
 21
52.8412
 31
0.0000
  0
ARC
  8
48
 10
4.3131
 20
52.8412
 30
0.0000
 40
0.3274
 50
90.0005
 51
180.0000
  0
LINE
  8
48
 10
4.3131
 20
53.1686
 30
0.0000
 11
4.6405
 21
53.1686
 31
0.0000
  0
LINE
  8
48
 10
5.2468
 20
52.2683
 30
0.0000
 11
6.2289
 21
52.2683
 31
0.0000
  0
ARC
  8
48
 10
7.3645
 20
52.8003
 30
0.0000
 40
0.3683
 50
0.0000
 51
90.0000
  0
ARC
  8
48
 10
7.3645
 20
52.6954
 30
0.0000
 40
0.4732
 50
90.0000
 51
162.0549
  0
ARC
  8
48
 10
7.3372
 20
52.8003
 30
0.0000
 40
0.3956
 50
313.6022
 51
0.0000
  0
LINE
  8
48
 10
7.6100
 20
52.5138
 30
0.0000
 11
6.9143
 21
51.6954
 31
0.0000
  0
LINE
  8
48
 10
6.9143
 20
51.6954
 30
0.0000
 11
7.7328
 21
51.6954
 31
0.0000
  0
ARC
  8
48
 10
9.6149
 20
52.4320
 30
0.0000
 40
1.2140
 50
154.0109
 51
180.0000
  0
ARC
  8
48
 10
8.8101
 20
52.8657
 30
0.0000
 40
0.3028
 50
90.0000
 51
161.0756
  0
ARC
  8
48
 10
8.8101
 20
52.8657
 30
0.0000
 40
0.3028
 50
18.9237
 51
90.0001
  0
ARC
  8
48
 10
8.0053
 20
52.4320
 30
0.0000
 40
1.2140
 50
360.0000
 51
25.9897
  0
ARC
  8
48
 10
9.6149
 20
52.4320
 30
0.0000
 40
1.2140
 50
180.0000
 51
205.9889
  0
ARC
  8
48
 10
8.8101
 20
51.9982
 30
0.0000
 40
0.3028
 50
198.9251
 51
270.0001
  0
ARC
  8
48
 10
8.0053
 20
52.4320
 30
0.0000
 40
1.2140
 50
334.0105
 51
359.9999
  0
ARC
  8
48
 10
8.8101
 20
51.9982
 30
0.0000
 40
0.3028
 50
270.0000
 51
341.0759
  0
LINE
  8
48
 10
8.4827
 20
52.0227
 30
0.0000
 11
9.1375
 21
52.8412
 31
0.0000
  0
LINE
  8
48
 10
9.8207
 20
51.5317
 30
0.0000
 11
10.4754
 21
51.5317
 31
0.0000
  0
LINE
  8
48
 10
10.9949
 20
51.6954
 30
0.0000
 11
11.4860
 21
53.1686
 31
0.0000
  0
LINE
  8
48
 10
11.4860
 20
53.1686
 30
0.0000
 11
11.9770
 21
51.6954
 31
0.0000
  0
LINE
  8
48
 10
11.8543
 20
52.0637
 30
0.0000
 11
11.1177
 21
52.0637
 31
0.0000
  0
LINE
  8
48
 10
12.4815
 20
53.1686
 30
0.0000
 11
12.9725
 21
51.6954
 31
0.0000
  0
LINE
  8
48
 10
12.9725
 20
51.6954
 30
0.0000
 11
13.4636
 21
53.1686
 31
0.0000
  0
LINE
  8
48
 10
14.0672
 20
52.2683
 30
0.0000
 11
15.0493
 21
52.2683
 31
0.0000
  0
LINE
  8
48
 10
15.6528
 20
51.6954
 30
0.0000
 11
16.1439
 21
53.1686
 31
0.0000
  0
LINE
  8
48
 10
16.1439
 20
53.1686
 30
0.0000
 11
16.6350
 21
51.6954
 31
0.0000
  0
LINE
  8
48
 10
16.5122
 20
52.0637
 30
0.0000
 11
15.7756
 21
52.0637
 31
0.0000
  0
LINE
  8
48
 10
17.8497
 20
53.1686
 30
0.0000
 11
17.8497
 21
51.6954
 31
0.0000
  0
LINE
  8
48
 10
17.8497
 20
51.6954
 30
0.0000
 11
17.4405
 21
51.6954
 31
0.0000
  0
ARC
  8
48
 10
17.4405
 20
51.9409
 30
0.0000
 40
0.2455
 50
180.0000
 51
270.0000
  0
LINE
  8
48
 10
17.1949
 20
51.9409
 30
0.0000
 11
17.1949
 21
52.4320
 31
0.0000
  0
ARC
  8
48
 10
17.4405
 20
52.4320
 30
0.0000
 40
0.2455
 50
90.0000
 51
180.0000
  0
LINE
  8
48
 10
17.4405
 20
52.6775
 30
0.0000
 11
17.8497
 21
52.6775
 31
0.0000
  0
LINE
  8
48
 10
19.1876
 20
52.2683
 30
0.0000
 11
18.8193
 21
52.2683
 31
0.0000
  0
ARC
  8
48
 10
18.8193
 20
51.9818
 30
0.0000
 40
0.2865
 50
90.0000
 51
270.0000
  0
LINE
  8
48
 10
18.8193
 20
51.6954
 30
0.0000
 11
19.1876
 21
51.6954
 31
0.0000
  0
LINE
  8
48
 10
19.1876
 20
51.6954
 30
0.0000
 11
19.1876
 21
52.4320
 31
0.0000
  0
ARC
  8
48
 10
18.9421
 20
52.4320
 30
0.0000
 40
0.2455
 50
0.0000
 51
90.0000
  0
LINE
  8
48
 10
18.9421
 20
52.6775
 30
0.0000
 11
18.6147
 21
52.6775
 31
0.0000
  0
LINE
  8
48
 10
19.9385
 20
51.2043
 30
0.0000
 11
19.9385
 21
52.6775
 31
0.0000
  0
LINE
  8
48
 10
19.9385
 20
52.6775
 30
0.0000
 11
20.3477
 21
52.6775
 31
0.0000
  0
ARC
  8
48
 10
20.3477
 20
52.4320
 30
0.0000
 40
0.2455
 50
0.0000
 51
90.0000
  0
LINE
  8
48
 10
20.5932
 20
52.4320
 30
0.0000
 11
20.5932
 21
51.9409
 31
0.0000
  0
ARC
  8
48
 10
20.3477
 20
51.9409
 30
0.0000
 40
0.2455
 50
270.0000
 51
0.0000
  0
LINE
  8
48
 10
20.3477
 20
51.6954
 30
0.0000
 11
19.9385
 21
51.6954
 31
0.0000
  0
LINE
  8
48
 10
21.0871
 20
52.6775
 30
0.0000
 11
21.5782
 21
52.6775
 31
0.0000
  0
LINE
  8
48
 10
21.2508
 20
53.1686
 30
0.0000
 11
21.2508
 21
51.9409
 31
0.0000
  0
ARC
  8
48
 10
21.4963
 20
51.9409
 30
0.0000
 40
0.2455
 50
180.0000
 51
270.0007
  0
LINE
  8
48
 10
21.4963
 20
51.6954
 30
0.0000
 11
21.5782
 21
51.6954
 31
0.0000
  0
LINE
  8
48
 10
22.1593
 20
52.0227
 30
0.0000
 11
22.1593
 21
52.3501
 31
0.0000
  0
ARC
  8
48
 10
22.4866
 20
52.3501
 30
0.0000
 40
0.3274
 50
0.0000
 51
180.0000
  0
LINE
  8
48
 10
22.8140
 20
52.3501
 30
0.0000
 11
22.8140
 21
52.0227
 31
0.0000
  0
ARC
  8
48
 10
22.4866
 20
52.0227
 30
0.0000
 40
0.3274
 50
180.0000
 51
0.0000
  0
LINE
  8
48
 10
23.5076
 20
51.6954
 30
0.0000
 11
23.5076
 21
52.6775
 31
0.0000
  0
LINE
  8
48
 10
23.5076
 20
52.6775
 30
0.0000
 11
23.9987
 21
52.6775
 31
0.0000
  0
LINE
  8
48
 10
23.9987
 20
52.6775
 30
0.0000
 11
23.9987
 21
52.5138
 31
0.0000
  0
ARC
  8
48
 10
2.7444
 20
49.2570
 30
0.0000
 40
1.2140
 50
154.0109
 51
180.0000
  0
ARC
  8
48
 10
1.9396
 20
49.6907
 30
0.0000
 40
0.3028
 50
90.0000
 51
161.0756
  0
ARC
  8
48
 10
1.9396
 20
49.6907
 30
0.0000
 40
0.3028
 50
18.9237
 51
90.0001
  0
ARC
  8
48
 10
1.1348
 20
49.2570
 30
0.0000
 40
1.2140
 50
360.0000
 51
25.9897
  0
ARC
  8
48
 10
2.7444
 20
49.2570
 30
0.0000
 40
1.2140
 50
180.0000
 51
205.9889
  0
ARC
  8
48
 10
1.9396
 20
48.8232
 30
0.0000
 40
0.3028
 50
198.9251
 51
270.0001
  0
ARC
  8
48
 10
1.1348
 20
49.2570
 30
0.0000
 40
1.2140
 50
334.0105
 51
359.9999
  0
ARC
  8
48
 10
1.9396
 20
48.8232
 30
0.0000
 40
0.3028
 50
270.0000
 51
341.0759
  0
LINE
  8
48
 10
1.6122
 20
48.8477
 30
0.0000
 11
2.2670
 21
49.6662
 31
0.0000
  0
LINE
  8
48
 10
3.3443
 20
49.9935
 30
0.0000
 11
3.0169
 21
48.8477
 31
0.0000
  0
LINE
  8
48
 10
3.0169
 20
48.8477
 30
0.0000
 11
3.8354
 21
48.8477
 31
0.0000
  0
LINE
  8
48
 10
3.5898
 20
49.1751
 30
0.0000
 11
3.5898
 21
48.5204
 31
0.0000
  0
LINE
  8
48
 10
4.4258
 20
48.5204
 30
0.0000
 11
4.4258
 21
48.6022
 31
0.0000
  0
LINE
  8
48
 10
4.4258
 20
48.6022
 30
0.0000
 11
4.5077
 21
48.6022
 31
0.0000
  0
LINE
  8
48
 10
4.5077
 20
48.6022
 30
0.0000
 11
4.5077
 21
48.5204
 31
0.0000
  0
LINE
  8
48
 10
4.5077
 20
48.5204
 30
0.0000
 11
4.4258
 21
48.5204
 31
0.0000
  0
ARC
  8
48
 10
6.3122
 20
49.2570
 30
0.0000
 40
1.2140
 50
154.0109
 51
180.0000
  0
ARC
  8
48
 10
5.5073
 20
49.6907
 30
0.0000
 40
0.3028
 50
90.0000
 51
161.0756
  0
ARC
  8
48
 10
5.5073
 20
49.6907
 30
0.0000
 40
0.3028
 50
18.9237
 51
90.0001
  0
ARC
  8
48
 10
4.7026
 20
49.2570
 30
0.0000
 40
1.2140
 50
360.0000
 51
25.9897
  0
ARC
  8
48
 10
6.3122
 20
49.2570
 30
0.0000
 40
1.2140
 50
180.0000
 51
205.9889
  0
ARC
  8
48
 10
5.5073
 20
48.8232
 30
0.0000
 40
0.3028
 50
198.9251
 51
270.0001
  0
ARC
  8
48
 10
4.7025
 20
49.2570
 30
0.0000
 40
1.2140
 50
334.0105
 51
359.9999
  0
ARC
  8
48
 10
5.5073
 20
48.8232
 30
0.0000
 40
0.3028
 50
270.0000
 51
341.0759
  0
LINE
  8
48
 10
5.1800
 20
48.8477
 30
0.0000
 11
5.8347
 21
49.6662
 31
0.0000
  0
LINE
  8
48
 10
7.4031
 20
49.1751
 30
0.0000
 11
6.9121
 21
49.1751
 31
0.0000
  0
ARC
  8
48
 10
6.9121
 20
49.5025
 30
0.0000
 40
0.3274
 50
179.9995
 51
270.0000
  0
LINE
  8
48
 10
6.5847
 20
49.5025
 30
0.0000
 11
6.5847
 21
49.5843
 31
0.0000
  0
ARC
  8
48
 10
6.9939
 20
49.5843
 30
0.0000
 40
0.4092
 50
0.0000
 51
180.0000
  0
LINE
  8
48
 10
7.4031
 20
49.5843
 30
0.0000
 11
7.4031
 21
49.1751
 31
0.0000
  0
ARC
  8
48
 10
6.7484
 20
49.1751
 30
0.0000
 40
0.6548
 50
269.9997
 51
360.0000
  0
LINE
  8
48
 10
7.9936
 20
48.5204
 30
0.0000
 11
7.9936
 21
48.6022
 31
0.0000
  0
LINE
  8
48
 10
7.9936
 20
48.6022
 30
0.0000
 11
8.0754
 21
48.6022
 31
0.0000
  0
LINE
  8
48
 10
8.0754
 20
48.6022
 30
0.0000
 11
8.0754
 21
48.5204
 31
0.0000
  0
LINE
  8
48
 10
8.0754
 20
48.5204
 30
0.0000
 11
7.9936
 21
48.5204
 31
0.0000
  0
ARC
  8
48
 10
9.1160
 20
49.6253
 30
0.0000
 40
0.3683
 50
0.0000
 51
90.0000
  0
ARC
  8
48
 10
9.1160
 20
49.5204
 30
0.0000
 40
0.4732
 50
90.0000
 51
162.0549
  0
ARC
  8
48
 10
9.0888
 20
49.6253
 30
0.0000
 40
0.3956
 50
313.6022
 51
0.0000
  0
LINE
  8
48
 10
9.3616
 20
49.3388
 30
0.0000
 11
8.6659
 21
48.5204
 31
0.0000
  0
LINE
  8
48
 10
8.6659
 20
48.5204
 30
0.0000
 11
9.4843
 21
48.5204
 31
0.0000
  0
ARC
  8
48
 10
11.3665
 20
49.2570
 30
0.0000
 40
1.2140
 50
154.0109
 51
180.0000
  0
ARC
  8
48
 10
10.5617
 20
49.6907
 30
0.0000
 40
0.3028
 50
90.0000
 51
161.0756
  0
ARC
  8
48
 10
10.5617
 20
49.6907
 30
0.0000
 40
0.3028
 50
18.9237
 51
90.0001
  0
ARC
  8
48
 10
9.7569
 20
49.2570
 30
0.0000
 40
1.2140
 50
360.0000
 51
25.9897
  0
ARC
  8
48
 10
11.3665
 20
49.2570
 30
0.0000
 40
1.2140
 50
180.0000
 51
205.9889
  0
ARC
  8
48
 10
10.5617
 20
48.8232
 30
0.0000
 40
0.3028
 50
198.9251
 51
270.0001
  0
ARC
  8
48
 10
9.7569
 20
49.2570
 30
0.0000
 40
1.2140
 50
334.0105
 51
359.9999
  0
ARC
  8
48
 10
10.5617
 20
48.8232
 30
0.0000
 40
0.3028
 50
270.0000
 51
341.0759
  0
LINE
  8
48
 10
10.2343
 20
48.8477
 30
0.0000
 11
10.8891
 21
49.6662
 31
0.0000
  0
ARC
  8
48
 10
12.0892
 20
49.6253
 30
0.0000
 40
0.3683
 50
0.0000
 51
90.0000
  0
ARC
  8
48
 10
12.0892
 20
49.5204
 30
0.0000
 40
0.4732
 50
90.0000
 51
162.0549
  0
ARC
  8
48
 10
12.0619
 20
49.6253
 30
0.0000
 40
0.3956
 50
313.6022
 51
0.0000
  0
LINE
  8
48
 10
12.3347
 20
49.3388
 30
0.0000
 11
11.6391
 21
48.5204
 31
0.0000
  0
LINE
  8
48
 10
11.6391
 20
48.5204
 30
0.0000
 11
12.4575
 21
48.5204
 31
0.0000
  0
LINE
  8
48
 10
13.1256
 20
49.6662
 30
0.0000
 11
13.5348
 21
49.9935
 31
0.0000
  0
LINE
  8
48
 10
13.5348
 20
49.9935
 30
0.0000
 11
13.5348
 21
48.5204
 31
0.0000
  0
LINE
  8
48
 10
13.1256
 20
48.5204
 30
0.0000
 11
13.9441
 21
48.5204
 31
0.0000
  0
LINE
  8
48
 10
15.4050
 20
49.6662
 30
0.0000
 11
15.8143
 21
49.9935
 31
0.0000
  0
LINE
  8
48
 10
15.8143
 20
49.9935
 30
0.0000
 11
15.8143
 21
48.5204
 31
0.0000
  0
LINE
  8
48
 10
15.4050
 20
48.5204
 30
0.0000
 11
16.2235
 21
48.5204
 31
0.0000
  0
LINE
  8
48
 10
16.8916
 20
48.5204
 30
0.0000
 11
17.3008
 21
48.5204
 31
0.0000
  0
ARC
  8
48
 10
17.3008
 20
48.9296
 30
0.0000
 40
0.4092
 50
270.0000
 51
90.0000
  0
LINE
  8
48
 10
16.8916
 20
49.9935
 30
0.0000
 11
17.3827
 21
49.9935
 31
0.0000
  0
ARC
  8
48
 10
17.3827
 20
49.6662
 30
0.0000
 40
0.3274
 50
270.0000
 51
90.0000
  0
LINE
  8
48
 10
17.3827
 20
49.3388
 30
0.0000
 11
17.0553
 21
49.3388
 31
0.0000
  0
LINE
  8
48
 10
18.3501
 20
48.6431
 30
0.0000
 11
18.3501
 21
48.7250
 31
0.0000
  0
LINE
  8
48
 10
18.3501
 20
48.7250
 30
0.0000
 11
18.4319
 21
48.7250
 31
0.0000
  0
LINE
  8
48
 10
18.4319
 20
48.7250
 30
0.0000
 11
18.4319
 21
48.6431
 31
0.0000
  0
LINE
  8
48
 10
18.4319
 20
48.6431
 30
0.0000
 11
18.3501
 21
48.6431
 31
0.0000
  0
LINE
  8
48
 10
18.3501
 20
49.2979
 30
0.0000
 11
18.3501
 21
49.3797
 31
0.0000
  0
LINE
  8
48
 10
18.3501
 20
49.3797
 30
0.0000
 11
18.4319
 21
49.3797
 31
0.0000
  0
LINE
  8
48
 10
18.4319
 20
49.3797
 30
0.0000
 11
18.4319
 21
49.2979
 31
0.0000
  0
LINE
  8
48
 10
18.4319
 20
49.2979
 30
0.0000
 11
18.3501
 21
49.2979
 31
0.0000
  0
LINE
  8
48
 10
19.0719
 20
48.5204
 30
0.0000
 11
19.4811
 21
48.5204
 31
0.0000
  0
ARC
  8
48
 10
19.4811
 20
48.9296
 30
0.0000
 40
0.4092
 50
270.0000
 51
90.0000
  0
LINE
  8
48
 10
19.0719
 20
49.9935
 30
0.0000
 11
19.5630
 21
49.9935
 31
0.0000
  0
ARC
  8
48
 10
19.5630
 20
49.6662
 30
0.0000
 40
0.3274
 50
270.0000
 51
90.0000
  0
LINE
  8
48
 10
19.5630
 20
49.3388
 30
0.0000
 11
19.2356
 21
49.3388
 31
0.0000
  0
LINE
  8
48
 10
20.5585
 20
48.5204
 30
0.0000
 11
21.0496
 21
48.5204
 31
0.0000
  0
ARC
  8
48
 10
21.0496
 20
48.8477
 30
0.0000
 40
0.3274
 50
270.0000
 51
359.9995
  0
LINE
  8
48
 10
21.3769
 20
48.8477
 30
0.0000
 11
21.3769
 21
49.0114
 31
0.0000
  0
ARC
  8
48
 10
21.0496
 20
49.0114
 30
0.0000
 40
0.3274
 50
0.0000
 51
90.0000
  0
LINE
  8
48
 10
21.0496
 20
49.3388
 30
0.0000
 11
20.5585
 21
49.3388
 31
0.0000
  0
LINE
  8
48
 10
20.5585
 20
49.3388
 30
0.0000
 11
20.5585
 21
49.9935
 31
0.0000
  0
LINE
  8
48
 10
20.5585
 20
49.9935
 30
0.0000
 11
21.3769
 21
49.9935
 31
0.0000
  0
ENDSEC
  0
EOF
