  0
SECTION
  2
HEADER
  9
$ACADVER
  1
AC1009
  9
$FILLMODE
 70
0
  9
$EXTMIN
 10
-0.8573
 20
-0.1348
 30
0.0000
  9
$EXTMAX
 10
54.8450
 20
60.5600
 30
0.0000
  0
ENDSEC
  0
SECTION
  2
TABLES
  0
TABLE
  2
LTYPE
 70
1
  0
LTYPE
  2
CONTINUOUS
 70
64
  3
Solid line
 72
65
 73
0
 40
0
  0
ENDTAB
  0
TABLE
  2
LAYER
 70
255
  0
LAYER
  2
20
 70
64
 62
30
  6
CONTINUOUS
  0
LAYER
  2
22
 70
64
 62
253
  6
CONTINUOUS
  0
LAYER
  2
49
 70
64
 62
253
  6
CONTINUOUS
  0
LAYER
  2
52
 70
64
 62
253
  6
CONTINUOUS
  0
ENDTAB
  0
ENDSEC
  0
SECTION
  2
BLOCKS
  0
BLOCK
  8
0
  2
RECT
 70
64
 10
0.0000
 20
0.0000
 30
0.0000
  3
RECT
  0
SOLID
  8
0
 10
-0.5000
 20
-0.5000
 30
0.0000
 11
0.5000
 21
-0.5000
 31
0.0000
 12
-0.5000
 22
0.5000
 32
0.0000
 13
0.5000
 23
0.5000
 33
0.0000
  0
ENDBLK
  8
0
  0
BLOCK
  8
0
  2
PIE
 70
64
 10
0.0000
 20
0.0000
 30
0.0000
  3
PIE
  0
CIRCLE
  8
0
 10
0.0000
 20
0.0000
 30
0.0000
 40
0.5000
  0
ENDBLK
  8
0
  0
BLOCK
  8
0
  2
OCTAGONP
 70
64
 10
0.0000
 20
0.0000
 30
0.0000
  3
OCTAGONP
  0
POLYLINE
  8
0
 66
1
 10
0.0000
 20
0.0000
 30
0.0000
 40
0.0000
 41
0.0000
 70
1
  0
VERTEX
  8
0
 10
-0.5000
 20
-0.2071
 30
0.0000
  0
VERTEX
  8
0
 10
-0.5000
 20
0.2071
 30
0.0000
  0
VERTEX
  8
0
 10
-0.2071
 20
0.5000
 30
0.0000
  0
VERTEX
  8
0
 10
0.2071
 20
0.5000
 30
0.0000
  0
VERTEX
  8
0
 10
0.5000
 20
0.2071
 30
0.0000
  0
VERTEX
  8
0
 10
0.5000
 20
-0.2071
 30
0.0000
  0
VERTEX
  8
0
 10
0.2071
 20
-0.5000
 30
0.0000
  0
VERTEX
  8
0
 10
-0.2071
 20
-0.5000
 30
0.0000
  0
SEQEND
  8
0
  0
ENDBLK
  8
0
  0
BLOCK
  8
0
  2
SQUAREP
 70
64
 10
0.0000
 20
0.0000
 30
0.0000
  3
SQUAREP
  0
SOLID
  8
0
 10
-0.5000
 20
-0.5000
 30
0.0000
 11
0.5000
 21
-0.5000
 31
0.0000
 12
-0.5000
 22
0.5000
 32
0.0000
 13
0.5000
 23
0.5000
 33
0.0000
  0
ENDBLK
  8
0
  0
BLOCK
  8
0
  2
ROUNDP
 70
64
 10
0.0000
 20
0.0000
 30
0.0000
  3
ROUNDP
  0
CIRCLE
  8
0
 10
0.0000
 20
0.0000
 30
0.0000
 40
0.5000
  0
ENDBLK
  8
0
  0
BLOCK
  8
0
  2
ANNULUSP
 70
64
 10
0.0000
 20
0.0000
 30
0.0000
  3
ANNULUSP
  0
CIRCLE
  8
0
 10
0.0000
 20
0.0000
 30
0.0000
 40
0.5000
  0
ENDBLK
  8
0
  0
BLOCK
  8
0
  2
THERMALP
 70
64
 10
0.0000
 20
0.0000
 30
0.0000
  3
THERMALP
  0
LINE
  8
0
 10
-0.2379
 20
0.4500
 30
0.0000
 11
0.2379
 21
0.4500
 31
0.0000
  0
LINE
  8
0
 10
0.4500
 20
0.2379
 30
0.0000
 11
0.4500
 21
-0.2379
 31
0.0000
  0
LINE
  8
0
 10
0.2379
 20
-0.4500
 30
0.0000
 11
-0.2379
 21
-0.4500
 31
0.0000
  0
LINE
  8
0
 10
-0.4500
 20
-0.2379
 30
0.0000
 11
-0.4500
 21
0.2379
 31
0.0000
  0
ENDBLK
  8
0
  0
BLOCK
  8
0
  2
OCTAGONV
 70
64
 10
0.0000
 20
0.0000
 30
0.0000
  3
OCTAGONV
  0
POLYLINE
  8
0
 66
1
 10
0.0000
 20
0.0000
 30
0.0000
 40
0.0000
 41
0.0000
 70
1
  0
VERTEX
  8
0
 10
-0.5000
 20
-0.2071
 30
0.0000
  0
VERTEX
  8
0
 10
-0.5000
 20
0.2071
 30
0.0000
  0
VERTEX
  8
0
 10
-0.2071
 20
0.5000
 30
0.0000
  0
VERTEX
  8
0
 10
0.2071
 20
0.5000
 30
0.0000
  0
VERTEX
  8
0
 10
0.5000
 20
0.2071
 30
0.0000
  0
VERTEX
  8
0
 10
0.5000
 20
-0.2071
 30
0.0000
  0
VERTEX
  8
0
 10
0.2071
 20
-0.5000
 30
0.0000
  0
VERTEX
  8
0
 10
-0.2071
 20
-0.5000
 30
0.0000
  0
SEQEND
  8
0
  0
ENDBLK
  8
0
  0
BLOCK
  8
0
  2
SQUAREV
 70
64
 10
0.0000
 20
0.0000
 30
0.0000
  3
SQUAREV
  0
SOLID
  8
0
 10
-0.5000
 20
-0.5000
 30
0.0000
 11
0.5000
 21
-0.5000
 31
0.0000
 12
-0.5000
 22
0.5000
 32
0.0000
 13
0.5000
 23
0.5000
 33
0.0000
  0
ENDBLK
  8
0
  0
BLOCK
  8
0
  2
ROUNDV
 70
64
 10
0.0000
 20
0.0000
 30
0.0000
  3
ROUNDV
  0
CIRCLE
  8
0
 10
0.0000
 20
0.0000
 30
0.0000
 40
0.5000
  0
ENDBLK
  8
0
  0
BLOCK
  8
0
  2
ANNULUSV
 70
64
 10
0.0000
 20
0.0000
 30
0.0000
  3
ANNULUSV
  0
CIRCLE
  8
0
 10
0.0000
 20
0.0000
 30
0.0000
 40
0.5000
  0
ENDBLK
  8
0
  0
BLOCK
  8
0
  2
THERMALV
 70
64
 10
0.0000
 20
0.0000
 30
0.0000
  3
THERMALV
  0
LINE
  8
0
 10
-0.2379
 20
0.4500
 30
0.0000
 11
0.2379
 21
0.4500
 31
0.0000
  0
LINE
  8
0
 10
0.4500
 20
0.2379
 30
0.0000
 11
0.4500
 21
-0.2379
 31
0.0000
  0
LINE
  8
0
 10
0.2379
 20
-0.4500
 30
0.0000
 11
-0.2379
 21
-0.4500
 31
0.0000
  0
LINE
  8
0
 10
-0.4500
 20
-0.2379
 30
0.0000
 11
-0.4500
 21
0.2379
 31
0.0000
  0
ENDBLK
  8
0
  0
BLOCK
  8
0
  2
OFFSETP100
 70
64
 10
0.0000
 20
0.0000
 30
0.0000
  3
OFFSETP100
  0
POLYLINE
  8
0
 66
1
 10
0.0000
 20
0.0000
 30
0.0000
 40
0.0000
 41
0.0000
 70
1
  0
VERTEX
  8
0
 10
0.0000
 20
-0.5000
 30
0.0000
  0
VERTEX
  8
0
 10
1.0000
 20
-0.5000
 30
0.0000
 42
1.0000
  0
VERTEX
  8
0
 10
1.0000
 20
0.5000
 30
0.0000
  0
VERTEX
  8
0
 10
0.0000
 20
0.5000
 30
0.0000
 42
1.0000
  0
SEQEND
  8
0
  0
ENDBLK
  8
0
  0
ENDSEC
  0
SECTION
  2
ENTITIES
  0
LINE
  8
20
 10
1.0000
 20
38.0000
 30
0.0000
 11
27.0000
 21
38.0000
 31
0.0000
  0
ARC
  8
20
 10
27.0000
 20
37.0000
 30
0.0000
 40
1.0000
 50
0.0000
 51
90.0000
  0
LINE
  8
20
 10
28.0000
 20
37.0000
 30
0.0000
 11
28.0000
 21
1.0000
 31
0.0000
  0
ARC
  8
20
 10
27.0000
 20
1.0000
 30
0.0000
 40
1.0000
 50
270.0000
 51
0.0000
  0
LINE
  8
20
 10
27.0000
 20
0.0000
 30
0.0000
 11
1.0000
 21
0.0000
 31
0.0000
  0
ARC
  8
20
 10
1.0000
 20
1.0000
 30
0.0000
 40
1.0000
 50
180.0000
 51
270.0000
  0
LINE
  8
20
 10
0.0000
 20
1.0000
 30
0.0000
 11
0.0000
 21
37.0000
 31
0.0000
  0
ARC
  8
20
 10
1.0000
 20
37.0000
 30
0.0000
 40
1.0000
 50
90.0000
 51
180.0000
  0
LINE
  8
22
 10
24.2116
 20
32.1026
 30
0.0000
 11
24.4713
 21
32.1026
 31
0.0000
  0
ARC
  8
22
 10
24.4713
 20
32.3622
 30
0.0000
 40
0.2596
 50
270.0000
 51
0.0000
  0
LINE
  8
22
 10
24.7309
 20
32.3622
 30
0.0000
 11
24.7309
 21
33.0113
 31
0.0000
  0
ARC
  8
22
 10
24.4713
 20
33.0113
 30
0.0000
 40
0.2596
 50
0.0000
 51
90.0000
  0
LINE
  8
22
 10
24.4713
 20
33.2709
 30
0.0000
 11
24.2116
 21
33.2709
 31
0.0000
  0
LINE
  8
22
 10
23.7864
 20
32.3622
 30
0.0000
 11
23.7864
 21
32.6218
 31
0.0000
  0
ARC
  8
22
 10
23.5267
 20
32.6218
 30
0.0000
 40
0.2596
 50
0.0000
 51
180.0000
  0
LINE
  8
22
 10
23.2671
 20
32.6218
 30
0.0000
 11
23.2671
 21
32.3622
 31
0.0000
  0
ARC
  8
22
 10
23.5267
 20
32.3622
 30
0.0000
 40
0.2596
 50
180.0000
 51
0.0000
  0
LINE
  8
22
 10
22.8339
 20
32.8815
 30
0.0000
 11
22.5742
 21
32.1026
 31
0.0000
  0
LINE
  8
22
 10
22.5742
 20
32.1026
 30
0.0000
 11
22.3146
 21
32.8815
 31
0.0000
  0
LINE
  8
22
 10
21.3621
 20
32.1026
 30
0.0000
 11
21.6866
 21
32.1026
 31
0.0000
  0
ARC
  8
22
 10
21.6866
 20
32.2973
 30
0.0000
 40
0.1947
 50
270.0000
 51
0.0000
  0
LINE
  8
22
 10
21.8814
 20
32.2973
 30
0.0000
 11
21.8814
 21
32.6218
 31
0.0000
  0
ARC
  8
22
 10
21.6217
 20
32.6218
 30
0.0000
 40
0.2596
 50
0.0000
 51
180.0000
  0
LINE
  8
22
 10
21.3621
 20
32.6218
 30
0.0000
 11
21.3621
 21
32.4920
 31
0.0000
  0
LINE
  8
22
 10
21.3621
 20
32.4920
 30
0.0000
 11
21.8814
 21
32.4920
 31
0.0000
  0
LINE
  8
22
 10
20.8460
 20
32.1026
 30
0.0000
 11
20.8460
 21
32.8815
 31
0.0000
  0
LINE
  8
22
 10
20.8460
 20
32.8815
 30
0.0000
 11
20.4566
 21
32.8815
 31
0.0000
  0
LINE
  8
22
 10
20.4566
 20
32.8815
 30
0.0000
 11
20.4566
 21
32.7517
 31
0.0000
  0
LINE
  8
22
 10
19.0592
 20
32.4271
 30
0.0000
 11
19.3837
 21
32.5569
 31
0.0000
  0
ARC
  8
22
 10
19.3212
 20
32.7132
 30
0.0000
 40
0.1683
 50
291.8011
 51
90.8182
  0
ARC
  8
22
 10
19.3293
 20
32.1444
 30
0.0000
 40
0.7371
 50
90.8181
 51
114.2388
  0
ARC
  8
22
 10
19.1217
 20
32.2708
 30
0.0000
 40
0.1683
 50
111.8011
 51
270.8182
  0
ARC
  8
22
 10
19.1083
 20
33.2033
 30
0.0000
 40
1.1008
 50
270.8181
 51
289.7910
  0
LINE
  8
22
 10
18.4905
 20
32.3622
 30
0.0000
 11
18.4905
 21
32.6218
 31
0.0000
  0
ARC
  8
22
 10
18.2308
 20
32.6218
 30
0.0000
 40
0.2596
 50
0.0000
 51
180.0000
  0
LINE
  8
22
 10
17.9712
 20
32.6218
 30
0.0000
 11
17.9712
 21
32.3622
 31
0.0000
  0
ARC
  8
22
 10
18.2308
 20
32.3622
 30
0.0000
 40
0.2596
 50
180.0000
 51
0.0000
  0
LINE
  8
22
 10
17.4849
 20
33.2709
 30
0.0000
 11
17.4849
 21
32.2973
 31
0.0000
  0
ARC
  8
22
 10
17.2902
 20
32.2973
 30
0.0000
 40
0.1947
 50
270.0000
 51
0.0000
  0
LINE
  8
22
 10
16.3769
 20
33.2709
 30
0.0000
 11
16.3769
 21
32.1026
 31
0.0000
  0
LINE
  8
22
 10
16.3769
 20
32.1026
 30
0.0000
 11
16.7014
 21
32.1026
 31
0.0000
  0
ARC
  8
22
 10
16.7014
 20
32.2973
 30
0.0000
 40
0.1947
 50
270.0000
 51
0.0000
  0
LINE
  8
22
 10
16.8962
 20
32.2973
 30
0.0000
 11
16.8962
 21
32.6868
 31
0.0000
  0
ARC
  8
22
 10
16.7014
 20
32.6868
 30
0.0000
 40
0.1947
 50
0.0000
 51
90.0000
  0
LINE
  8
22
 10
16.7014
 20
32.8815
 30
0.0000
 11
16.3769
 21
32.8815
 31
0.0000
  0
LINE
  8
22
 10
15.3423
 20
32.1026
 30
0.0000
 11
15.6669
 21
32.1026
 31
0.0000
  0
ARC
  8
22
 10
15.6669
 20
32.2973
 30
0.0000
 40
0.1947
 50
270.0000
 51
0.0000
  0
LINE
  8
22
 10
15.8616
 20
32.2973
 30
0.0000
 11
15.8616
 21
32.6218
 31
0.0000
  0
ARC
  8
22
 10
15.6019
 20
32.6218
 30
0.0000
 40
0.2596
 50
0.0000
 51
180.0000
  0
LINE
  8
22
 10
15.3423
 20
32.6218
 30
0.0000
 11
15.3423
 21
32.4920
 31
0.0000
  0
LINE
  8
22
 10
15.3423
 20
32.4920
 30
0.0000
 11
15.8616
 21
32.4920
 31
0.0000
  0
LINE
  8
22
 10
14.8262
 20
32.1026
 30
0.0000
 11
14.8262
 21
32.8815
 31
0.0000
  0
LINE
  8
22
 10
14.8262
 20
32.8815
 30
0.0000
 11
14.4368
 21
32.8815
 31
0.0000
  0
LINE
  8
22
 10
14.4368
 20
32.8815
 30
0.0000
 11
14.4368
 21
32.7517
 31
0.0000
  0
LINE
  8
22
 10
25.4207
 20
30.5221
 30
0.0000
 11
25.7452
 21
30.6519
 31
0.0000
  0
ARC
  8
22
 10
25.6827
 20
30.8082
 30
0.0000
 40
0.1683
 50
291.8011
 51
90.8182
  0
ARC
  8
22
 10
25.6909
 20
30.2394
 30
0.0000
 40
0.7371
 50
90.8181
 51
114.2388
  0
ARC
  8
22
 10
25.4832
 20
30.3658
 30
0.0000
 40
0.1683
 50
111.8011
 51
270.8182
  0
ARC
  8
22
 10
25.4699
 20
31.2983
 30
0.0000
 40
1.1008
 50
270.8181
 51
289.7910
  0
LINE
  8
22
 10
24.8591
 20
30.1976
 30
0.0000
 11
24.8591
 21
30.9765
 31
0.0000
  0
LINE
  8
22
 10
24.8915
 20
31.3010
 30
0.0000
 11
24.8915
 21
31.3660
 31
0.0000
  0
LINE
  8
22
 10
24.8915
 20
31.3660
 30
0.0000
 11
24.8266
 21
31.3660
 31
0.0000
  0
LINE
  8
22
 10
24.8266
 20
31.3660
 30
0.0000
 11
24.8266
 21
31.3010
 31
0.0000
  0
LINE
  8
22
 10
24.8266
 20
31.3010
 30
0.0000
 11
24.8915
 21
31.3010
 31
0.0000
  0
LINE
  8
22
 10
23.8814
 20
31.3660
 30
0.0000
 11
23.8814
 21
30.1976
 31
0.0000
  0
LINE
  8
22
 10
23.8814
 20
30.1976
 30
0.0000
 11
24.2060
 21
30.1976
 31
0.0000
  0
ARC
  8
22
 10
24.2060
 20
30.3923
 30
0.0000
 40
0.1947
 50
270.0000
 51
0.0000
  0
LINE
  8
22
 10
24.4007
 20
30.3923
 30
0.0000
 11
24.4007
 21
30.7818
 31
0.0000
  0
ARC
  8
22
 10
24.2060
 20
30.7818
 30
0.0000
 40
0.1947
 50
0.0000
 51
90.0000
  0
LINE
  8
22
 10
24.2060
 20
30.9765
 30
0.0000
 11
23.8814
 21
30.9765
 31
0.0000
  0
LINE
  8
22
 10
22.8468
 20
30.1976
 30
0.0000
 11
23.1714
 21
30.1976
 31
0.0000
  0
ARC
  8
22
 10
23.1714
 20
30.3923
 30
0.0000
 40
0.1947
 50
270.0000
 51
0.0000
  0
LINE
  8
22
 10
23.3661
 20
30.3923
 30
0.0000
 11
23.3661
 21
30.7168
 31
0.0000
  0
ARC
  8
22
 10
23.1065
 20
30.7168
 30
0.0000
 40
0.2596
 50
0.0000
 51
180.0000
  0
LINE
  8
22
 10
22.8468
 20
30.7168
 30
0.0000
 11
22.8468
 21
30.5870
 31
0.0000
  0
LINE
  8
22
 10
22.8468
 20
30.5870
 30
0.0000
 11
23.3661
 21
30.5870
 31
0.0000
  0
LINE
  8
22
 10
21.8626
 20
30.9765
 30
0.0000
 11
21.4732
 21
30.9765
 31
0.0000
  0
LINE
  8
22
 10
21.7328
 20
31.3660
 30
0.0000
 11
21.7328
 21
30.3923
 31
0.0000
  0
ARC
  8
22
 10
21.5381
 20
30.3923
 30
0.0000
 40
0.1947
 50
270.0000
 51
0.0000
  0
LINE
  8
22
 10
21.5381
 20
30.1976
 30
0.0000
 11
21.4732
 21
30.1976
 31
0.0000
  0
LINE
  8
22
 10
21.0420
 20
30.4572
 30
0.0000
 11
21.0420
 21
30.7168
 31
0.0000
  0
ARC
  8
22
 10
20.7824
 20
30.7168
 30
0.0000
 40
0.2596
 50
0.0000
 51
180.0000
  0
LINE
  8
22
 10
20.5227
 20
30.7168
 30
0.0000
 11
20.5227
 21
30.4572
 31
0.0000
  0
ARC
  8
22
 10
20.7824
 20
30.4572
 30
0.0000
 40
0.2596
 50
180.0000
 51
0.0000
  0
LINE
  8
22
 10
19.3978
 20
29.8081
 30
0.0000
 11
19.3978
 21
30.9765
 31
0.0000
  0
LINE
  8
22
 10
19.3978
 20
30.9765
 30
0.0000
 11
19.0733
 21
30.9765
 31
0.0000
  0
ARC
  8
22
 10
19.0733
 20
30.7817
 30
0.0000
 40
0.1947
 50
90.0000
 51
179.9982
  0
LINE
  8
22
 10
18.8785
 20
30.7818
 30
0.0000
 11
18.8785
 21
30.3923
 31
0.0000
  0
ARC
  8
22
 10
19.0733
 20
30.3923
 30
0.0000
 40
0.1947
 50
180.0000
 51
270.0009
  0
LINE
  8
22
 10
19.0733
 20
30.1976
 30
0.0000
 11
19.3978
 21
30.1976
 31
0.0000
  0
LINE
  8
22
 10
18.3684
 20
30.1976
 30
0.0000
 11
18.3684
 21
30.9765
 31
0.0000
  0
LINE
  8
22
 10
18.3684
 20
30.9765
 30
0.0000
 11
17.9789
 21
30.9765
 31
0.0000
  0
LINE
  8
22
 10
17.9789
 20
30.9765
 30
0.0000
 11
17.9789
 21
30.8467
 31
0.0000
  0
LINE
  8
22
 10
17.0937
 20
30.1976
 30
0.0000
 11
17.4183
 21
30.1976
 31
0.0000
  0
ARC
  8
22
 10
17.4183
 20
30.3923
 30
0.0000
 40
0.1947
 50
270.0000
 51
0.0000
  0
LINE
  8
22
 10
17.6130
 20
30.3923
 30
0.0000
 11
17.6130
 21
30.7168
 31
0.0000
  0
ARC
  8
22
 10
17.3534
 20
30.7168
 30
0.0000
 40
0.2596
 50
0.0000
 51
180.0000
  0
LINE
  8
22
 10
17.0937
 20
30.7168
 30
0.0000
 11
17.0937
 21
30.5870
 31
0.0000
  0
LINE
  8
22
 10
17.0937
 20
30.5870
 30
0.0000
 11
17.6130
 21
30.5870
 31
0.0000
  0
LINE
  8
22
 10
16.6605
 20
30.9765
 30
0.0000
 11
16.4009
 21
30.1976
 31
0.0000
  0
LINE
  8
22
 10
16.4009
 20
30.1976
 30
0.0000
 11
16.1412
 21
30.9765
 31
0.0000
  0
LINE
  8
22
 10
15.1887
 20
30.1976
 30
0.0000
 11
15.5133
 21
30.1976
 31
0.0000
  0
ARC
  8
22
 10
15.5133
 20
30.3923
 30
0.0000
 40
0.1947
 50
270.0000
 51
0.0000
  0
LINE
  8
22
 10
15.7080
 20
30.3923
 30
0.0000
 11
15.7080
 21
30.7168
 31
0.0000
  0
ARC
  8
22
 10
15.4484
 20
30.7168
 30
0.0000
 40
0.2596
 50
0.0000
 51
180.0000
  0
LINE
  8
22
 10
15.1887
 20
30.7168
 30
0.0000
 11
15.1887
 21
30.5870
 31
0.0000
  0
LINE
  8
22
 10
15.1887
 20
30.5870
 30
0.0000
 11
15.7080
 21
30.5870
 31
0.0000
  0
LINE
  8
22
 10
14.6793
 20
30.1976
 30
0.0000
 11
14.6793
 21
30.9765
 31
0.0000
  0
LINE
  8
22
 10
14.6793
 20
30.9765
 30
0.0000
 11
14.3548
 21
30.9765
 31
0.0000
  0
ARC
  8
22
 10
14.3548
 20
30.7817
 30
0.0000
 40
0.1947
 50
90.0000
 51
179.9982
  0
LINE
  8
22
 10
14.1600
 20
30.7818
 30
0.0000
 11
14.1600
 21
30.1976
 31
0.0000
  0
LINE
  8
22
 10
13.7473
 20
30.9765
 30
0.0000
 11
13.3579
 21
30.9765
 31
0.0000
  0
LINE
  8
22
 10
13.6175
 20
31.3660
 30
0.0000
 11
13.6175
 21
30.3923
 31
0.0000
  0
ARC
  8
22
 10
13.4228
 20
30.3923
 30
0.0000
 40
0.1947
 50
270.0000
 51
0.0000
  0
LINE
  8
22
 10
13.4228
 20
30.1976
 30
0.0000
 11
13.3579
 21
30.1976
 31
0.0000
  0
LINE
  8
22
 10
22.7509
 20
28.6171
 30
0.0000
 11
23.0754
 21
28.7469
 31
0.0000
  0
ARC
  8
22
 10
23.0129
 20
28.9032
 30
0.0000
 40
0.1683
 50
291.8011
 51
90.8182
  0
ARC
  8
22
 10
23.0210
 20
28.3344
 30
0.0000
 40
0.7371
 50
90.8181
 51
114.2388
  0
ARC
  8
22
 10
22.8134
 20
28.4608
 30
0.0000
 40
0.1683
 50
111.8011
 51
270.8182
  0
ARC
  8
22
 10
22.8001
 20
29.3933
 30
0.0000
 40
1.1008
 50
270.8181
 51
289.7910
  0
LINE
  8
22
 10
21.7265
 20
28.2926
 30
0.0000
 11
21.9861
 21
28.2926
 31
0.0000
  0
ARC
  8
22
 10
21.9861
 20
28.4873
 30
0.0000
 40
0.1947
 50
270.0000
 51
0.0000
  0
LINE
  8
22
 10
22.1809
 20
28.4873
 30
0.0000
 11
22.1809
 21
28.8768
 31
0.0000
  0
ARC
  8
22
 10
21.9861
 20
28.8768
 30
0.0000
 40
0.1947
 50
0.0000
 51
90.0000
  0
LINE
  8
22
 10
21.9861
 20
29.0715
 30
0.0000
 11
21.7265
 21
29.0715
 31
0.0000
  0
LINE
  8
22
 10
21.2612
 20
28.2926
 30
0.0000
 11
21.2612
 21
29.0715
 31
0.0000
  0
LINE
  8
22
 10
21.2612
 20
29.0715
 30
0.0000
 11
20.8717
 21
29.0715
 31
0.0000
  0
LINE
  8
22
 10
20.8717
 20
29.0715
 30
0.0000
 11
20.8717
 21
28.9417
 31
0.0000
  0
LINE
  8
22
 10
19.9924
 20
28.7469
 30
0.0000
 11
20.2845
 21
28.7469
 31
0.0000
  0
ARC
  8
22
 10
20.2845
 20
28.5197
 30
0.0000
 40
0.2272
 50
270.0000
 51
90.0000
  0
LINE
  8
22
 10
20.2845
 20
28.2926
 30
0.0000
 11
19.9924
 21
28.2926
 31
0.0000
  0
LINE
  8
22
 10
19.9924
 20
28.2926
 30
0.0000
 11
19.9924
 21
28.8768
 31
0.0000
  0
ARC
  8
22
 10
20.1871
 20
28.8768
 30
0.0000
 40
0.1947
 50
89.9991
 51
180.0000
  0
LINE
  8
22
 10
20.1871
 20
29.0715
 30
0.0000
 11
20.4468
 21
29.0715
 31
0.0000
  0
LINE
  8
22
 10
19.5738
 20
29.0715
 30
0.0000
 11
19.1844
 21
29.0715
 31
0.0000
  0
LINE
  8
22
 10
19.4440
 20
29.4610
 30
0.0000
 11
19.4440
 21
28.4873
 31
0.0000
  0
ARC
  8
22
 10
19.2493
 20
28.4873
 30
0.0000
 40
0.1947
 50
270.0000
 51
0.0000
  0
LINE
  8
22
 10
19.2493
 20
28.2926
 30
0.0000
 11
19.1844
 21
28.2926
 31
0.0000
  0
LINE
  8
22
 10
18.2975
 20
28.2926
 30
0.0000
 11
18.5571
 21
28.2926
 31
0.0000
  0
ARC
  8
22
 10
18.5571
 20
28.4873
 30
0.0000
 40
0.1947
 50
270.0000
 51
0.0000
  0
LINE
  8
22
 10
18.7519
 20
28.4873
 30
0.0000
 11
18.7519
 21
28.8768
 31
0.0000
  0
ARC
  8
22
 10
18.5571
 20
28.8768
 30
0.0000
 40
0.1947
 50
0.0000
 51
90.0000
  0
LINE
  8
22
 10
18.5571
 20
29.0715
 30
0.0000
 11
18.2975
 21
29.0715
 31
0.0000
  0
LINE
  8
22
 10
17.8388
 20
28.2926
 30
0.0000
 11
17.8388
 21
29.4610
 31
0.0000
  0
LINE
  8
22
 10
17.8388
 20
29.0715
 30
0.0000
 11
17.5142
 21
29.0715
 31
0.0000
  0
ARC
  8
22
 10
17.5142
 20
28.8767
 30
0.0000
 40
0.1947
 50
90.0000
 51
179.9982
  0
LINE
  8
22
 10
17.3195
 20
28.8768
 30
0.0000
 11
17.3195
 21
28.2926
 31
0.0000
  0
LINE
  8
22
 10
16.2908
 20
28.2926
 30
0.0000
 11
16.6154
 21
28.2926
 31
0.0000
  0
ARC
  8
22
 10
16.6154
 20
28.4873
 30
0.0000
 40
0.1947
 50
270.0000
 51
0.0000
  0
LINE
  8
22
 10
16.8101
 20
28.4873
 30
0.0000
 11
16.8101
 21
28.8118
 31
0.0000
  0
ARC
  8
22
 10
16.5505
 20
28.8118
 30
0.0000
 40
0.2596
 50
0.0000
 51
180.0000
  0
LINE
  8
22
 10
16.2908
 20
28.8118
 30
0.0000
 11
16.2908
 21
28.6820
 31
0.0000
  0
LINE
  8
22
 10
16.2908
 20
28.6820
 30
0.0000
 11
16.8101
 21
28.6820
 31
0.0000
  0
LINE
  8
22
 10
15.3976
 20
28.6171
 30
0.0000
 11
15.7221
 21
28.7469
 31
0.0000
  0
ARC
  8
22
 10
15.6596
 20
28.9032
 30
0.0000
 40
0.1683
 50
291.8011
 51
90.8182
  0
ARC
  8
22
 10
15.6678
 20
28.3344
 30
0.0000
 40
0.7371
 50
90.8181
 51
114.2388
  0
ARC
  8
22
 10
15.4601
 20
28.4608
 30
0.0000
 40
0.1683
 50
111.8011
 51
270.8182
  0
ARC
  8
22
 10
15.4468
 20
29.3933
 30
0.0000
 40
1.1008
 50
270.8181
 51
289.7910
  0
LINE
  8
22
 10
15.6726
 20
12.0630
 30
0.0000
 11
15.6726
 21
10.8946
 31
0.0000
  0
LINE
  8
22
 10
15.6726
 20
10.8946
 30
0.0000
 11
15.1533
 21
10.8946
 31
0.0000
  0
LINE
  8
22
 10
14.6955
 20
11.6735
 30
0.0000
 11
14.6955
 21
11.0893
 31
0.0000
  0
ARC
  8
22
 10
14.5008
 20
11.0893
 30
0.0000
 40
0.1947
 50
270.0000
 51
0.0000
  0
LINE
  8
22
 10
14.5008
 20
10.8946
 30
0.0000
 11
14.1762
 21
10.8946
 31
0.0000
  0
LINE
  8
22
 10
14.1762
 20
10.8946
 30
0.0000
 11
14.1762
 21
11.6735
 31
0.0000
  0
LINE
  8
22
 10
13.6061
 20
10.8946
 30
0.0000
 11
13.6061
 21
11.6735
 31
0.0000
  0
LINE
  8
22
 10
13.6061
 20
11.6735
 30
0.0000
 11
13.0219
 21
11.6735
 31
0.0000
  0
ARC
  8
22
 10
13.0219
 20
11.4787
 30
0.0000
 40
0.1947
 50
90.0000
 51
180.0000
  0
LINE
  8
22
 10
12.8272
 20
11.4787
 30
0.0000
 11
12.8272
 21
10.8946
 31
0.0000
  0
LINE
  8
22
 10
13.2167
 20
10.8946
 30
0.0000
 11
13.2167
 21
11.6735
 31
0.0000
  0
LINE
  8
22
 10
12.2512
 20
12.0630
 30
0.0000
 11
12.2512
 21
10.8946
 31
0.0000
  0
LINE
  8
22
 10
12.2512
 20
10.8946
 30
0.0000
 11
11.9267
 21
10.8946
 31
0.0000
  0
ARC
  8
22
 10
11.9267
 20
11.0893
 30
0.0000
 40
0.1947
 50
180.0018
 51
270.0000
  0
LINE
  8
22
 10
11.7319
 20
11.0893
 30
0.0000
 11
11.7319
 21
11.4787
 31
0.0000
  0
ARC
  8
22
 10
11.9267
 20
11.4787
 30
0.0000
 40
0.1947
 50
89.9991
 51
180.0000
  0
LINE
  8
22
 10
11.9267
 20
11.6735
 30
0.0000
 11
12.2512
 21
11.6735
 31
0.0000
  0
LINE
  8
22
 10
10.7472
 20
10.8946
 30
0.0000
 11
11.0718
 21
10.8946
 31
0.0000
  0
ARC
  8
22
 10
11.0718
 20
11.0893
 30
0.0000
 40
0.1947
 50
270.0000
 51
0.0000
  0
LINE
  8
22
 10
11.2665
 20
11.0893
 30
0.0000
 11
11.2665
 21
11.4138
 31
0.0000
  0
ARC
  8
22
 10
11.0069
 20
11.4138
 30
0.0000
 40
0.2596
 50
0.0000
 51
180.0000
  0
LINE
  8
22
 10
10.7472
 20
11.4138
 30
0.0000
 11
10.7472
 21
11.2840
 31
0.0000
  0
LINE
  8
22
 10
10.7472
 20
11.2840
 30
0.0000
 11
11.2665
 21
11.2840
 31
0.0000
  0
LINE
  8
22
 10
10.2312
 20
10.8946
 30
0.0000
 11
10.2312
 21
11.6735
 31
0.0000
  0
LINE
  8
22
 10
10.2312
 20
11.6735
 30
0.0000
 11
9.8417
 21
11.6735
 31
0.0000
  0
LINE
  8
22
 10
9.8417
 20
11.6735
 30
0.0000
 11
9.8417
 21
11.5437
 31
0.0000
  0
LINE
  8
22
 10
8.9624
 20
10.8946
 30
0.0000
 11
9.2870
 21
10.8946
 31
0.0000
  0
ARC
  8
22
 10
9.2870
 20
11.0893
 30
0.0000
 40
0.1947
 50
270.0000
 51
0.0000
  0
LINE
  8
22
 10
9.4817
 20
11.0893
 30
0.0000
 11
9.4817
 21
11.4787
 31
0.0000
  0
ARC
  8
22
 10
9.2870
 20
11.4787
 30
0.0000
 40
0.1947
 50
0.0000
 51
90.0000
  0
LINE
  8
22
 10
9.2870
 20
11.6735
 30
0.0000
 11
8.9624
 21
11.6735
 31
0.0000
  0
LINE
  8
22
 10
8.9624
 20
11.6735
 30
0.0000
 11
8.9624
 21
10.6998
 31
0.0000
  0
ARC
  8
22
 10
9.1572
 20
10.6998
 30
0.0000
 40
0.1947
 50
180.0000
 51
270.0000
  0
LINE
  8
22
 10
9.1572
 20
10.5051
 30
0.0000
 11
9.4168
 21
10.5051
 31
0.0000
  0
ARC
  8
22
 10
13.9480
 20
9.2492
 30
0.0000
 40
0.2596
 50
180.0000
 51
270.0000
  0
ARC
  8
22
 10
13.9480
 20
9.5381
 30
0.0000
 40
0.5485
 50
269.9999
 51
315.2393
  0
ARC
  8
22
 10
14.0454
 20
9.8983
 30
0.0000
 40
0.2596
 50
0.0000
 51
90.0000
  0
ARC
  8
22
 10
14.0454
 20
9.6711
 30
0.0000
 40
0.4868
 50
90.0000
 51
126.8706
  0
ARC
  8
22
 10
14.0413
 20
9.8983
 30
0.0000
 40
0.2637
 50
300.5101
 51
359.9999
  0
ARC
  8
22
 10
13.9521
 20
9.2492
 30
0.0000
 40
0.2637
 50
120.5098
 51
180.0002
  0
LINE
  8
22
 10
13.8182
 20
9.4764
 30
0.0000
 11
14.1752
 21
9.6711
 31
0.0000
  0
LINE
  8
22
 10
13.2975
 20
10.1580
 30
0.0000
 11
12.9080
 21
8.9896
 31
0.0000
  0
LINE
  8
22
 10
12.9080
 20
8.9896
 30
0.0000
 11
12.5186
 21
10.1580
 31
0.0000
  0
LINE
  8
22
 10
12.0896
 20
8.9896
 30
0.0000
 11
11.7001
 21
8.9896
 31
0.0000
  0
ARC
  8
22
 10
11.7001
 20
9.2492
 30
0.0000
 40
0.2596
 50
180.0000
 51
270.0000
  0
LINE
  8
22
 10
11.4405
 20
9.2492
 30
0.0000
 11
11.4405
 21
9.3790
 31
0.0000
  0
ARC
  8
22
 10
11.7001
 20
9.3790
 30
0.0000
 40
0.2596
 50
90.0000
 51
180.0000
  0
LINE
  8
22
 10
11.7001
 20
9.6387
 30
0.0000
 11
12.0896
 21
9.6387
 31
0.0000
  0
LINE
  8
22
 10
12.0896
 20
9.6387
 30
0.0000
 11
12.0896
 21
10.1580
 31
0.0000
  0
LINE
  8
22
 10
12.0896
 20
10.1580
 30
0.0000
 11
11.4405
 21
10.1580
 31
0.0000
  0
ARC
  8
22
 10
9.9838
 20
9.5738
 30
0.0000
 40
0.9629
 50
359.9999
 51
25.9891
  0
ARC
  8
22
 10
10.6221
 20
9.9178
 30
0.0000
 40
0.2402
 50
18.9249
 51
90.0000
  0
ARC
  8
22
 10
10.6221
 20
9.9178
 30
0.0000
 40
0.2402
 50
90.0002
 51
161.0741
  0
ARC
  8
22
 10
11.2603
 20
9.5738
 30
0.0000
 40
0.9628
 50
154.0109
 51
180.0001
  0
ARC
  8
22
 10
9.9837
 20
9.5738
 30
0.0000
 40
0.9629
 50
334.0112
 51
360.0000
  0
ARC
  8
22
 10
10.6221
 20
9.2297
 30
0.0000
 40
0.2402
 50
270.0002
 51
341.0746
  0
ARC
  8
22
 10
11.2604
 20
9.5738
 30
0.0000
 40
0.9629
 50
180.0000
 51
205.9888
  0
ARC
  8
22
 10
10.6221
 20
9.2297
 30
0.0000
 40
0.2402
 50
198.9267
 51
270.0000
  0
LINE
  8
22
 10
10.8817
 20
9.2492
 30
0.0000
 11
10.3624
 21
9.8983
 31
0.0000
  0
ARC
  8
22
 10
13.0000
 20
14.2000
 30
0.0000
 40
1.1045
 50
185.1944
 51
354.8056
  0
LINE
  8
22
 10
18.7611
 20
8.2611
 30
0.0000
 11
18.5000
 21
8.4699
 31
0.0000
  0
LINE
  8
22
 10
18.5000
 20
8.4699
 30
0.0000
 11
18.5000
 21
7.5301
 31
0.0000
  0
LINE
  8
22
 10
18.7611
 20
7.5301
 30
0.0000
 11
18.2389
 21
7.5301
 31
0.0000
  0
ARC
  8
22
 10
12.9739
 20
2.8350
 30
0.0000
 40
0.2350
 50
90.0000
 51
180.0000
  0
ARC
  8
22
 10
12.9739
 20
2.7681
 30
0.0000
 40
0.3018
 50
17.9442
 51
90.0001
  0
ARC
  8
22
 10
12.9913
 20
2.8350
 30
0.0000
 40
0.2524
 50
180.0002
 51
226.3960
  0
LINE
  8
22
 10
12.8173
 20
2.6522
 30
0.0000
 11
13.2611
 21
2.1301
 31
0.0000
  0
LINE
  8
22
 10
13.2611
 20
2.1301
 30
0.0000
 11
12.7389
 21
2.1301
 31
0.0000
  0
LINE
  8
22
 10
7.9611
 20
7.5301
 30
0.0000
 11
7.7000
 21
7.5301
 31
0.0000
  0
ARC
  8
22
 10
7.7000
 20
7.7912
 30
0.0000
 40
0.2611
 50
90.0000
 51
270.0000
  0
LINE
  8
22
 10
7.9611
 20
8.4699
 30
0.0000
 11
7.6478
 21
8.4699
 31
0.0000
  0
ARC
  8
22
 10
7.6478
 20
8.2611
 30
0.0000
 40
0.2088
 50
90.0000
 51
270.0000
  0
LINE
  8
22
 10
7.6478
 20
8.0522
 30
0.0000
 11
7.8566
 21
8.0522
 31
0.0000
  0
LINE
  8
22
 10
16.7522
 20
4.5699
 30
0.0000
 11
16.9611
 21
3.8389
 31
0.0000
  0
LINE
  8
22
 10
16.9611
 20
3.8389
 30
0.0000
 11
16.4389
 21
3.8389
 31
0.0000
  0
LINE
  8
22
 10
16.5956
 20
4.0478
 30
0.0000
 11
16.5956
 21
3.6301
 31
0.0000
  0
LINE
  8
22
 10
9.4611
 20
3.6301
 30
0.0000
 11
9.1478
 21
3.6301
 31
0.0000
  0
ARC
  8
22
 10
9.1478
 20
3.8389
 30
0.0000
 40
0.2088
 50
180.0000
 51
270.0000
  0
LINE
  8
22
 10
8.9389
 20
3.8389
 30
0.0000
 11
8.9389
 21
3.9434
 31
0.0000
  0
ARC
  8
22
 10
9.1478
 20
3.9434
 30
0.0000
 40
0.2088
 50
90.0000
 51
180.0000
  0
LINE
  8
22
 10
9.1478
 20
4.1522
 30
0.0000
 11
9.4611
 21
4.1522
 31
0.0000
  0
LINE
  8
22
 10
9.4611
 20
4.1522
 30
0.0000
 11
9.4611
 21
4.5699
 31
0.0000
  0
LINE
  8
22
 10
9.4611
 20
4.5699
 30
0.0000
 11
8.9389
 21
4.5699
 31
0.0000
  0
CIRCLE
  8
22
 10
13.0000
 20
8.0000
 30
0.0000
 40
6.8000
  0
CIRCLE
  8
22
 10
13.0000
 20
8.0000
 30
0.0000
 40
6.2000
  0
CIRCLE
  8
52
 10
13.0000
 20
4.5000
 30
0.0000
 40
0.8000
  0
CIRCLE
  8
52
 10
16.5000
 20
8.0000
 30
0.0000
 40
0.8000
  0
CIRCLE
  8
52
 10
9.5000
 20
8.0000
 30
0.0000
 40
0.8000
  0
CIRCLE
  8
52
 10
15.4700
 20
5.5300
 30
0.0000
 40
0.8000
  0
CIRCLE
  8
52
 10
10.5300
 20
5.5300
 30
0.0000
 40
0.8000
  0
LINE
  8
22
 10
53.0924
 20
45.5189
 30
0.0000
 11
53.0924
 21
46.8651
 31
0.0000
  0
LINE
  8
22
 10
53.0924
 20
46.8651
 30
0.0000
 11
52.7184
 21
46.8651
 31
0.0000
  0
ARC
  8
22
 10
52.7184
 20
46.6407
 30
0.0000
 40
0.2244
 50
90.0000
 51
179.9992
  0
LINE
  8
22
 10
52.4940
 20
46.6408
 30
0.0000
 11
52.4940
 21
46.1920
 31
0.0000
  0
ARC
  8
22
 10
52.7184
 20
46.1920
 30
0.0000
 40
0.2244
 50
180.0000
 51
270.0000
  0
LINE
  8
22
 10
52.7184
 20
45.9676
 30
0.0000
 11
53.0924
 21
45.9676
 31
0.0000
  0
LINE
  8
22
 10
51.9027
 20
47.3139
 30
0.0000
 11
51.9027
 21
46.1920
 31
0.0000
  0
ARC
  8
22
 10
51.6784
 20
46.1920
 30
0.0000
 40
0.2244
 50
270.0008
 51
0.0000
  0
LINE
  8
22
 10
50.5948
 20
46.4912
 30
0.0000
 11
50.9314
 21
46.4912
 31
0.0000
  0
ARC
  8
22
 10
50.9314
 20
46.2294
 30
0.0000
 40
0.2618
 50
270.0000
 51
90.0000
  0
LINE
  8
22
 10
50.9314
 20
45.9676
 30
0.0000
 11
50.5948
 21
45.9676
 31
0.0000
  0
LINE
  8
22
 10
50.5948
 20
45.9676
 30
0.0000
 11
50.5948
 21
46.6408
 31
0.0000
  0
ARC
  8
22
 10
50.8192
 20
46.6408
 30
0.0000
 40
0.2244
 50
89.9992
 51
180.0000
  0
LINE
  8
22
 10
50.8192
 20
46.8651
 30
0.0000
 11
51.1184
 21
46.8651
 31
0.0000
  0
LINE
  8
22
 10
49.4271
 20
45.9676
 30
0.0000
 11
49.7263
 21
45.9676
 31
0.0000
  0
ARC
  8
22
 10
49.7263
 20
46.1920
 30
0.0000
 40
0.2244
 50
270.0000
 51
0.0008
  0
LINE
  8
22
 10
49.9506
 20
46.1920
 30
0.0000
 11
49.9506
 21
46.6408
 31
0.0000
  0
ARC
  8
22
 10
49.7263
 20
46.6408
 30
0.0000
 40
0.2244
 50
0.0000
 51
90.0000
  0
LINE
  8
22
 10
49.7263
 20
46.8651
 30
0.0000
 11
49.4271
 21
46.8651
 31
0.0000
  0
LINE
  8
22
 10
48.3048
 20
45.9676
 30
0.0000
 11
48.6788
 21
45.9676
 31
0.0000
  0
ARC
  8
22
 10
48.6788
 20
46.1920
 30
0.0000
 40
0.2244
 50
270.0000
 51
0.0008
  0
LINE
  8
22
 10
48.9031
 20
46.1920
 30
0.0000
 11
48.9031
 21
46.5660
 31
0.0000
  0
ARC
  8
22
 10
48.6040
 20
46.5660
 30
0.0000
 40
0.2992
 50
0.0000
 51
180.0000
  0
LINE
  8
22
 10
48.3048
 20
46.5660
 30
0.0000
 11
48.3048
 21
46.4164
 31
0.0000
  0
LINE
  8
22
 10
48.3048
 20
46.4164
 30
0.0000
 11
48.9031
 21
46.4164
 31
0.0000
  0
LINE
  8
22
 10
47.6382
 20
45.9676
 30
0.0000
 11
47.6382
 21
46.8651
 31
0.0000
  0
LINE
  8
22
 10
47.6382
 20
46.8651
 30
0.0000
 11
46.9651
 21
46.8651
 31
0.0000
  0
ARC
  8
22
 10
46.9651
 20
46.6407
 30
0.0000
 40
0.2244
 50
90.0000
 51
179.9992
  0
LINE
  8
22
 10
46.7408
 20
46.6408
 30
0.0000
 11
46.7408
 21
45.9676
 31
0.0000
  0
LINE
  8
22
 10
47.1895
 20
45.9676
 30
0.0000
 11
47.1895
 21
46.8651
 31
0.0000
  0
LINE
  8
22
 10
45.4759
 20
45.9676
 30
0.0000
 11
45.8498
 21
45.9676
 31
0.0000
  0
ARC
  8
22
 10
45.8498
 20
46.1920
 30
0.0000
 40
0.2244
 50
270.0000
 51
0.0008
  0
LINE
  8
22
 10
46.0742
 20
46.1920
 30
0.0000
 11
46.0742
 21
46.5660
 31
0.0000
  0
ARC
  8
22
 10
45.7750
 20
46.5660
 30
0.0000
 40
0.2992
 50
0.0000
 51
180.0000
  0
LINE
  8
22
 10
45.4759
 20
46.5660
 30
0.0000
 11
45.4759
 21
46.4164
 31
0.0000
  0
LINE
  8
22
 10
45.4759
 20
46.4164
 30
0.0000
 11
46.0742
 21
46.4164
 31
0.0000
  0
LINE
  8
22
 10
44.8422
 20
45.9676
 30
0.0000
 11
44.8422
 21
46.8651
 31
0.0000
  0
LINE
  8
22
 10
44.8422
 20
46.8651
 30
0.0000
 11
44.4683
 21
46.8651
 31
0.0000
  0
ARC
  8
22
 10
44.4683
 20
46.6407
 30
0.0000
 40
0.2244
 50
90.0000
 51
179.9992
  0
LINE
  8
22
 10
44.2439
 20
46.6408
 30
0.0000
 11
44.2439
 21
45.9676
 31
0.0000
  0
LINE
  8
22
 10
43.7315
 20
46.8651
 30
0.0000
 11
43.2827
 21
46.8651
 31
0.0000
  0
LINE
  8
22
 10
43.5819
 20
47.3139
 30
0.0000
 11
43.5819
 21
46.1920
 31
0.0000
  0
ARC
  8
22
 10
43.3575
 20
46.1920
 30
0.0000
 40
0.2244
 50
269.9992
 51
360.0000
  0
LINE
  8
22
 10
43.3575
 20
45.9676
 30
0.0000
 11
43.2827
 21
45.9676
 31
0.0000
  0
LINE
  8
22
 10
41.5271
 20
46.3416
 30
0.0000
 11
41.9011
 21
46.4912
 31
0.0000
  0
ARC
  8
22
 10
41.8291
 20
46.6712
 30
0.0000
 40
0.1939
 50
291.8014
 51
90.8190
  0
ARC
  8
22
 10
41.8384
 20
46.0159
 30
0.0000
 40
0.8493
 50
90.8190
 51
114.2391
  0
ARC
  8
22
 10
41.5991
 20
46.1615
 30
0.0000
 40
0.1939
 50
111.8014
 51
270.8190
  0
ARC
  8
22
 10
41.5838
 20
47.2360
 30
0.0000
 40
1.2684
 50
270.8190
 51
289.7904
  0
LINE
  8
22
 10
40.8269
 20
46.2668
 30
0.0000
 11
40.8269
 21
46.5660
 31
0.0000
  0
ARC
  8
22
 10
40.5278
 20
46.5660
 30
0.0000
 40
0.2992
 50
0.0000
 51
180.0000
  0
LINE
  8
22
 10
40.2286
 20
46.5660
 30
0.0000
 11
40.2286
 21
46.2668
 31
0.0000
  0
ARC
  8
22
 10
40.5278
 20
46.2668
 30
0.0000
 40
0.2992
 50
180.0000
 51
0.0000
  0
LINE
  8
22
 10
39.6287
 20
47.3139
 30
0.0000
 11
39.6287
 21
46.1920
 31
0.0000
  0
ARC
  8
22
 10
39.4043
 20
46.1920
 30
0.0000
 40
0.2244
 50
270.0008
 51
0.0000
  0
LINE
  8
22
 10
38.3208
 20
47.3139
 30
0.0000
 11
38.3208
 21
45.9676
 31
0.0000
  0
LINE
  8
22
 10
38.3208
 20
45.9676
 30
0.0000
 11
38.6947
 21
45.9676
 31
0.0000
  0
ARC
  8
22
 10
38.6947
 20
46.1920
 30
0.0000
 40
0.2244
 50
270.0000
 51
0.0008
  0
LINE
  8
22
 10
38.9191
 20
46.1920
 30
0.0000
 11
38.9191
 21
46.6408
 31
0.0000
  0
ARC
  8
22
 10
38.6947
 20
46.6408
 30
0.0000
 40
0.2244
 50
0.0000
 51
90.0000
  0
LINE
  8
22
 10
38.6947
 20
46.8651
 30
0.0000
 11
38.3208
 21
46.8651
 31
0.0000
  0
LINE
  8
22
 10
37.0802
 20
45.9676
 30
0.0000
 11
37.4542
 21
45.9676
 31
0.0000
  0
ARC
  8
22
 10
37.4542
 20
46.1920
 30
0.0000
 40
0.2244
 50
270.0000
 51
0.0008
  0
LINE
  8
22
 10
37.6785
 20
46.1920
 30
0.0000
 11
37.6785
 21
46.5660
 31
0.0000
  0
ARC
  8
22
 10
37.3794
 20
46.5660
 30
0.0000
 40
0.2992
 50
0.0000
 51
180.0000
  0
LINE
  8
22
 10
37.0802
 20
46.5660
 30
0.0000
 11
37.0802
 21
46.4164
 31
0.0000
  0
LINE
  8
22
 10
37.0802
 20
46.4164
 30
0.0000
 11
37.6785
 21
46.4164
 31
0.0000
  0
LINE
  8
22
 10
36.4369
 20
45.9676
 30
0.0000
 11
36.4369
 21
46.8651
 31
0.0000
  0
LINE
  8
22
 10
36.4369
 20
46.8651
 30
0.0000
 11
35.9881
 21
46.8651
 31
0.0000
  0
LINE
  8
22
 10
35.9881
 20
46.8651
 30
0.0000
 11
35.9881
 21
46.7155
 31
0.0000
  0
LINE
  8
22
 10
34.3178
 20
46.3416
 30
0.0000
 11
34.6918
 21
46.4912
 31
0.0000
  0
ARC
  8
22
 10
34.6198
 20
46.6712
 30
0.0000
 40
0.1939
 50
291.8014
 51
90.8190
  0
ARC
  8
22
 10
34.6291
 20
46.0159
 30
0.0000
 40
0.8493
 50
90.8190
 51
114.2391
  0
ARC
  8
22
 10
34.3899
 20
46.1615
 30
0.0000
 40
0.1939
 50
111.8014
 51
270.8190
  0
ARC
  8
22
 10
34.3745
 20
47.2360
 30
0.0000
 40
1.2684
 50
270.8190
 51
289.7904
  0
LINE
  8
22
 10
33.6379
 20
45.9676
 30
0.0000
 11
33.6379
 21
46.8651
 31
0.0000
  0
LINE
  8
22
 10
33.6753
 20
47.2391
 30
0.0000
 11
33.6753
 21
47.3139
 31
0.0000
  0
LINE
  8
22
 10
33.6753
 20
47.3139
 30
0.0000
 11
33.6005
 21
47.3139
 31
0.0000
  0
LINE
  8
22
 10
33.6005
 20
47.3139
 30
0.0000
 11
33.6005
 21
47.2391
 31
0.0000
  0
LINE
  8
22
 10
33.6005
 20
47.2391
 30
0.0000
 11
33.6753
 21
47.2391
 31
0.0000
  0
LINE
  8
22
 10
32.4804
 20
47.3139
 30
0.0000
 11
32.4804
 21
45.9676
 31
0.0000
  0
LINE
  8
22
 10
32.4804
 20
45.9676
 30
0.0000
 11
32.8543
 21
45.9676
 31
0.0000
  0
ARC
  8
22
 10
32.8543
 20
46.1920
 30
0.0000
 40
0.2244
 50
270.0000
 51
0.0008
  0
LINE
  8
22
 10
33.0787
 20
46.1920
 30
0.0000
 11
33.0787
 21
46.6408
 31
0.0000
  0
ARC
  8
22
 10
32.8543
 20
46.6408
 30
0.0000
 40
0.2244
 50
0.0000
 51
90.0000
  0
LINE
  8
22
 10
32.8543
 20
46.8651
 30
0.0000
 11
32.4804
 21
46.8651
 31
0.0000
  0
LINE
  8
22
 10
31.2398
 20
45.9676
 30
0.0000
 11
31.6138
 21
45.9676
 31
0.0000
  0
ARC
  8
22
 10
31.6138
 20
46.1920
 30
0.0000
 40
0.2244
 50
270.0000
 51
0.0008
  0
LINE
  8
22
 10
31.8381
 20
46.1920
 30
0.0000
 11
31.8381
 21
46.5660
 31
0.0000
  0
ARC
  8
22
 10
31.5390
 20
46.5660
 30
0.0000
 40
0.2992
 50
0.0000
 51
180.0000
  0
LINE
  8
22
 10
31.2398
 20
46.5660
 30
0.0000
 11
31.2398
 21
46.4164
 31
0.0000
  0
LINE
  8
22
 10
31.2398
 20
46.4164
 30
0.0000
 11
31.8381
 21
46.4164
 31
0.0000
  0
ENDSEC
  0
EOF
