  0
SECTION
  2
HEADER
  9
$ACADVER
  1
AC1009
  9
$FILLMODE
 70
0
  9
$EXTMIN
 10
-0.8573
 20
-0.1348
 30
0.0000
  9
$EXTMAX
 10
54.8450
 20
60.5600
 30
0.0000
  0
ENDSEC
  0
SECTION
  2
TABLES
  0
TABLE
  2
LTYPE
 70
1
  0
LTYPE
  2
CONTINUOUS
 70
64
  3
Solid line
 72
65
 73
0
 40
0
  0
ENDTAB
  0
TABLE
  2
LAYER
 70
255
  0
LAYER
  2
20
 70
64
 62
30
  6
CONTINUOUS
  0
LAYER
  2
30
 70
64
 62
253
  6
CONTINUOUS
  0
LAYER
  2
49
 70
64
 62
253
  6
CONTINUOUS
  0
ENDTAB
  0
ENDSEC
  0
SECTION
  2
BLOCKS
  0
BLOCK
  8
0
  2
RECT
 70
64
 10
0.0000
 20
0.0000
 30
0.0000
  3
RECT
  0
SOLID
  8
0
 10
-0.5000
 20
-0.5000
 30
0.0000
 11
0.5000
 21
-0.5000
 31
0.0000
 12
-0.5000
 22
0.5000
 32
0.0000
 13
0.5000
 23
0.5000
 33
0.0000
  0
ENDBLK
  8
0
  0
BLOCK
  8
0
  2
PIE
 70
64
 10
0.0000
 20
0.0000
 30
0.0000
  3
PIE
  0
CIRCLE
  8
0
 10
0.0000
 20
0.0000
 30
0.0000
 40
0.5000
  0
ENDBLK
  8
0
  0
BLOCK
  8
0
  2
OCTAGONP
 70
64
 10
0.0000
 20
0.0000
 30
0.0000
  3
OCTAGONP
  0
POLYLINE
  8
0
 66
1
 10
0.0000
 20
0.0000
 30
0.0000
 40
0.0000
 41
0.0000
 70
1
  0
VERTEX
  8
0
 10
-0.5000
 20
-0.2071
 30
0.0000
  0
VERTEX
  8
0
 10
-0.5000
 20
0.2071
 30
0.0000
  0
VERTEX
  8
0
 10
-0.2071
 20
0.5000
 30
0.0000
  0
VERTEX
  8
0
 10
0.2071
 20
0.5000
 30
0.0000
  0
VERTEX
  8
0
 10
0.5000
 20
0.2071
 30
0.0000
  0
VERTEX
  8
0
 10
0.5000
 20
-0.2071
 30
0.0000
  0
VERTEX
  8
0
 10
0.2071
 20
-0.5000
 30
0.0000
  0
VERTEX
  8
0
 10
-0.2071
 20
-0.5000
 30
0.0000
  0
SEQEND
  8
0
  0
ENDBLK
  8
0
  0
BLOCK
  8
0
  2
SQUAREP
 70
64
 10
0.0000
 20
0.0000
 30
0.0000
  3
SQUAREP
  0
SOLID
  8
0
 10
-0.5000
 20
-0.5000
 30
0.0000
 11
0.5000
 21
-0.5000
 31
0.0000
 12
-0.5000
 22
0.5000
 32
0.0000
 13
0.5000
 23
0.5000
 33
0.0000
  0
ENDBLK
  8
0
  0
BLOCK
  8
0
  2
ROUNDP
 70
64
 10
0.0000
 20
0.0000
 30
0.0000
  3
ROUNDP
  0
CIRCLE
  8
0
 10
0.0000
 20
0.0000
 30
0.0000
 40
0.5000
  0
ENDBLK
  8
0
  0
BLOCK
  8
0
  2
ANNULUSP
 70
64
 10
0.0000
 20
0.0000
 30
0.0000
  3
ANNULUSP
  0
CIRCLE
  8
0
 10
0.0000
 20
0.0000
 30
0.0000
 40
0.5000
  0
ENDBLK
  8
0
  0
BLOCK
  8
0
  2
THERMALP
 70
64
 10
0.0000
 20
0.0000
 30
0.0000
  3
THERMALP
  0
LINE
  8
0
 10
-0.2379
 20
0.4500
 30
0.0000
 11
0.2379
 21
0.4500
 31
0.0000
  0
LINE
  8
0
 10
0.4500
 20
0.2379
 30
0.0000
 11
0.4500
 21
-0.2379
 31
0.0000
  0
LINE
  8
0
 10
0.2379
 20
-0.4500
 30
0.0000
 11
-0.2379
 21
-0.4500
 31
0.0000
  0
LINE
  8
0
 10
-0.4500
 20
-0.2379
 30
0.0000
 11
-0.4500
 21
0.2379
 31
0.0000
  0
ENDBLK
  8
0
  0
BLOCK
  8
0
  2
OCTAGONV
 70
64
 10
0.0000
 20
0.0000
 30
0.0000
  3
OCTAGONV
  0
POLYLINE
  8
0
 66
1
 10
0.0000
 20
0.0000
 30
0.0000
 40
0.0000
 41
0.0000
 70
1
  0
VERTEX
  8
0
 10
-0.5000
 20
-0.2071
 30
0.0000
  0
VERTEX
  8
0
 10
-0.5000
 20
0.2071
 30
0.0000
  0
VERTEX
  8
0
 10
-0.2071
 20
0.5000
 30
0.0000
  0
VERTEX
  8
0
 10
0.2071
 20
0.5000
 30
0.0000
  0
VERTEX
  8
0
 10
0.5000
 20
0.2071
 30
0.0000
  0
VERTEX
  8
0
 10
0.5000
 20
-0.2071
 30
0.0000
  0
VERTEX
  8
0
 10
0.2071
 20
-0.5000
 30
0.0000
  0
VERTEX
  8
0
 10
-0.2071
 20
-0.5000
 30
0.0000
  0
SEQEND
  8
0
  0
ENDBLK
  8
0
  0
BLOCK
  8
0
  2
SQUAREV
 70
64
 10
0.0000
 20
0.0000
 30
0.0000
  3
SQUAREV
  0
SOLID
  8
0
 10
-0.5000
 20
-0.5000
 30
0.0000
 11
0.5000
 21
-0.5000
 31
0.0000
 12
-0.5000
 22
0.5000
 32
0.0000
 13
0.5000
 23
0.5000
 33
0.0000
  0
ENDBLK
  8
0
  0
BLOCK
  8
0
  2
ROUNDV
 70
64
 10
0.0000
 20
0.0000
 30
0.0000
  3
ROUNDV
  0
CIRCLE
  8
0
 10
0.0000
 20
0.0000
 30
0.0000
 40
0.5000
  0
ENDBLK
  8
0
  0
BLOCK
  8
0
  2
ANNULUSV
 70
64
 10
0.0000
 20
0.0000
 30
0.0000
  3
ANNULUSV
  0
CIRCLE
  8
0
 10
0.0000
 20
0.0000
 30
0.0000
 40
0.5000
  0
ENDBLK
  8
0
  0
BLOCK
  8
0
  2
THERMALV
 70
64
 10
0.0000
 20
0.0000
 30
0.0000
  3
THERMALV
  0
LINE
  8
0
 10
-0.2379
 20
0.4500
 30
0.0000
 11
0.2379
 21
0.4500
 31
0.0000
  0
LINE
  8
0
 10
0.4500
 20
0.2379
 30
0.0000
 11
0.4500
 21
-0.2379
 31
0.0000
  0
LINE
  8
0
 10
0.2379
 20
-0.4500
 30
0.0000
 11
-0.2379
 21
-0.4500
 31
0.0000
  0
LINE
  8
0
 10
-0.4500
 20
-0.2379
 30
0.0000
 11
-0.4500
 21
0.2379
 31
0.0000
  0
ENDBLK
  8
0
  0
BLOCK
  8
0
  2
OFFSETP100
 70
64
 10
0.0000
 20
0.0000
 30
0.0000
  3
OFFSETP100
  0
POLYLINE
  8
0
 66
1
 10
0.0000
 20
0.0000
 30
0.0000
 40
0.0000
 41
0.0000
 70
1
  0
VERTEX
  8
0
 10
0.0000
 20
-0.5000
 30
0.0000
  0
VERTEX
  8
0
 10
1.0000
 20
-0.5000
 30
0.0000
 42
1.0000
  0
VERTEX
  8
0
 10
1.0000
 20
0.5000
 30
0.0000
  0
VERTEX
  8
0
 10
0.0000
 20
0.5000
 30
0.0000
 42
1.0000
  0
SEQEND
  8
0
  0
ENDBLK
  8
0
  0
ENDSEC
  0
SECTION
  2
ENTITIES
  0
LINE
  8
20
 10
1.0000
 20
38.0000
 30
0.0000
 11
27.0000
 21
38.0000
 31
0.0000
  0
ARC
  8
20
 10
27.0000
 20
37.0000
 30
0.0000
 40
1.0000
 50
0.0000
 51
90.0000
  0
LINE
  8
20
 10
28.0000
 20
37.0000
 30
0.0000
 11
28.0000
 21
1.0000
 31
0.0000
  0
ARC
  8
20
 10
27.0000
 20
1.0000
 30
0.0000
 40
1.0000
 50
270.0000
 51
0.0000
  0
LINE
  8
20
 10
27.0000
 20
0.0000
 30
0.0000
 11
1.0000
 21
0.0000
 31
0.0000
  0
ARC
  8
20
 10
1.0000
 20
1.0000
 30
0.0000
 40
1.0000
 50
180.0000
 51
270.0000
  0
LINE
  8
20
 10
0.0000
 20
1.0000
 30
0.0000
 11
0.0000
 21
37.0000
 31
0.0000
  0
ARC
  8
20
 10
1.0000
 20
37.0000
 30
0.0000
 40
1.0000
 50
90.0000
 51
180.0000
  0
INSERT
  8
30
  2
OFFSETP100
 10
16.5000
 20
8.0000
 30
0.0000
 41
2.6604
 42
2.6604
 43
1.0000
 50
0.0000
  0
INSERT
  8
30
  2
OFFSETP100
 10
13.0000
 20
4.5000
 30
0.0000
 41
2.6604
 42
2.6604
 43
1.0000
 50
270.0000
  0
INSERT
  8
30
  2
OFFSETP100
 10
9.5000
 20
8.0000
 30
0.0000
 41
2.6604
 42
2.6604
 43
1.0000
 50
180.0000
  0
INSERT
  8
30
  2
OFFSETP100
 10
15.4700
 20
5.5300
 30
0.0000
 41
2.6604
 42
2.6604
 43
1.0000
 50
315.0000
  0
INSERT
  8
30
  2
OFFSETP100
 10
10.5300
 20
5.5300
 30
0.0000
 41
2.6604
 42
2.6604
 43
1.0000
 50
225.0000
  0
INSERT
  8
30
  2
ROUNDP
 10
17.4645
 20
21.5355
 30
0.0000
 41
2.7432
 42
2.7432
 43
1.0000
 50
45.0000
  0
INSERT
  8
30
  2
ROUNDP
 10
24.5355
 20
21.5355
 30
0.0000
 41
2.7432
 42
2.7432
 43
1.0000
 50
45.0000
  0
INSERT
  8
30
  2
ROUNDP
 10
24.5355
 20
14.4645
 30
0.0000
 41
2.7432
 42
2.7432
 43
1.0000
 50
45.0000
  0
INSERT
  8
30
  2
ROUNDP
 10
17.4645
 20
14.4645
 30
0.0000
 41
2.7432
 42
2.7432
 43
1.0000
 50
45.0000
  0
INSERT
  8
30
  2
ROUNDP
 10
21.0000
 20
18.0000
 30
0.0000
 41
2.3876
 42
2.3876
 43
1.0000
 50
45.0000
  0
INSERT
  8
30
  2
ROUNDP
 10
3.4645
 20
35.5355
 30
0.0000
 41
2.7432
 42
2.7432
 43
1.0000
 50
45.0000
  0
INSERT
  8
30
  2
ROUNDP
 10
10.5355
 20
35.5355
 30
0.0000
 41
2.7432
 42
2.7432
 43
1.0000
 50
45.0000
  0
INSERT
  8
30
  2
ROUNDP
 10
10.5355
 20
28.4645
 30
0.0000
 41
2.7432
 42
2.7432
 43
1.0000
 50
45.0000
  0
INSERT
  8
30
  2
ROUNDP
 10
3.4645
 20
28.4645
 30
0.0000
 41
2.7432
 42
2.7432
 43
1.0000
 50
45.0000
  0
INSERT
  8
30
  2
ROUNDP
 10
7.0000
 20
32.0000
 30
0.0000
 41
2.3876
 42
2.3876
 43
1.0000
 50
45.0000
  0
INSERT
  8
30
  2
ROUNDP
 10
3.4645
 20
21.5355
 30
0.0000
 41
2.7432
 42
2.7432
 43
1.0000
 50
45.0000
  0
INSERT
  8
30
  2
ROUNDP
 10
10.5355
 20
21.5355
 30
0.0000
 41
2.7432
 42
2.7432
 43
1.0000
 50
45.0000
  0
INSERT
  8
30
  2
ROUNDP
 10
10.5355
 20
14.4645
 30
0.0000
 41
2.7432
 42
2.7432
 43
1.0000
 50
45.0000
  0
INSERT
  8
30
  2
ROUNDP
 10
3.4645
 20
14.4645
 30
0.0000
 41
2.7432
 42
2.7432
 43
1.0000
 50
45.0000
  0
INSERT
  8
30
  2
ROUNDP
 10
7.0000
 20
18.0000
 30
0.0000
 41
2.3876
 42
2.3876
 43
1.0000
 50
45.0000
  0
LINE
  8
30
 10
2.0412
 20
46.3416
 30
0.0000
 11
1.6672
 21
46.4912
 31
0.0000
  0
ARC
  8
30
 10
1.7392
 20
46.6712
 30
0.0000
 40
0.1939
 50
89.1810
 51
248.1986
  0
ARC
  8
30
 10
1.7299
 20
46.0159
 30
0.0000
 40
0.8493
 50
65.7609
 51
89.1810
  0
ARC
  8
30
 10
1.9692
 20
46.1615
 30
0.0000
 40
0.1939
 50
269.1810
 51
68.1986
  0
ARC
  8
30
 10
1.9845
 20
47.2360
 30
0.0000
 40
1.2684
 50
250.2096
 51
269.1810
  0
LINE
  8
30
 10
2.6202
 20
46.8651
 30
0.0000
 11
3.0689
 21
46.8651
 31
0.0000
  0
LINE
  8
30
 10
2.7697
 20
47.3139
 30
0.0000
 11
2.7697
 21
46.1920
 31
0.0000
  0
ARC
  8
30
 10
2.9941
 20
46.1920
 30
0.0000
 40
0.2244
 50
180.0000
 51
270.0000
  0
LINE
  8
30
 10
2.9941
 20
45.9676
 30
0.0000
 11
3.0689
 21
45.9676
 31
0.0000
  0
LINE
  8
30
 10
3.6083
 20
46.2668
 30
0.0000
 11
3.6083
 21
46.5660
 31
0.0000
  0
ARC
  8
30
 10
3.9075
 20
46.5660
 30
0.0000
 40
0.2992
 50
0.0000
 51
180.0000
  0
LINE
  8
30
 10
4.2066
 20
46.5660
 30
0.0000
 11
4.2066
 21
46.2668
 31
0.0000
  0
ARC
  8
30
 10
3.9075
 20
46.2668
 30
0.0000
 40
0.2992
 50
180.0000
 51
0.0000
  0
LINE
  8
30
 10
4.8489
 20
45.5189
 30
0.0000
 11
4.8489
 21
46.8651
 31
0.0000
  0
LINE
  8
30
 10
4.8489
 20
46.8651
 30
0.0000
 11
5.2228
 21
46.8651
 31
0.0000
  0
ARC
  8
30
 10
5.2228
 20
46.6408
 30
0.0000
 40
0.2244
 50
0.0000
 51
90.0000
  0
LINE
  8
30
 10
5.4472
 20
46.6408
 30
0.0000
 11
5.4472
 21
46.1920
 31
0.0000
  0
ARC
  8
30
 10
5.2228
 20
46.1920
 30
0.0000
 40
0.2244
 50
270.0008
 51
0.0000
  0
LINE
  8
30
 10
5.2228
 20
45.9676
 30
0.0000
 11
4.8489
 21
45.9676
 31
0.0000
  0
LINE
  8
30
 10
6.1052
 20
45.9676
 30
0.0000
 11
6.1052
 21
46.8651
 31
0.0000
  0
LINE
  8
30
 10
6.1052
 20
46.8651
 30
0.0000
 11
6.7783
 21
46.8651
 31
0.0000
  0
ARC
  8
30
 10
6.7783
 20
46.6408
 30
0.0000
 40
0.2244
 50
0.0000
 51
90.0000
  0
LINE
  8
30
 10
7.0027
 20
46.6408
 30
0.0000
 11
7.0027
 21
45.9676
 31
0.0000
  0
LINE
  8
30
 10
6.5539
 20
45.9676
 30
0.0000
 11
6.5539
 21
46.8651
 31
0.0000
  0
LINE
  8
30
 10
8.2590
 20
46.4912
 30
0.0000
 11
7.9224
 21
46.4912
 31
0.0000
  0
ARC
  8
30
 10
7.9224
 20
46.2294
 30
0.0000
 40
0.2618
 50
90.0000
 51
270.0000
  0
LINE
  8
30
 10
7.9224
 20
45.9676
 30
0.0000
 11
8.2590
 21
45.9676
 31
0.0000
  0
LINE
  8
30
 10
8.2590
 20
45.9676
 30
0.0000
 11
8.2590
 21
46.6408
 31
0.0000
  0
ARC
  8
30
 10
8.0346
 20
46.6408
 30
0.0000
 40
0.2244
 50
0.0000
 51
90.0000
  0
LINE
  8
30
 10
8.0346
 20
46.8651
 30
0.0000
 11
7.7354
 21
46.8651
 31
0.0000
  0
LINE
  8
30
 10
9.3873
 20
46.3416
 30
0.0000
 11
9.0134
 21
46.4912
 31
0.0000
  0
ARC
  8
30
 10
9.0854
 20
46.6712
 30
0.0000
 40
0.1939
 50
89.1810
 51
248.1986
  0
ARC
  8
30
 10
9.0761
 20
46.0159
 30
0.0000
 40
0.8493
 50
65.7609
 51
89.1810
  0
ARC
  8
30
 10
9.3153
 20
46.1615
 30
0.0000
 40
0.1939
 50
269.1810
 51
68.1986
  0
ARC
  8
30
 10
9.3307
 20
47.2360
 30
0.0000
 40
1.2684
 50
250.2096
 51
269.1810
  0
LINE
  8
30
 10
10.1530
 20
45.9676
 30
0.0000
 11
10.1530
 21
47.3139
 31
0.0000
  0
LINE
  8
30
 10
10.7513
 20
46.8651
 30
0.0000
 11
10.1530
 21
46.4164
 31
0.0000
  0
LINE
  8
30
 10
10.7513
 20
45.9676
 30
0.0000
 11
10.4147
 21
46.6034
 31
0.0000
  0
LINE
  8
30
 10
12.4901
 20
46.3416
 30
0.0000
 11
12.1161
 21
46.4912
 31
0.0000
  0
ARC
  8
30
 10
12.1881
 20
46.6712
 30
0.0000
 40
0.1939
 50
89.1810
 51
248.1986
  0
ARC
  8
30
 10
12.1788
 20
46.0159
 30
0.0000
 40
0.8493
 50
65.7609
 51
89.1810
  0
ARC
  8
30
 10
12.4181
 20
46.1615
 30
0.0000
 40
0.1939
 50
269.1810
 51
68.1986
  0
ARC
  8
30
 10
12.4334
 20
47.2360
 30
0.0000
 40
1.2684
 50
250.2096
 51
269.1810
  0
LINE
  8
30
 10
13.1903
 20
46.2668
 30
0.0000
 11
13.1903
 21
46.5660
 31
0.0000
  0
ARC
  8
30
 10
13.4894
 20
46.5660
 30
0.0000
 40
0.2992
 50
0.0000
 51
180.0000
  0
LINE
  8
30
 10
13.7886
 20
46.5660
 30
0.0000
 11
13.7886
 21
46.2668
 31
0.0000
  0
ARC
  8
30
 10
13.4894
 20
46.2668
 30
0.0000
 40
0.2992
 50
180.0000
 51
0.0000
  0
LINE
  8
30
 10
14.3885
 20
47.3139
 30
0.0000
 11
14.3885
 21
46.1920
 31
0.0000
  0
ARC
  8
30
 10
14.6129
 20
46.1920
 30
0.0000
 40
0.2244
 50
180.0000
 51
270.0000
  0
LINE
  8
30
 10
15.6964
 20
47.3139
 30
0.0000
 11
15.6964
 21
45.9676
 31
0.0000
  0
LINE
  8
30
 10
15.6964
 20
45.9676
 30
0.0000
 11
15.3224
 21
45.9676
 31
0.0000
  0
ARC
  8
30
 10
15.3224
 20
46.1920
 30
0.0000
 40
0.2244
 50
180.0000
 51
270.0000
  0
LINE
  8
30
 10
15.0981
 20
46.1920
 30
0.0000
 11
15.0981
 21
46.6408
 31
0.0000
  0
ARC
  8
30
 10
15.3224
 20
46.6408
 30
0.0000
 40
0.2244
 50
89.9992
 51
180.0000
  0
LINE
  8
30
 10
15.3224
 20
46.8651
 30
0.0000
 11
15.6964
 21
46.8651
 31
0.0000
  0
LINE
  8
30
 10
16.9370
 20
45.9676
 30
0.0000
 11
16.5630
 21
45.9676
 31
0.0000
  0
ARC
  8
30
 10
16.5630
 20
46.1920
 30
0.0000
 40
0.2244
 50
180.0000
 51
270.0000
  0
LINE
  8
30
 10
16.3387
 20
46.1920
 30
0.0000
 11
16.3387
 21
46.5660
 31
0.0000
  0
ARC
  8
30
 10
16.6378
 20
46.5660
 30
0.0000
 40
0.2992
 50
0.0000
 51
180.0000
  0
LINE
  8
30
 10
16.9370
 20
46.5660
 30
0.0000
 11
16.9370
 21
46.4164
 31
0.0000
  0
LINE
  8
30
 10
16.9370
 20
46.4164
 30
0.0000
 11
16.3387
 21
46.4164
 31
0.0000
  0
LINE
  8
30
 10
17.5803
 20
45.9676
 30
0.0000
 11
17.5803
 21
46.8651
 31
0.0000
  0
LINE
  8
30
 10
17.5803
 20
46.8651
 30
0.0000
 11
18.0291
 21
46.8651
 31
0.0000
  0
LINE
  8
30
 10
18.0291
 20
46.8651
 30
0.0000
 11
18.0291
 21
46.7155
 31
0.0000
  0
LINE
  8
30
 10
19.6994
 20
46.3416
 30
0.0000
 11
19.3254
 21
46.4912
 31
0.0000
  0
ARC
  8
30
 10
19.3974
 20
46.6712
 30
0.0000
 40
0.1939
 50
89.1810
 51
248.1986
  0
ARC
  8
30
 10
19.3881
 20
46.0159
 30
0.0000
 40
0.8493
 50
65.7609
 51
89.1810
  0
ARC
  8
30
 10
19.6273
 20
46.1615
 30
0.0000
 40
0.1939
 50
269.1810
 51
68.1986
  0
ARC
  8
30
 10
19.6427
 20
47.2360
 30
0.0000
 40
1.2684
 50
250.2096
 51
269.1810
  0
LINE
  8
30
 10
20.3793
 20
45.9676
 30
0.0000
 11
20.3793
 21
46.8651
 31
0.0000
  0
LINE
  8
30
 10
20.3419
 20
47.2391
 30
0.0000
 11
20.3419
 21
47.3139
 31
0.0000
  0
LINE
  8
30
 10
20.3419
 20
47.3139
 30
0.0000
 11
20.4167
 21
47.3139
 31
0.0000
  0
LINE
  8
30
 10
20.4167
 20
47.3139
 30
0.0000
 11
20.4167
 21
47.2391
 31
0.0000
  0
LINE
  8
30
 10
20.4167
 20
47.2391
 30
0.0000
 11
20.3419
 21
47.2391
 31
0.0000
  0
LINE
  8
30
 10
21.5368
 20
47.3139
 30
0.0000
 11
21.5368
 21
45.9676
 31
0.0000
  0
LINE
  8
30
 10
21.5368
 20
45.9676
 30
0.0000
 11
21.1629
 21
45.9676
 31
0.0000
  0
ARC
  8
30
 10
21.1629
 20
46.1920
 30
0.0000
 40
0.2244
 50
180.0000
 51
270.0000
  0
LINE
  8
30
 10
20.9385
 20
46.1920
 30
0.0000
 11
20.9385
 21
46.6408
 31
0.0000
  0
ARC
  8
30
 10
21.1629
 20
46.6408
 30
0.0000
 40
0.2244
 50
89.9992
 51
180.0000
  0
LINE
  8
30
 10
21.1629
 20
46.8651
 30
0.0000
 11
21.5368
 21
46.8651
 31
0.0000
  0
LINE
  8
30
 10
22.7774
 20
45.9676
 30
0.0000
 11
22.4034
 21
45.9676
 31
0.0000
  0
ARC
  8
30
 10
22.4034
 20
46.1920
 30
0.0000
 40
0.2244
 50
180.0000
 51
270.0000
  0
LINE
  8
30
 10
22.1791
 20
46.1920
 30
0.0000
 11
22.1791
 21
46.5660
 31
0.0000
  0
ARC
  8
30
 10
22.4782
 20
46.5660
 30
0.0000
 40
0.2992
 50
0.0000
 51
180.0000
  0
LINE
  8
30
 10
22.7774
 20
46.5660
 30
0.0000
 11
22.7774
 21
46.4164
 31
0.0000
  0
LINE
  8
30
 10
22.7774
 20
46.4164
 30
0.0000
 11
22.1791
 21
46.4164
 31
0.0000
  0
ENDSEC
  0
EOF
