0
SECTION
2
HEADER
9
$INSUNITS
70
4
9
$ACADVER
1
AC1014
9
$HANDSEED
5
FFFF
0
ENDSEC
0
SECTION
2
TABLES
0
TABLE
2
VPORT
5
8
100
AcDbSymbolTable
0
ENDTAB
0
TABLE
2
LTYPE
5
5
100
AcDbSymbolTable
0
LTYPE
5
14
100
AcDbSymbolTableRecord
100
AcDbLinetypeTableRecord
2
BYBLOCK
70
0
0
LTYPE
5
15
100
AcDbSymbolTableRecord
100
AcDbLinetypeTableRecord
2
BYLAYER
70
0
0
ENDTAB
0
TABLE
2
LAYER
5
2
100
AcDbSymbolTable
70
2
0
LAYER
5
50
100
AcDbSymbolTableRecord
100
AcDbLayerTableRecord
2
0
70
0
6
CONTINUOUS
0
ENDTAB
0
TABLE
2
STYLE
5
3
100
AcDbSymbolTable
70
1
0
STYLE
5
11
100
AcDbSymbolTableRecord
100
AcDbTextStyleTableRecord
2
STANDARD
70
0
0
ENDTAB
0
TABLE
2
VIEW
5
6
100
AcDbSymbolTable
70
0
0
ENDTAB
0
TABLE
2
UCS
5
7
100
AcDbSymbolTable
70
0
0
ENDTAB
0
TABLE
2
APPID
5
9
100
AcDbSymbolTable
70
2
0
APPID
5
12
100
AcDbSymbolTableRecord
100
AcDbRegAppTableRecord
2
ACAD
70
0
0
ENDTAB
0
TABLE
2
DIMSTYLE
5
A
100
AcDbSymbolTable
70
1
0
ENDTAB
0
TABLE
2
BLOCK_RECORD
5
1
100
AcDbSymbolTable
70
1
0
BLOCK_RECORD
5
1F
100
AcDbSymbolTableRecord
100
AcDbBlockTableRecord
2
*MODEL_SPACE
0
BLOCK_RECORD
5
1B
100
AcDbSymbolTableRecord
100
AcDbBlockTableRecord
2
*PAPER_SPACE
0
ENDTAB
0
ENDSEC
0
SECTION
2
BLOCKS
0
BLOCK
5
20
100
AcDbEntity
100
AcDbBlockBegin
2
*MODEL_SPACE
0
ENDBLK
5
21
100
AcDbEntity
100
AcDbBlockEnd
0
BLOCK
5
1C
100
AcDbEntity
100
AcDbBlockBegin
2
*PAPER_SPACE
0
ENDBLK
5
1D
100
AcDbEntity
100
AcDbBlockEnd
0
ENDSEC
0
SECTION
2
ENTITIES
0
CIRCLE
5
100
100
AcDbEntity
8
0
100
AcDbCircle
10
-7.0000000000000018
20
-18
30
0
40
5.9728999999999992
210
0
220
0
230
1
0
LWPOLYLINE
5
101
100
AcDbEntity
8
0
100
AcDbPolyline
90
8
70
1
43
0.0
10
-1.0000000000000073
20
0.29999999999999194
42
-0.41421356237309481
10
0.29999999999998928
20
-1.0000000000000009
10
0.30000000000000315
20
-37
42
-0.4142135623730962
10
-1.0000000000000098
20
-38.299999999999997
10
-27
20
-38.300000000000011
42
-0.41421356237309703
10
-28.300000000000011
20
-36.999999999999986
10
-28.300000000000001
20
-0.99999999999999933
42
-0.41421356237309709
10
-27
20
0.30000000000000027
0
CIRCLE
5
102
100
AcDbEntity
8
0
100
AcDbCircle
10
-7.0000000000000018
20
-32
30
0
40
5.9729000000000063
210
0
220
0
230
1
0
CIRCLE
5
103
100
AcDbEntity
8
0
100
AcDbCircle
10
-21
20
-18
30
0
40
5.9729000000000028
210
0
220
0
230
1
0
CIRCLE
5
104
100
AcDbEntity
8
0
100
AcDbCircle
10
-7.0000000000000018
20
-32
30
0
40
5.4729000000000037
210
0
220
-0
230
1
0
CIRCLE
5
105
100
AcDbEntity
8
0
100
AcDbCircle
10
-7.0000000000000018
20
-18
30
0
40
5.4728999999999974
210
0
220
-0
230
1
0
CIRCLE
5
106
100
AcDbEntity
8
0
100
AcDbCircle
10
-21
20
-18
30
0
40
5.472900000000001
210
0
220
-0
230
1
0
LWPOLYLINE
5
107
100
AcDbEntity
8
0
100
AcDbPolyline
90
8
70
1
43
0.0
10
0.3000000000000026
20
-37
10
0.29999999999998928
20
-0.99999999999999967
42
0.41421356237309442
10
-1.0000000000000053
20
0.29999999999999166
10
-27
20
0.30000000000000054
42
0.41421356237309748
10
-28.300000000000001
20
-1.0000000000000009
10
-28.300000000000011
20
-36.999999999999986
42
0.41421356237309703
10
-27
20
-38.300000000000011
10
-1.00000000000001
20
-38.299999999999997
42
0.41421356237309626
0
LWPOLYLINE
5
108
100
AcDbEntity
8
0
100
AcDbPolyline
90
8
70
1
43
0.0
10
-27
20
-38.800000000000011
42
-0.41421356237309648
10
-28.800000000000008
20
-36.999999999999986
10
-28.799999999999997
20
-1.0000000000000038
42
-0.41421356237309725
10
-27
20
0.8000000000000006
10
-1.0000000000000056
20
0.79999999999999183
42
-0.41421356237309459
10
0.79999999999998916
20
-1.0000000000000009
10
0.80000000000000138
20
-37
42
-0.41421356237309587
10
-1.0000000000000098
20
-38.799999999999997
0
ENDSEC
0
SECTION
2
OBJECTS
0
DICTIONARY
5
C
100
AcDbDictionary
3
ACAD_GROUP
350
D
3
ACAD_MLINESTYLE
350
17
0
DICTIONARY
5
D
100
AcDbDictionary
0
DICTIONARY
5
1A
330
C
100
AcDbDictionary
0
DICTIONARY
5
17
100
AcDbDictionary
0
ENDSEC
0
EOF
